<svg version="1.1" viewBox="0.0 0.0 600.0 371.0" fill="none" stroke="none" stroke-linecap="square" stroke-miterlimit="10" width="600" height="371" xmlns:xlink="http://www.w3.org/1999/xlink" xmlns="http://www.w3.org/2000/svg"><path fill="#ffffff" d="M0 0L600.0 0L600.0 371.0L0 371.0L0 0Z" fill-rule="nonzero"/><path stroke="#cccccc" stroke-width="1.0" stroke-linecap="butt" d="M77.5 85.5L77.5 300.5" fill-rule="nonzero"/><path stroke="#cccccc" stroke-width="1.0" stroke-linecap="butt" d="M161.5 85.5L161.5 300.5" fill-rule="nonzero"/><path stroke="#cccccc" stroke-width="1.0" stroke-linecap="butt" d="M245.5 85.5L245.5 300.5" fill-rule="nonzero"/><path stroke="#cccccc" stroke-width="1.0" stroke-linecap="butt" d="M329.5 85.5L329.5 300.5" fill-rule="nonzero"/><path stroke="#cccccc" stroke-width="1.0" stroke-linecap="butt" d="M413.5 85.5L413.5 300.5" fill-rule="nonzero"/><path stroke="#cccccc" stroke-width="1.0" stroke-linecap="butt" d="M497.5 85.5L497.5 300.5" fill-rule="nonzero"/><path stroke="#cccccc" stroke-width="1.0" stroke-linecap="butt" d="M581.5 85.5L581.5 300.5" fill-rule="nonzero"/><path stroke="#333333" stroke-width="1.0" stroke-linecap="butt" d="M77.5 300.5L581.5 300.5" fill-rule="nonzero"/><path stroke="#cccccc" stroke-width="1.0" stroke-linecap="butt" d="M77.5 246.5L581.5 246.5" fill-rule="nonzero"/><path stroke="#cccccc" stroke-width="1.0" stroke-linecap="butt" d="M77.5 192.5L581.5 192.5" fill-rule="nonzero"/><path stroke="#cccccc" stroke-width="1.0" stroke-linecap="butt" d="M77.5 139.5L581.5 139.5" fill-rule="nonzero"/><path stroke="#cccccc" stroke-width="1.0" stroke-linecap="butt" d="M77.5 85.5L581.5 85.5" fill-rule="nonzero"/><clipPath id="id_0"><path d="M77.55 85.416664L581.45 85.416664L581.45 300.45L77.55 300.45L77.55 85.416664Z" clip-rule="nonzero"/></clipPath><path stroke="#607d8b" stroke-width="4.0" stroke-linecap="butt" clip-path="url(#id_0)" d="M581.45 134.09715L497.46667 253.67291L413.48334 267.78323L329.5 297.09546L245.51666 294.50946L161.53334 294.10123L77.55 294.44568" fill-rule="nonzero"/><path fill="#000000" fill-opacity="0.0" clip-path="url(#id_0)" d="M584.45 134.09715C584.45 135.75401 583.1069 137.09715 581.45 137.09715C579.79315 137.09715 578.45 135.75401 578.45 134.09715C578.45 132.44029 579.79315 131.09715 581.45 131.09715C583.1069 131.09715 584.45 132.44029 584.45 134.09715Z" fill-rule="nonzero"/><path fill="#000000" fill-opacity="0.0" clip-path="url(#id_0)" d="M500.46667 253.67291C500.46667 255.32977 499.12354 256.6729 497.46667 256.6729C495.8098 256.6729 494.46667 255.32977 494.46667 253.67291C494.46667 252.01607 495.8098 250.67291 497.46667 250.67291C499.12354 250.67291 500.46667 252.01607 500.46667 253.67291Z" fill-rule="nonzero"/><path fill="#000000" fill-opacity="0.0" clip-path="url(#id_0)" d="M416.48334 267.78323C416.48334 269.4401 415.1402 270.78323 413.48334 270.78323C411.82648 270.78323 410.48334 269.4401 410.48334 267.78323C410.48334 266.12637 411.82648 264.78323 413.48334 264.78323C415.1402 264.78323 416.48334 266.12637 416.48334 267.78323Z" fill-rule="nonzero"/><path fill="#000000" fill-opacity="0.0" clip-path="url(#id_0)" d="M332.5 297.09546C332.5 298.75232 331.15686 300.09546 329.5 300.09546C327.84314 300.09546 326.5 298.75232 326.5 297.09546C326.5 295.43863 327.84314 294.09546 329.5 294.09546C331.15686 294.09546 332.5 295.43863 332.5 297.09546Z" fill-rule="nonzero"/><path fill="#000000" fill-opacity="0.0" clip-path="url(#id_0)" d="M248.51666 294.50946C248.51666 296.16632 247.17352 297.50946 245.51666 297.50946C243.85982 297.50946 242.51666 296.16632 242.51666 294.50946C242.51666 292.8526 243.85982 291.50946 245.51666 291.50946C247.17352 291.50946 248.51666 292.8526 248.51666 294.50946Z" fill-rule="nonzero"/><path fill="#000000" fill-opacity="0.0" clip-path="url(#id_0)" d="M164.53334 294.10123C164.53334 295.7581 163.19019 297.10123 161.53334 297.10123C159.87648 297.10123 158.53334 295.7581 158.53334 294.10123C158.53334 292.44437 159.87648 291.10123 161.53334 291.10123C163.19019 291.10123 164.53334 292.44437 164.53334 294.10123Z" fill-rule="nonzero"/><path fill="#000000" fill-opacity="0.0" clip-path="url(#id_0)" d="M80.55 294.44568C80.55 296.10254 79.206856 297.44568 77.55 297.44568C75.89314 297.44568 74.55 296.10254 74.55 294.44568C74.55 292.78882 75.89314 291.44568 77.55 291.44568C79.206856 291.44568 80.55 292.78882 80.55 294.44568Z" fill-rule="nonzero"/><path fill="#000000" d="M316.42188 349.45L314.14062 340.85626L315.3125 340.85626L316.625 346.4969Q316.82812 347.3719 316.98438 348.2469Q317.3125 346.8719 317.375 346.65314L319.0 340.85626L320.375 340.85626L321.60938 345.2Q322.0625 346.825 322.28125 348.2469Q322.4375 347.4344 322.70312 346.3719L324.04688 340.85626L325.1875 340.85626L322.84375 349.45L321.73438 349.45L319.9375 342.90314Q319.70312 342.09064 319.65625 341.90314Q319.53125 342.48126 319.40625 342.90314L317.59375 349.45L316.42188 349.45ZM330.04688 347.45L331.14062 347.575Q330.89062 348.52814 330.1875 349.0594Q329.48438 349.59064 328.40625 349.59064Q327.04688 349.59064 326.23438 348.7469Q325.4375 347.90314 325.4375 346.3875Q325.4375 344.825 326.25 343.96564Q327.0625 343.09064 328.34375 343.09064Q329.59375 343.09064 330.375 343.9344Q331.17188 344.77814 331.17188 346.325Q331.17188 346.41876 331.17188 346.60626L326.53125 346.60626Q326.59375 347.6375 327.10938 348.1844Q327.625 348.71564 328.40625 348.71564Q328.98438 348.71564 329.39062 348.41876Q329.8125 348.10626 330.04688 347.45ZM326.59375 345.7469L330.0625 345.7469Q330.0 344.95 329.67188 344.5594Q329.15625 343.95 328.35938 343.95Q327.625 343.95 327.125 344.4344Q326.64062 344.91876 326.59375 345.7469ZM337.04688 347.45L338.14062 347.575Q337.89062 348.52814 337.1875 349.0594Q336.48438 349.59064 335.40625 349.59064Q334.04688 349.59064 333.23438 348.7469Q332.4375 347.90314 332.4375 346.3875Q332.4375 344.825 333.25 343.96564Q334.0625 343.09064 335.34375 343.09064Q336.59375 343.09064 337.375 343.9344Q338.17188 344.77814 338.17188 346.325Q338.17188 346.41876 338.17188 346.60626L333.53125 346.60626Q333.59375 347.6375 334.10938 348.1844Q334.625 348.71564 335.40625 348.71564Q335.98438 348.71564 336.39062 348.41876Q336.8125 348.10626 337.04688 347.45ZM333.59375 345.7469L337.0625 345.7469Q337.0 344.95 336.67188 344.5594Q336.15625 343.95 335.35938 343.95Q334.625 343.95 334.125 344.4344Q333.64062 344.91876 333.59375 345.7469ZM339.79688 349.45L339.79688 340.85626L340.85938 340.85626L340.85938 345.7625L343.34375 343.23126L344.71875 343.23126L342.32812 345.52814L344.95312 349.45L343.65625 349.45L341.59375 346.2625L340.85938 346.98126L340.85938 349.45L339.79688 349.45Z" fill-rule="nonzero"/><path fill="#000000" d="M20.956263 266.37082L20.956263 265.2302L25.925013 265.2302Q27.221888 265.2302 27.987513 265.52707Q28.737513 265.82394 29.221888 266.58957Q29.690638 267.3552 29.690638 268.58957Q29.690638 269.7927 29.284388 270.57394Q28.862513 271.33957 28.081263 271.6677Q27.284388 271.99582 25.925013 271.99582L20.956263 271.99582L20.956263 270.8552L25.909388 270.8552Q27.034388 270.8552 27.565638 270.65207Q28.096888 270.43332 28.393763 269.93332Q28.675013 269.4177 28.675013 268.68332Q28.675013 267.43332 28.112513 266.90207Q27.534388 266.37082 25.909388 266.37082L20.956263 266.37082ZM31.940638 263.13644L23.331263 263.13644L23.331263 262.18332L24.128138 262.18332Q23.659388 261.83957 23.425013 261.4177Q23.190638 260.9802 23.190638 260.37082Q23.190638 259.57394 23.596888 258.96457Q24.003138 258.3552 24.753138 258.05832Q25.503138 257.74582 26.393763 257.74582Q27.346888 257.74582 28.112513 258.08957Q28.878138 258.4177 29.284388 259.07394Q29.690638 259.7302 29.690638 260.44894Q29.690638 260.9802 29.471888 261.40207Q29.237513 261.82394 28.909388 262.08957L31.940638 262.08957L31.940638 263.13644ZM26.471888 262.18332Q27.675013 262.18332 28.253138 261.69894Q28.815638 261.21457 28.815638 260.52707Q28.815638 259.82394 28.221888 259.32394Q27.628138 258.82394 26.378138 258.82394Q25.190638 258.82394 24.612513 259.30832Q24.018763 259.7927 24.018763 260.4802Q24.018763 261.15207 24.643763 261.6677Q25.268763 262.18332 26.471888 262.18332ZM29.550013 256.1677L20.956263 256.1677L20.956263 255.10521L29.550013 255.10521L29.550013 256.1677ZM26.440638 253.52708Q24.706263 253.52708 23.878138 252.57396Q23.190638 251.77708 23.190638 250.62083Q23.190638 249.33958 24.034388 248.52708Q24.862513 247.69896 26.346888 247.69896Q27.550013 247.69896 28.237513 248.05833Q28.925013 248.41771 29.315638 249.12083Q29.690638 249.80833 29.690638 250.62083Q29.690638 251.91771 28.862513 252.73021Q28.018763 253.52708 26.440638 253.52708ZM26.440638 252.44896Q27.628138 252.44896 28.221888 251.93333Q28.815638 251.40208 28.815638 250.62083Q28.815638 249.82396 28.221888 249.30833Q27.628138 248.79271 26.409388 248.79271Q25.253138 248.79271 24.659388 249.32396Q24.065638 249.83958 24.065638 250.62083Q24.065638 251.40208 24.659388 251.93333Q25.237513 252.44896 26.440638 252.44896ZM28.784388 242.07396Q29.284388 242.66771 29.487513 243.21458Q29.690638 243.74583 29.690638 244.37083Q29.690638 245.40208 29.190638 245.94896Q28.690638 246.49583 27.909388 246.49583Q27.456263 246.49583 27.081263 246.29271Q26.690638 246.08958 26.471888 245.74583Q26.237513 245.40208 26.128138 244.98021Q26.034388 244.68333 25.956263 244.04271Q25.815638 242.77708 25.596888 242.16771Q25.378138 242.16771 25.331263 242.16771Q24.675013 242.16771 24.409388 242.46458Q24.065638 242.87083 24.065638 243.66771Q24.065638 244.40208 24.331263 244.76146Q24.581263 245.12083 25.237513 245.29271L25.096888 246.32396Q24.440638 246.18333 24.034388 245.85521Q23.628138 245.52708 23.409388 244.91771Q23.190638 244.30833 23.190638 243.51146Q23.190638 242.71458 23.378138 242.21458Q23.565638 241.71458 23.846888 241.48021Q24.128138 241.24583 24.565638 241.15208Q24.831263 241.10521 25.534388 241.10521L26.940638 241.10521Q28.409388 241.10521 28.800013 241.04271Q29.190638 240.96458 29.550013 240.76146L29.550013 241.87083Q29.221888 242.02708 28.784388 242.07396ZM26.425013 242.16771Q26.659388 242.74583 26.831263 243.88646Q26.925013 244.54271 27.050013 244.80833Q27.159388 245.07396 27.378138 245.23021Q27.596888 245.37083 27.878138 245.37083Q28.300013 245.37083 28.581263 245.05833Q28.862513 244.73021 28.862513 244.12083Q28.862513 243.51146 28.596888 243.04271Q28.331263 242.55833 27.862513 242.33958Q27.503138 242.16771 26.815638 242.16771L26.425013 242.16771ZM29.550013 235.10521L28.768763 235.10521Q29.690638 235.69896 29.690638 236.83958Q29.690638 237.58958 29.284388 238.21458Q28.862513 238.83958 28.128138 239.18333Q27.393763 239.52708 26.440638 239.52708Q25.518763 239.52708 24.753138 239.21458Q23.987513 238.90208 23.596888 238.27708Q23.190638 237.65208 23.190638 236.88646Q23.190638 236.32396 23.425013 235.88646Q23.659388 235.44896 24.034388 235.16771L20.956263 235.16771L20.956263 234.12083L29.550013 234.12083L29.550013 235.10521ZM26.440638 238.43333Q27.643763 238.43333 28.237513 237.93333Q28.815638 237.43333 28.815638 236.74583Q28.815638 236.05833 28.253138 235.57396Q27.690638 235.08958 26.534388 235.08958Q25.253138 235.08958 24.659388 235.58958Q24.065638 236.07396 24.065638 236.79271Q24.065638 237.49583 24.643763 237.96458Q25.206263 238.43333 26.440638 238.43333ZM29.550013 226.82396L21.971888 226.82396L21.971888 229.65208L20.956263 229.65208L20.956263 222.83958L21.971888 222.83958L21.971888 225.68333L29.550013 225.68333L29.550013 226.82396ZM29.550013 222.13646L20.956263 222.13646L20.956263 221.08958L24.034388 221.08958Q23.190638 220.35521 23.190638 219.23021Q23.190638 218.52708 23.471888 218.02708Q23.737513 217.51146 24.221888 217.29271Q24.690638 217.07396 25.612513 217.07396L29.550013 217.07396L29.550013 218.12083L25.612513 218.12083Q24.815638 218.12083 24.456263 218.46458Q24.096888 218.80833 24.096888 219.43333Q24.096888 219.90208 24.346888 220.32396Q24.581263 220.73021 25.003138 220.91771Q25.409388 221.08958 26.143763 221.08958L29.550013 221.08958L29.550013 222.13646ZM29.550013 215.15208L23.331263 215.15208L23.331263 214.19896L24.268763 214.19896Q23.612513 213.83958 23.409388 213.54271Q23.190638 213.23021 23.190638 212.85521Q23.190638 212.32396 23.518763 211.77708L24.503138 212.13646Q24.268763 212.52708 24.268763 212.90208Q24.268763 213.26146 24.487513 213.54271Q24.690638 213.80833 25.065638 213.91771Q25.628138 214.10521 26.284388 214.10521L29.550013 214.10521L29.550013 215.15208ZM26.440638 211.52708Q24.706263 211.52708 23.878138 210.57396Q23.190638 209.77708 23.190638 208.62083Q23.190638 207.33958 24.034388 206.52708Q24.862513 205.69896 26.346888 205.69896Q27.550013 205.69896 28.237513 206.05833Q28.925013 206.41771 29.315638 207.12083Q29.690638 207.80833 29.690638 208.62083Q29.690638 209.91771 28.862513 210.73021Q28.018763 211.52708 26.440638 211.52708ZM26.440638 210.44896Q27.628138 210.44896 28.221888 209.93333Q28.815638 209.40208 28.815638 208.62083Q28.815638 207.82396 28.221888 207.30833Q27.628138 206.79271 26.409388 206.79271Q25.253138 206.79271 24.659388 207.32396Q24.065638 207.83958 24.065638 208.62083Q24.065638 209.40208 24.659388 209.93333Q25.237513 210.44896 26.440638 210.44896ZM29.550013 200.05833L28.628138 200.05833Q29.690638 200.79271 29.690638 202.04271Q29.690638 202.58958 29.487513 203.07396Q29.268763 203.54271 28.956263 203.77708Q28.628138 204.01146 28.159388 204.10521Q27.862513 204.16771 27.175013 204.16771L23.331263 204.16771L23.331263 203.10521L26.784388 203.10521Q27.596888 203.10521 27.893763 203.04271Q28.300013 202.94896 28.550013 202.63646Q28.784388 202.30833 28.784388 201.82396Q28.784388 201.35521 28.550013 200.94896Q28.300013 200.52708 27.878138 200.35521Q27.456263 200.16771 26.659388 200.16771L23.331263 200.16771L23.331263 199.12083L29.550013 199.12083L29.550013 200.05833ZM30.065638 197.33958L30.221888 196.30833Q30.690638 196.24583 30.909388 195.94896Q31.206263 195.55833 31.206263 194.88646Q31.206263 194.15208 30.909388 193.76146Q30.612513 193.35521 30.096888 193.21458Q29.768763 193.12083 28.737513 193.13646Q29.550013 193.82396 29.550013 194.85521Q29.550013 196.13646 28.628138 196.83958Q27.690638 197.54271 26.409388 197.54271Q25.518763 197.54271 24.768763 197.23021Q24.003138 196.90208 23.596888 196.29271Q23.190638 195.68333 23.190638 194.85521Q23.190638 193.74583 24.081263 193.02708L23.331263 193.02708L23.331263 192.05833L28.706263 192.05833Q30.159388 192.05833 30.768763 192.35521Q31.378138 192.65208 31.721888 193.29271Q32.08126 193.93333 32.08126 194.87083Q32.08126 195.98021 31.581263 196.66771Q31.081263 197.35521 30.065638 197.33958ZM26.331263 196.46458Q27.550013 196.46458 28.112513 195.98021Q28.675013 195.49583 28.675013 194.76146Q28.675013 194.02708 28.112513 193.54271Q27.550013 193.04271 26.362513 193.04271Q25.221888 193.04271 24.643763 193.55833Q24.065638 194.05833 24.065638 194.77708Q24.065638 195.48021 24.643763 195.98021Q25.206263 196.46458 26.331263 196.46458ZM29.550013 190.13646L20.956263 190.13646L20.956263 189.08958L24.034388 189.08958Q23.190638 188.35521 23.190638 187.23021Q23.190638 186.52708 23.471888 186.02708Q23.737513 185.51146 24.221888 185.29271Q24.690638 185.07396 25.612513 185.07396L29.550013 185.07396L29.550013 186.12083L25.612513 186.12083Q24.815638 186.12083 24.456263 186.46458Q24.096888 186.80833 24.096888 187.43333Q24.096888 187.90208 24.346888 188.32396Q24.581263 188.73021 25.003138 188.91771Q25.409388 189.08958 26.143763 189.08958L29.550013 189.08958L29.550013 190.13646ZM31.940638 183.13646L23.331263 183.13646L23.331263 182.18333L24.128138 182.18333Q23.659388 181.83958 23.425013 181.41771Q23.190638 180.98021 23.190638 180.37083Q23.190638 179.57396 23.596888 178.96458Q24.003138 178.35521 24.753138 178.05833Q25.503138 177.74583 26.393763 177.74583Q27.346888 177.74583 28.112513 178.08958Q28.878138 178.41771 29.284388 179.07396Q29.690638 179.73021 29.690638 180.44896Q29.690638 180.98021 29.471888 181.40208Q29.237513 181.82396 28.909388 182.08958L31.940638 182.08958L31.940638 183.13646ZM26.471888 182.18333Q27.675013 182.18333 28.253138 181.69896Q28.815638 181.21458 28.815638 180.52708Q28.815638 179.82396 28.221888 179.32396Q27.628138 178.82396 26.378138 178.82396Q25.190638 178.82396 24.612513 179.30833Q24.018763 179.79271 24.018763 180.48021Q24.018763 181.15208 24.643763 181.66771Q25.268763 182.18333 26.471888 182.18333ZM29.550013 172.05833L28.628138 172.05833Q29.690638 172.79271 29.690638 174.04271Q29.690638 174.58958 29.487513 175.07396Q29.268763 175.54271 28.956263 175.77708Q28.628138 176.01146 28.159388 176.10521Q27.862513 176.16771 27.175013 176.16771L23.331263 176.16771L23.331263 175.10521L26.784388 175.10521Q27.596888 175.10521 27.893763 175.04271Q28.300013 174.94896 28.550013 174.63646Q28.784388 174.30833 28.784388 173.82396Q28.784388 173.35521 28.550013 172.94896Q28.300013 172.52708 27.878138 172.35521Q27.456263 172.16771 26.659388 172.16771L23.331263 172.16771L23.331263 171.12083L29.550013 171.12083L29.550013 172.05833ZM28.612513 166.83958L29.534388 166.68333Q29.628138 167.13646 29.628138 167.48021Q29.628138 168.05833 29.456263 168.37083Q29.268763 168.68333 28.971888 168.82396Q28.675013 168.94896 27.721888 168.94896L24.143763 168.94896L24.143763 169.71458L23.331263 169.71458L23.331263 168.94896L21.784388 168.94896L21.159388 167.90208L23.331263 167.90208L23.331263 166.83958L24.143763 166.83958L24.143763 167.90208L27.784388 167.90208Q28.237513 167.90208 28.362513 167.85521Q28.487513 167.79271 28.565638 167.66771Q28.643763 167.54271 28.643763 167.30833Q28.643763 167.12083 28.612513 166.83958ZM32.08126 161.12083Q30.971888 161.99583 29.503138 162.60521Q28.018763 163.19896 26.440638 163.19896Q25.050013 163.19896 23.768763 162.76146Q22.284388 162.23021 20.815638 161.12083L20.815638 160.37083Q22.034388 161.07396 22.550013 161.30833Q23.362513 161.66771 24.237513 161.87083Q25.331263 162.12083 26.440638 162.12083Q29.268763 162.12083 32.08126 160.37083L32.08126 161.12083ZM29.550013 159.04271L20.956263 159.04271L20.956263 157.32396L27.034388 155.29271Q27.893763 155.01146 28.315638 154.88646Q27.846888 154.74583 26.940638 154.43333L20.956263 152.37083L20.956263 150.83958L29.550013 150.83958L29.550013 151.93333L22.362513 151.93333L29.550013 154.43333L29.550013 155.46458L22.237513 157.94896L29.550013 157.94896L29.550013 159.04271ZM29.550013 148.16771L29.550013 149.15208L20.956263 149.15208L20.956263 148.08958L24.018763 148.08958Q23.190638 147.41771 23.190638 146.38646Q23.190638 145.80833 23.425013 145.30833Q23.643763 144.79271 24.065638 144.46458Q24.487513 144.12083 25.081263 143.93333Q25.675013 143.74583 26.346888 143.74583Q27.940638 143.74583 28.815638 144.54271Q29.690638 145.33958 29.690638 146.43333Q29.690638 147.54271 28.768763 148.16771L29.550013 148.16771ZM26.393763 148.18333Q27.503138 148.18333 28.003138 147.87083Q28.815638 147.37083 28.815638 146.52708Q28.815638 145.83958 28.221888 145.33958Q27.628138 144.82396 26.425013 144.82396Q25.206263 144.82396 24.628138 145.30833Q24.050013 145.79271 24.050013 146.48021Q24.050013 147.16771 24.659388 147.68333Q25.253138 148.18333 26.393763 148.18333ZM31.940638 142.13646L23.331263 142.13646L23.331263 141.18333L24.128138 141.18333Q23.659388 140.83958 23.425013 140.41771Q23.190638 139.98021 23.190638 139.37083Q23.190638 138.57396 23.596888 137.96458Q24.003138 137.35521 24.753138 137.05833Q25.503138 136.74583 26.393763 136.74583Q27.346888 136.74583 28.112513 137.08958Q28.878138 137.41771 29.284388 138.07396Q29.690638 138.73021 29.690638 139.44896Q29.690638 139.98021 29.471888 140.40208Q29.237513 140.82396 28.909388 141.08958L31.940638 141.08958L31.940638 142.13646ZM26.471888 141.18333Q27.675013 141.18333 28.253138 140.69896Q28.815638 140.21458 28.815638 139.52708Q28.815638 138.82396 28.221888 138.32396Q27.628138 137.82396 26.378138 137.82396Q25.190638 137.82396 24.612513 138.30833Q24.018763 138.79271 24.018763 139.48021Q24.018763 140.15208 24.643763 140.66771Q25.268763 141.18333 26.471888 141.18333ZM27.690638 135.55833L27.534388 134.52708Q28.159388 134.43333 28.487513 134.04271Q28.815638 133.63646 28.815638 132.90208Q28.815638 132.18333 28.534388 131.83958Q28.237513 131.48021 27.831263 131.48021Q27.471888 131.48021 27.268763 131.79271Q27.128138 132.01146 26.909388 132.87083Q26.612513 134.02708 26.409388 134.48021Q26.190638 134.91771 25.815638 135.15208Q25.440638 135.38646 24.971888 135.38646Q24.565638 135.38646 24.206263 135.19896Q23.846888 135.01146 23.612513 134.68333Q23.440638 134.43333 23.315638 134.01146Q23.190638 133.58958 23.190638 133.08958Q23.190638 132.37083 23.409388 131.82396Q23.612513 131.26146 23.971888 130.99583Q24.331263 130.73021 24.925013 130.63646L25.065638 131.66771Q24.596888 131.73021 24.331263 132.07396Q24.050013 132.40208 24.050013 133.02708Q24.050013 133.74583 24.300013 134.05833Q24.534388 134.37083 24.862513 134.37083Q25.065638 134.37083 25.221888 134.24583Q25.393763 134.10521 25.503138 133.83958Q25.565638 133.68333 25.768763 132.90208Q26.081263 131.77708 26.268763 131.33958Q26.456263 130.90208 26.815638 130.65208Q27.175013 130.40208 27.721888 130.40208Q28.253138 130.40208 28.721888 130.71458Q29.175013 131.01146 29.440638 131.58958Q29.690638 132.16771 29.690638 132.90208Q29.690638 134.12083 29.190638 134.76146Q28.675013 135.38646 27.690638 135.55833ZM32.08126 128.44896L32.08126 129.19896Q29.268763 127.44896 26.440638 127.44896Q25.346888 127.44896 24.253138 127.69896Q23.378138 127.902084 22.565638 128.26146Q22.050013 128.49583 20.815638 129.19896L20.815638 128.44896Q22.284388 127.35521 23.768763 126.82396Q25.050013 126.370834 26.440638 126.370834Q28.018763 126.370834 29.503138 126.98021Q30.971888 127.589584 32.08126 128.44896Z" fill-rule="nonzero"/><path fill="#000000" d="M65.05 300.21564Q65.05 298.6844 65.3625 297.7625Q65.675 296.825 66.28438 296.325Q66.90938 295.825 67.84688 295.825Q68.53438 295.825 69.05 296.10626Q69.58125 296.3875 69.925 296.91876Q70.26875 297.4344 70.45625 298.1844Q70.64375 298.9344 70.64375 300.21564Q70.64375 301.73126 70.33125 302.65314Q70.03438 303.575 69.40938 304.09064Q68.8 304.59064 67.84688 304.59064Q66.6125 304.59064 65.89375 303.7Q65.05 302.6375 65.05 300.21564ZM66.12813 300.21564Q66.12813 302.325 66.62813 303.02814Q67.12813 303.73126 67.84688 303.73126Q68.58125 303.73126 69.06563 303.02814Q69.56563 302.325 69.56563 300.21564Q69.56563 298.09064 69.06563 297.40314Q68.58125 296.7 67.83125 296.7Q67.1125 296.7 66.675 297.3094Q66.12813 298.09064 66.12813 300.21564Z" fill-rule="nonzero"/><path fill="#000000" d="M55.01875 250.69167L53.971874 250.69167L53.971874 243.97292Q53.58125 244.33229 52.95625 244.70729Q52.346874 245.06667 51.8625 245.23854L51.8625 244.22292Q52.7375 243.80104 53.39375 243.22292Q54.065624 242.62917 54.346874 242.06667L55.01875 242.06667L55.01875 250.69167ZM58.05 246.45729Q58.05 244.92604 58.3625 244.00417Q58.675 243.06667 59.284374 242.56667Q59.909374 242.06667 60.846874 242.06667Q61.534374 242.06667 62.05 242.34792Q62.58125 242.62917 62.925 243.16042Q63.26875 243.67604 63.45625 244.42604Q63.64375 245.17604 63.64375 246.45729Q63.64375 247.97292 63.33125 248.89479Q63.034374 249.81667 62.409374 250.33229Q61.8 250.83229 60.846874 250.83229Q59.6125 250.83229 58.89375 249.94167Q58.05 248.87917 58.05 246.45729ZM59.128124 246.45729Q59.128124 248.56667 59.628124 249.26979Q60.128124 249.97292 60.846874 249.97292Q61.58125 249.97292 62.065624 249.26979Q62.565624 248.56667 62.565624 246.45729Q62.565624 244.33229 62.065624 243.64479Q61.58125 242.94167 60.83125 242.94167Q60.1125 242.94167 59.675 243.55104Q59.128124 244.33229 59.128124 246.45729ZM65.05 246.45729Q65.05 244.92604 65.3625 244.00417Q65.675 243.06667 66.28438 242.56667Q66.90938 242.06667 67.84688 242.06667Q68.53438 242.06667 69.05 242.34792Q69.58125 242.62917 69.925 243.16042Q70.26875 243.67604 70.45625 244.42604Q70.64375 245.17604 70.64375 246.45729Q70.64375 247.97292 70.33125 248.89479Q70.03438 249.81667 69.40938 250.33229Q68.8 250.83229 67.84688 250.83229Q66.6125 250.83229 65.89375 249.94167Q65.05 248.87917 65.05 246.45729ZM66.12813 246.45729Q66.12813 248.56667 66.62813 249.26979Q67.12813 249.97292 67.84688 249.97292Q68.58125 249.97292 69.06563 249.26979Q69.56563 248.56667 69.56563 246.45729Q69.56563 244.33229 69.06563 243.64479Q68.58125 242.94167 67.83125 242.94167Q67.1125 242.94167 66.675 243.55104Q66.12813 244.33229 66.12813 246.45729Z" fill-rule="nonzero"/><path fill="#000000" d="M56.596874 195.91771L56.596874 196.93333L50.909374 196.93333Q50.909374 196.55833 51.034374 196.19896Q51.253124 195.62083 51.721874 195.05833Q52.20625 194.49583 53.1125 193.76146Q54.51875 192.60521 55.003124 191.93333Q55.503124 191.26146 55.503124 190.66771Q55.503124 190.04271 55.05 189.62083Q54.596874 189.18333 53.878124 189.18333Q53.1125 189.18333 52.659374 189.63646Q52.20625 190.08958 52.190624 190.90208L51.1125 190.79271Q51.221874 189.57396 51.940624 188.94896Q52.675 188.30833 53.909374 188.30833Q55.14375 188.30833 55.8625 188.99583Q56.58125 189.68333 56.58125 190.69896Q56.58125 191.21458 56.3625 191.71458Q56.159374 192.19896 55.659374 192.76146Q55.175 193.30833 54.05 194.26146Q53.096874 195.05833 52.815624 195.35521Q52.55 195.63646 52.378124 195.91771L56.596874 195.91771ZM58.05 192.69896Q58.05 191.16771 58.3625 190.24583Q58.675 189.30833 59.284374 188.80833Q59.909374 188.30833 60.846874 188.30833Q61.534374 188.30833 62.05 188.58958Q62.58125 188.87083 62.925 189.40208Q63.26875 189.91771 63.45625 190.66771Q63.64375 191.41771 63.64375 192.69896Q63.64375 194.21458 63.33125 195.13646Q63.034374 196.05833 62.409374 196.57396Q61.8 197.07396 60.846874 197.07396Q59.6125 197.07396 58.89375 196.18333Q58.05 195.12083 58.05 192.69896ZM59.128124 192.69896Q59.128124 194.80833 59.628124 195.51146Q60.128124 196.21458 60.846874 196.21458Q61.58125 196.21458 62.065624 195.51146Q62.565624 194.80833 62.565624 192.69896Q62.565624 190.57396 62.065624 189.88646Q61.58125 189.18333 60.83125 189.18333Q60.1125 189.18333 59.675 189.79271Q59.128124 190.57396 59.128124 192.69896ZM65.05 192.69896Q65.05 191.16771 65.3625 190.24583Q65.675 189.30833 66.28438 188.80833Q66.90938 188.30833 67.84688 188.30833Q68.53438 188.30833 69.05 188.58958Q69.58125 188.87083 69.925 189.40208Q70.26875 189.91771 70.45625 190.66771Q70.64375 191.41771 70.64375 192.69896Q70.64375 194.21458 70.33125 195.13646Q70.03438 196.05833 69.40938 196.57396Q68.8 197.07396 67.84688 197.07396Q66.6125 197.07396 65.89375 196.18333Q65.05 195.12083 65.05 192.69896ZM66.12813 192.69896Q66.12813 194.80833 66.62813 195.51146Q67.12813 196.21458 67.84688 196.21458Q68.58125 196.21458 69.06563 195.51146Q69.56563 194.80833 69.56563 192.69896Q69.56563 190.57396 69.06563 189.88646Q68.58125 189.18333 67.83125 189.18333Q67.1125 189.18333 66.675 189.79271Q66.12813 190.57396 66.12813 192.69896Z" fill-rule="nonzero"/><path fill="#000000" d="M51.05 140.90938L52.1125 140.76875Q52.284374 141.65938 52.721874 142.06563Q53.159374 142.45625 53.784374 142.45625Q54.534374 142.45625 55.05 141.94063Q55.565624 141.425 55.565624 140.65938Q55.565624 139.94063 55.08125 139.47188Q54.6125 138.9875 53.878124 138.9875Q53.58125 138.9875 53.128124 139.1125L53.253124 138.175Q53.3625 138.19063 53.425 138.19063Q54.096874 138.19063 54.628124 137.84688Q55.175 137.4875 55.175 136.75313Q55.175 136.175 54.784374 135.8Q54.39375 135.40938 53.76875 135.40938Q53.159374 135.40938 52.7375 135.8Q52.33125 136.19063 52.221874 136.95625L51.159374 136.76875Q51.346874 135.72188 52.034374 135.14375Q52.721874 134.55 53.7375 134.55Q54.440624 134.55 55.034374 134.8625Q55.628124 135.15938 55.940624 135.675Q56.253124 136.19063 56.253124 136.78438Q56.253124 137.33125 55.95625 137.8Q55.659374 138.25313 55.08125 138.51875Q55.83125 138.69063 56.253124 139.25313Q56.675 139.8 56.675 140.64375Q56.675 141.76875 55.846874 142.55Q55.034374 143.33125 53.784374 143.33125Q52.659374 143.33125 51.909374 142.65938Q51.159374 141.97188 51.05 140.90938ZM58.05 138.94063Q58.05 137.40938 58.3625 136.4875Q58.675 135.55 59.284374 135.05Q59.909374 134.55 60.846874 134.55Q61.534374 134.55 62.05 134.83125Q62.58125 135.1125 62.925 135.64375Q63.26875 136.15938 63.45625 136.90938Q63.64375 137.65938 63.64375 138.94063Q63.64375 140.45625 63.33125 141.37813Q63.034374 142.3 62.409374 142.81563Q61.8 143.31563 60.846874 143.31563Q59.6125 143.31563 58.89375 142.425Q58.05 141.3625 58.05 138.94063ZM59.128124 138.94063Q59.128124 141.05 59.628124 141.75313Q60.128124 142.45625 60.846874 142.45625Q61.58125 142.45625 62.065624 141.75313Q62.565624 141.05 62.565624 138.94063Q62.565624 136.81563 62.065624 136.12813Q61.58125 135.425 60.83125 135.425Q60.1125 135.425 59.675 136.03438Q59.128124 136.81563 59.128124 138.94063ZM65.05 138.94063Q65.05 137.40938 65.3625 136.4875Q65.675 135.55 66.28438 135.05Q66.90938 134.55 67.84688 134.55Q68.53438 134.55 69.05 134.83125Q69.58125 135.1125 69.925 135.64375Q70.26875 136.15938 70.45625 136.90938Q70.64375 137.65938 70.64375 138.94063Q70.64375 140.45625 70.33125 141.37813Q70.03438 142.3 69.40938 142.81563Q68.8 143.31563 67.84688 143.31563Q66.6125 143.31563 65.89375 142.425Q65.05 141.3625 65.05 138.94063ZM66.12813 138.94063Q66.12813 141.05 66.62813 141.75313Q67.12813 142.45625 67.84688 142.45625Q68.58125 142.45625 69.06563 141.75313Q69.56563 141.05 69.56563 138.94063Q69.56563 136.81563 69.06563 136.12813Q68.58125 135.425 67.83125 135.425Q67.1125 135.425 66.675 136.03438Q66.12813 136.81563 66.12813 138.94063Z" fill-rule="nonzero"/><path fill="#000000" d="M54.425 89.416664L54.425 87.354164L50.70625 87.354164L50.70625 86.385414L54.628124 80.822914L55.4875 80.822914L55.4875 86.385414L56.64375 86.385414L56.64375 87.354164L55.4875 87.354164L55.4875 89.416664L54.425 89.416664ZM54.425 86.385414L54.425 82.52604L51.7375 86.385414L54.425 86.385414ZM58.05 85.18229Q58.05 83.65104 58.3625 82.729164Q58.675 81.791664 59.284374 81.291664Q59.909374 80.791664 60.846874 80.791664Q61.534374 80.791664 62.05 81.072914Q62.58125 81.354164 62.925 81.885414Q63.26875 82.40104 63.45625 83.15104Q63.64375 83.90104 63.64375 85.18229Q63.64375 86.697914 63.33125 87.61979Q63.034374 88.541664 62.409374 89.05729Q61.8 89.55729 60.846874 89.55729Q59.6125 89.55729 58.89375 88.666664Q58.05 87.604164 58.05 85.18229ZM59.128124 85.18229Q59.128124 87.291664 59.628124 87.99479Q60.128124 88.697914 60.846874 88.697914Q61.58125 88.697914 62.065624 87.99479Q62.565624 87.291664 62.565624 85.18229Q62.565624 83.05729 62.065624 82.36979Q61.58125 81.666664 60.83125 81.666664Q60.1125 81.666664 59.675 82.27604Q59.128124 83.05729 59.128124 85.18229ZM65.05 85.18229Q65.05 83.65104 65.3625 82.729164Q65.675 81.791664 66.28438 81.291664Q66.90938 80.791664 67.84688 80.791664Q68.53438 80.791664 69.05 81.072914Q69.58125 81.354164 69.925 81.885414Q70.26875 82.40104 70.45625 83.15104Q70.64375 83.90104 70.64375 85.18229Q70.64375 86.697914 70.33125 87.61979Q70.03438 88.541664 69.40938 89.05729Q68.8 89.55729 67.84688 89.55729Q66.6125 89.55729 65.89375 88.666664Q65.05 87.604164 65.05 85.18229ZM66.12813 85.18229Q66.12813 87.291664 66.62813 87.99479Q67.12813 88.697914 67.84688 88.697914Q68.58125 88.697914 69.06563 87.99479Q69.56563 87.291664 69.56563 85.18229Q69.56563 83.05729 69.06563 82.36979Q68.58125 81.666664 67.83125 81.666664Q67.1125 81.666664 66.675 82.27604Q66.12813 83.05729 66.12813 85.18229Z" fill-rule="nonzero"/><path fill="#000000" d="M75.01875 317.45L73.97188 317.45L73.97188 310.73126Q73.58125 311.09064 72.95625 311.46564Q72.34688 311.825 71.8625 311.9969L71.8625 310.98126Q72.7375 310.5594 73.39375 309.98126Q74.06563 309.3875 74.34688 308.825L75.01875 308.825L75.01875 317.45ZM78.05 315.2L79.15938 315.10626Q79.28438 315.91876 79.72188 316.325Q80.175 316.73126 80.81563 316.73126Q81.56563 316.73126 82.09688 316.15314Q82.62813 315.575 82.62813 314.6375Q82.62813 313.73126 82.1125 313.21564Q81.6125 312.6844 80.78438 312.6844Q80.28438 312.6844 79.8625 312.91876Q79.45625 313.15314 79.22188 313.5125L78.2375 313.3875L79.06563 308.98126L83.34688 308.98126L83.34688 309.98126L79.90938 309.98126L79.45625 312.29376Q80.22188 311.7469 81.06563 311.7469Q82.19063 311.7469 82.95625 312.52814Q83.7375 313.3094 83.7375 314.54376Q83.7375 315.7 83.06563 316.5594Q82.2375 317.59064 80.81563 317.59064Q79.64375 317.59064 78.89375 316.9344Q78.15938 316.27814 78.05 315.2Z" fill-rule="nonzero"/><path fill="#000000" d="M159.00209 317.45L157.95522 317.45L157.95522 310.73126Q157.56459 311.09064 156.93959 311.46564Q156.33022 311.825 155.84584 311.9969L155.84584 310.98126Q156.72084 310.5594 157.37709 309.98126Q158.04897 309.3875 158.33022 308.825L159.00209 308.825L159.00209 317.45ZM167.50209 310.96564L166.45522 311.04376Q166.31459 310.41876 166.06459 310.1375Q165.62709 309.6844 165.00209 309.6844Q164.50209 309.6844 164.11147 309.96564Q163.62709 310.34064 163.33022 311.04376Q163.04897 311.73126 163.03334 313.0125Q163.40834 312.4344 163.95522 312.15314Q164.51772 311.8719 165.12709 311.8719Q166.17397 311.8719 166.90834 312.65314Q167.65834 313.4344 167.65834 314.65314Q167.65834 315.46564 167.29897 316.16876Q166.95522 316.85626 166.34584 317.23126Q165.73647 317.59064 164.97084 317.59064Q163.64272 317.59064 162.81459 316.6219Q161.98647 315.65314 161.98647 313.4344Q161.98647 310.9344 162.90834 309.8094Q163.70522 308.825 165.06459 308.825Q166.08022 308.825 166.72084 309.40314Q167.37709 309.96564 167.50209 310.96564ZM163.20522 314.66876Q163.20522 315.21564 163.42397 315.71564Q163.65834 316.2 164.06459 316.46564Q164.48647 316.73126 164.95522 316.73126Q165.61147 316.73126 166.09584 316.2Q166.58022 315.65314 166.58022 314.73126Q166.58022 313.84064 166.09584 313.325Q165.62709 312.8094 164.90834 312.8094Q164.18959 312.8094 163.68959 313.325Q163.20522 313.84064 163.20522 314.66876Z" fill-rule="nonzero"/><path fill="#000000" d="M242.98541 317.45L241.93854 317.45L241.93854 310.73126Q241.54791 311.09064 240.92291 311.46564Q240.31354 311.825 239.82916 311.9969L239.82916 310.98126Q240.70416 310.5594 241.36041 309.98126Q242.03229 309.3875 242.31354 308.825L242.98541 308.825L242.98541 317.45ZM246.07916 309.98126L246.07916 308.96564L251.64166 308.96564L251.64166 309.79376Q250.82916 310.66876 250.01666 312.1219Q249.21979 313.5594 248.78229 315.09064Q248.45416 316.16876 248.37604 317.45L247.28229 317.45Q247.29791 316.4344 247.67291 314.9969Q248.06354 313.5594 248.76666 312.23126Q249.48541 310.90314 250.29791 309.98126L246.07916 309.98126Z" fill-rule="nonzero"/><path fill="#000000" d="M326.96875 317.45L325.92188 317.45L325.92188 310.73126Q325.53125 311.09064 324.90625 311.46564Q324.29688 311.825 323.8125 311.9969L323.8125 310.98126Q324.6875 310.5594 325.34375 309.98126Q326.01562 309.3875 326.29688 308.825L326.96875 308.825L326.96875 317.45ZM331.625 312.79376Q330.96875 312.54376 330.64062 312.10626Q330.32812 311.65314 330.32812 311.04376Q330.32812 310.10626 331.0 309.46564Q331.6875 308.825 332.79688 308.825Q333.92188 308.825 334.60938 309.48126Q335.29688 310.1375 335.29688 311.075Q335.29688 311.66876 334.98438 312.10626Q334.67188 312.54376 334.03125 312.79376Q334.82812 313.04376 335.23438 313.6219Q335.64062 314.2 335.64062 314.9969Q335.64062 316.09064 334.85938 316.84064Q334.09375 317.59064 332.8125 317.59064Q331.54688 317.59064 330.76562 316.84064Q329.98438 316.09064 329.98438 314.96564Q329.98438 314.1219 330.40625 313.5594Q330.84375 312.9969 331.625 312.79376ZM331.40625 310.9969Q331.40625 311.60626 331.79688 311.9969Q332.20312 312.3875 332.82812 312.3875Q333.4375 312.3875 333.82812 312.0125Q334.21875 311.6219 334.21875 311.0594Q334.21875 310.48126 333.8125 310.09064Q333.40625 309.6844 332.8125 309.6844Q332.20312 309.6844 331.79688 310.075Q331.40625 310.46564 331.40625 310.9969ZM331.07812 314.96564Q331.07812 315.41876 331.28125 315.84064Q331.5 316.2625 331.92188 316.4969Q332.34375 316.73126 332.82812 316.73126Q333.57812 316.73126 334.0625 316.2469Q334.5625 315.7625 334.5625 315.0125Q334.5625 314.2469 334.0625 313.7469Q333.5625 313.2469 332.79688 313.2469Q332.04688 313.2469 331.5625 313.7469Q331.07812 314.23126 331.07812 314.96564Z" fill-rule="nonzero"/><path fill="#000000" d="M410.9521 317.45L409.9052 317.45L409.9052 310.73126Q409.5146 311.09064 408.8896 311.46564Q408.2802 311.825 407.79584 311.9969L407.79584 310.98126Q408.67084 310.5594 409.3271 309.98126Q409.99896 309.3875 410.2802 308.825L410.9521 308.825L410.9521 317.45ZM414.1396 315.46564L415.1552 315.3719Q415.2802 316.09064 415.6396 316.41876Q416.0146 316.73126 416.5771 316.73126Q417.06146 316.73126 417.42084 316.5125Q417.79584 316.27814 418.0302 315.91876Q418.2646 315.54376 418.42084 314.91876Q418.5771 314.27814 418.5771 313.6219Q418.5771 313.54376 418.5771 313.40314Q418.2646 313.90314 417.7177 314.23126Q417.17084 314.54376 416.5302 314.54376Q415.4521 314.54376 414.7177 313.77814Q413.98334 312.9969 413.98334 311.73126Q413.98334 310.41876 414.74896 309.6219Q415.5302 308.825 416.68646 308.825Q417.5146 308.825 418.2021 309.27814Q418.9052 309.73126 419.2646 310.575Q419.62396 311.40314 419.62396 312.98126Q419.62396 314.6219 419.2646 315.60626Q418.92084 316.575 418.2021 317.09064Q417.49896 317.59064 416.56146 317.59064Q415.54584 317.59064 414.9052 317.04376Q414.2646 316.48126 414.1396 315.46564ZM418.4521 311.66876Q418.4521 310.7625 417.9677 310.23126Q417.49896 309.7 416.81146 309.7Q416.10834 309.7 415.5771 310.27814Q415.06146 310.84064 415.06146 311.7625Q415.06146 312.575 415.56146 313.09064Q416.06146 313.60626 416.7802 313.60626Q417.5146 313.60626 417.98334 313.09064Q418.4521 312.575 418.4521 311.66876Z" fill-rule="nonzero"/><path fill="#000000" d="M496.51355 316.4344L496.51355 317.45L490.82605 317.45Q490.82605 317.075 490.95105 316.71564Q491.1698 316.1375 491.63855 315.575Q492.12292 315.0125 493.02917 314.27814Q494.43542 313.1219 494.9198 312.45Q495.4198 311.77814 495.4198 311.1844Q495.4198 310.5594 494.96667 310.1375Q494.51355 309.7 493.7948 309.7Q493.02917 309.7 492.57605 310.15314Q492.12292 310.60626 492.1073 311.41876L491.02917 311.3094Q491.13855 310.09064 491.8573 309.46564Q492.59167 308.825 493.82605 308.825Q495.06042 308.825 495.77917 309.5125Q496.49792 310.2 496.49792 311.21564Q496.49792 311.73126 496.27917 312.23126Q496.07605 312.71564 495.57605 313.27814Q495.09167 313.825 493.96667 314.77814Q493.01355 315.575 492.7323 315.8719Q492.46667 316.15314 492.2948 316.4344L496.51355 316.4344ZM497.96667 313.21564Q497.96667 311.6844 498.27917 310.7625Q498.59167 309.825 499.20105 309.325Q499.82605 308.825 500.76355 308.825Q501.45105 308.825 501.96667 309.10626Q502.49792 309.3875 502.84167 309.91876Q503.18542 310.4344 503.37292 311.1844Q503.56042 311.9344 503.56042 313.21564Q503.56042 314.73126 503.24792 315.65314Q502.95105 316.575 502.32605 317.09064Q501.71667 317.59064 500.76355 317.59064Q499.52917 317.59064 498.81042 316.7Q497.96667 315.6375 497.96667 313.21564ZM499.0448 313.21564Q499.0448 315.325 499.5448 316.02814Q500.0448 316.73126 500.76355 316.73126Q501.49792 316.73126 501.9823 316.02814Q502.4823 315.325 502.4823 313.21564Q502.4823 311.09064 501.9823 310.40314Q501.49792 309.7 500.74792 309.7Q500.02917 309.7 499.59167 310.3094Q499.0448 311.09064 499.0448 313.21564Z" fill-rule="nonzero"/><path fill="#000000" d="M580.4969 316.4344L580.4969 317.45L574.8094 317.45Q574.8094 317.075 574.9344 316.71564Q575.15314 316.1375 575.6219 315.575Q576.10626 315.0125 577.0125 314.27814Q578.41876 313.1219 578.90314 312.45Q579.40314 311.77814 579.40314 311.1844Q579.40314 310.5594 578.95 310.1375Q578.4969 309.7 577.77814 309.7Q577.0125 309.7 576.5594 310.15314Q576.10626 310.60626 576.09064 311.41876L575.0125 311.3094Q575.1219 310.09064 575.84064 309.46564Q576.575 308.825 577.8094 308.825Q579.04376 308.825 579.7625 309.5125Q580.48126 310.2 580.48126 311.21564Q580.48126 311.73126 580.2625 312.23126Q580.0594 312.71564 579.5594 313.27814Q579.075 313.825 577.95 314.77814Q576.9969 315.575 576.71564 315.8719Q576.45 316.15314 576.27814 316.4344L580.4969 316.4344ZM585.91876 317.45L584.8719 317.45L584.8719 310.73126Q584.48126 311.09064 583.85626 311.46564Q583.2469 311.825 582.7625 311.9969L582.7625 310.98126Q583.6375 310.5594 584.29376 309.98126Q584.96564 309.3875 585.2469 308.825L585.91876 308.825L585.91876 317.45Z" fill-rule="nonzero"/><path fill="#999999" d="M19.70625 63.05L19.70625 53.034374L26.45625 53.034374L26.45625 54.20625L21.01875 54.20625L21.01875 57.315624L25.721874 57.315624L25.721874 58.503124L21.01875 58.503124L21.01875 63.05L19.70625 63.05ZM28.45625 63.05L28.45625 55.784374L29.565624 55.784374L29.565624 56.89375Q29.9875 56.1125 30.346874 55.878124Q30.70625 55.628124 31.14375 55.628124Q31.76875 55.628124 32.409374 56.01875L31.9875 57.159374Q31.534374 56.89375 31.08125 56.89375Q30.675 56.89375 30.346874 57.14375Q30.034374 57.378124 29.89375 57.815624Q29.690624 58.471874 29.690624 59.253124L29.690624 63.05L28.45625 63.05ZM33.01875 59.425Q33.01875 57.409374 34.14375 56.425Q35.065624 55.628124 36.425 55.628124Q37.909374 55.628124 38.8625 56.6125Q39.815624 57.58125 39.815624 59.315624Q39.815624 60.721874 39.39375 61.534374Q38.971874 62.33125 38.159374 62.784374Q37.3625 63.221874 36.425 63.221874Q34.89375 63.221874 33.95625 62.2375Q33.01875 61.253124 33.01875 59.425ZM34.284374 59.425Q34.284374 60.815624 34.89375 61.51875Q35.503124 62.20625 36.425 62.20625Q37.33125 62.20625 37.940624 61.503124Q38.55 60.8 38.55 59.378124Q38.55 58.034374 37.940624 57.346874Q37.33125 56.64375 36.425 56.64375Q35.503124 56.64375 34.89375 57.33125Q34.284374 58.01875 34.284374 59.425ZM41.471874 63.05L41.471874 55.784374L42.58125 55.784374L42.58125 56.815624Q42.909374 56.26875 43.471874 55.95625Q44.05 55.628124 44.76875 55.628124Q45.58125 55.628124 46.096874 55.971874Q46.6125 56.3 46.83125 56.89375Q47.690624 55.628124 49.065624 55.628124Q50.14375 55.628124 50.721874 56.221874Q51.315624 56.815624 51.315624 58.065624L51.315624 63.05L50.08125 63.05L50.08125 58.471874Q50.08125 57.7375 49.95625 57.409374Q49.846874 57.08125 49.534374 56.89375Q49.221874 56.690624 48.8 56.690624Q48.034374 56.690624 47.51875 57.20625Q47.01875 57.70625 47.01875 58.83125L47.01875 63.05L45.784374 63.05L45.784374 58.33125Q45.784374 57.51875 45.4875 57.1125Q45.190624 56.690624 44.503124 56.690624Q43.9875 56.690624 43.534374 56.971874Q43.096874 57.2375 42.89375 57.76875Q42.70625 58.284374 42.70625 59.284374L42.70625 63.05L41.471874 63.05ZM62.315624 59.1125L62.315624 57.940624L66.56563 57.940624L66.56563 61.659374Q65.58125 62.440624 64.53438 62.83125Q63.503124 63.221874 62.409374 63.221874Q60.940624 63.221874 59.721874 62.596874Q58.51875 61.95625 57.909374 60.76875Q57.3 59.565624 57.3 58.08125Q57.3 56.628124 57.909374 55.3625Q58.51875 54.08125 59.659374 53.471874Q60.815624 52.8625 62.315624 52.8625Q63.39375 52.8625 64.26875 53.221874Q65.15938 53.565624 65.65938 54.190624Q66.15938 54.815624 66.40938 55.83125L65.22188 56.159374Q64.9875 55.39375 64.64375 54.95625Q64.31563 54.51875 63.690624 54.253124Q63.08125 53.9875 62.315624 53.9875Q61.409374 53.9875 60.7375 54.26875Q60.08125 54.55 59.675 55.003124Q59.26875 55.440624 59.05 55.9875Q58.659374 56.925 58.659374 58.003124Q58.659374 59.346874 59.1125 60.253124Q59.58125 61.14375 60.45625 61.58125Q61.346874 62.01875 62.346874 62.01875Q63.20625 62.01875 64.01875 61.690624Q64.84688 61.3625 65.26875 60.9875L65.26875 59.1125L62.315624 59.1125ZM68.4875 54.440624L68.4875 53.034374L69.70625 53.034374L69.70625 54.440624L68.4875 54.440624ZM68.4875 63.05L68.4875 55.784374L69.70625 55.784374L69.70625 63.05L68.4875 63.05ZM74.15938 61.95625L74.33125 63.034374Q73.81563 63.14375 73.40938 63.14375Q72.7375 63.14375 72.3625 62.940624Q72.00313 62.721874 71.84688 62.378124Q71.70625 62.034374 71.70625 60.925L71.70625 56.753124L70.8 56.753124L70.8 55.784374L71.70625 55.784374L71.70625 53.9875L72.925 53.253124L72.925 55.784374L74.15938 55.784374L74.15938 56.753124L72.925 56.753124L72.925 60.9875Q72.925 61.51875 72.9875 61.675Q73.05 61.815624 73.19063 61.909374Q73.34688 62.003124 73.6125 62.003124Q73.83125 62.003124 74.15938 61.95625ZM75.675 63.05L75.675 53.034374L77.00313 53.034374L77.00313 57.14375L82.20625 57.14375L82.20625 53.034374L83.53438 53.034374L83.53438 63.05L82.20625 63.05L82.20625 58.33125L77.00313 58.33125L77.00313 63.05L75.675 63.05ZM90.2375 63.05L90.2375 61.9875Q89.37813 63.221874 87.925 63.221874Q87.28438 63.221874 86.72188 62.971874Q86.175 62.721874 85.89375 62.346874Q85.62813 61.971874 85.51875 61.440624Q85.44063 61.08125 85.44063 60.284374L85.44063 55.784374L86.675 55.784374L86.675 59.815624Q86.675 60.784374 86.75313 61.1125Q86.8625 61.596874 87.2375 61.878124Q87.6125 62.159374 88.175 62.159374Q88.72188 62.159374 89.20625 61.878124Q89.69063 61.58125 89.89375 61.096874Q90.09688 60.6125 90.09688 59.675L90.09688 55.784374L91.33125 55.784374L91.33125 63.05L90.2375 63.05ZM94.6125 63.05L93.47188 63.05L93.47188 53.034374L94.69063 53.034374L94.69063 56.596874Q95.47188 55.628124 96.69063 55.628124Q97.3625 55.628124 97.95625 55.89375Q98.55 56.159374 98.94063 56.659374Q99.33125 57.14375 99.55 57.83125Q99.76875 58.51875 99.76875 59.315624Q99.76875 61.175 98.83125 62.20625Q97.90938 63.221874 96.62813 63.221874Q95.34688 63.221874 94.6125 62.14375L94.6125 63.05ZM94.59688 59.3625Q94.59688 60.675 94.95625 61.253124Q95.53438 62.20625 96.51875 62.20625Q97.33125 62.20625 97.90938 61.503124Q98.50313 60.8 98.50313 59.409374Q98.50313 57.9875 97.94063 57.315624Q97.37813 56.64375 96.58125 56.64375Q95.76875 56.64375 95.175 57.346874Q94.59688 58.034374 94.59688 59.3625ZM104.53438 63.05L108.37813 53.034374L109.8 53.034374L113.90938 63.05L112.39375 63.05L111.22188 60.01875L107.03438 60.01875L105.94063 63.05L104.53438 63.05ZM107.425 58.940624L110.81563 58.940624L109.76875 56.159374Q109.3 54.89375 109.06563 54.08125Q108.87813 55.05 108.51875 55.9875L107.425 58.940624ZM119.20625 60.39375L120.425 60.55Q120.22188 61.8 119.39375 62.51875Q118.58125 63.221874 117.39375 63.221874Q115.90938 63.221874 115.00313 62.253124Q114.09688 61.26875 114.09688 59.440624Q114.09688 58.26875 114.4875 57.39375Q114.87813 56.503124 115.675 56.065624Q116.47188 55.628124 117.40938 55.628124Q118.58125 55.628124 119.33125 56.221874Q120.09688 56.815624 120.3 57.925L119.1125 58.1125Q118.94063 57.378124 118.50313 57.01875Q118.06563 56.64375 117.45625 56.64375Q116.51875 56.64375 115.94063 57.315624Q115.3625 57.971874 115.3625 59.409374Q115.3625 60.878124 115.925 61.55Q116.4875 62.20625 117.37813 62.20625Q118.1125 62.20625 118.59688 61.76875Q119.08125 61.315624 119.20625 60.39375ZM124.15938 61.95625L124.33125 63.034374Q123.81563 63.14375 123.40938 63.14375Q122.7375 63.14375 122.3625 62.940624Q122.00313 62.721874 121.84688 62.378124Q121.70625 62.034374 121.70625 60.925L121.70625 56.753124L120.8 56.753124L120.8 55.784374L121.70625 55.784374L121.70625 53.9875L122.925 53.253124L122.925 55.784374L124.15938 55.784374L124.15938 56.753124L122.925 56.753124L122.925 60.9875Q122.925 61.51875 122.9875 61.675Q123.05 61.815624 123.19063 61.909374Q123.34688 62.003124 123.6125 62.003124Q123.83125 62.003124 124.15938 61.95625ZM125.4875 54.440624L125.4875 53.034374L126.70625 53.034374L126.70625 54.440624L125.4875 54.440624ZM125.4875 63.05L125.4875 55.784374L126.70625 55.784374L126.70625 63.05L125.4875 63.05ZM128.01875 59.425Q128.01875 57.409374 129.14375 56.425Q130.06563 55.628124 131.425 55.628124Q132.90938 55.628124 133.8625 56.6125Q134.81563 57.58125 134.81563 59.315624Q134.81563 60.721874 134.39375 61.534374Q133.97188 62.33125 133.15938 62.784374Q132.3625 63.221874 131.425 63.221874Q129.89375 63.221874 128.95625 62.2375Q128.01875 61.253124 128.01875 59.425ZM129.28438 59.425Q129.28438 60.815624 129.89375 61.51875Q130.50313 62.20625 131.425 62.20625Q132.33125 62.20625 132.94063 61.503124Q133.55 60.8 133.55 59.378124Q133.55 58.034374 132.94063 57.346874Q132.33125 56.64375 131.425 56.64375Q130.50313 56.64375 129.89375 57.33125Q129.28438 58.01875 129.28438 59.425ZM136.47188 63.05L136.47188 55.784374L137.58125 55.784374L137.58125 56.815624Q138.37813 55.628124 139.89375 55.628124Q140.55 55.628124 141.09688 55.8625Q141.64375 56.096874 141.90938 56.4875Q142.19063 56.8625 142.3 57.39375Q142.37813 57.7375 142.37813 58.58125L142.37813 63.05L141.14375 63.05L141.14375 58.628124Q141.14375 57.878124 141.00313 57.51875Q140.8625 57.14375 140.4875 56.925Q140.12813 56.690624 139.62813 56.690624Q138.84688 56.690624 138.26875 57.190624Q137.70625 57.690624 137.70625 59.08125L137.70625 63.05L136.47188 63.05ZM143.9875 60.878124L145.19063 60.690624Q145.3 61.425 145.76875 61.815624Q146.2375 62.20625 147.08125 62.20625Q147.925 62.20625 148.33125 61.8625Q148.75313 61.51875 148.75313 61.05Q148.75313 60.628124 148.37813 60.39375Q148.12813 60.221874 147.12813 59.971874Q145.76875 59.628124 145.2375 59.378124Q144.72188 59.128124 144.45625 58.690624Q144.19063 58.253124 144.19063 57.721874Q144.19063 57.2375 144.40938 56.83125Q144.62813 56.409374 145.01875 56.128124Q145.3 55.925 145.78438 55.784374Q146.28438 55.628124 146.8625 55.628124Q147.70625 55.628124 148.34688 55.878124Q149.00313 56.1125 149.31563 56.534374Q149.62813 56.95625 149.7375 57.659374L148.53438 57.83125Q148.45625 57.26875 148.05 56.95625Q147.65938 56.64375 146.94063 56.64375Q146.09688 56.64375 145.7375 56.925Q145.37813 57.190624 145.37813 57.58125Q145.37813 57.815624 145.51875 58.003124Q145.675 58.20625 146.00313 58.33125Q146.175 58.39375 147.08125 58.64375Q148.39375 59.003124 148.90938 59.221874Q149.425 59.440624 149.70625 59.8625Q150.00313 60.284374 150.00313 60.909374Q150.00313 61.534374 149.64375 62.08125Q149.3 62.6125 148.6125 62.925Q147.94063 63.221874 147.08125 63.221874Q145.675 63.221874 144.925 62.628124Q144.19063 62.034374 143.9875 60.878124Z" fill-rule="nonzero"/><path fill="#434343" d="M22.034374 36.55L18.6125 22.2375L21.58125 22.2375L23.7375 32.065624L26.346874 22.2375L29.784374 22.2375L32.3 32.2375L34.503124 22.2375L37.409374 22.2375L33.925 36.55L30.8625 36.55L28.01875 25.846874L25.175 36.55L22.034374 36.55ZM44.9875 33.253124L47.721874 33.70625Q47.20625 35.20625 46.065624 36.003124Q44.925 36.784374 43.221874 36.784374Q40.503124 36.784374 39.20625 35.01875Q38.190624 33.596874 38.190624 31.440624Q38.190624 28.8625 39.534374 27.409374Q40.878124 25.940624 42.940624 25.940624Q45.253124 25.940624 46.58125 27.471874Q47.925 29.003124 47.878124 32.159374L41.003124 32.159374Q41.034374 33.378124 41.659374 34.065624Q42.3 34.7375 43.2375 34.7375Q43.89375 34.7375 44.33125 34.39375Q44.76875 34.034374 44.9875 33.253124ZM45.14375 30.471874Q45.1125 29.284374 44.51875 28.675Q43.940624 28.05 43.1125 28.05Q42.20625 28.05 41.628124 28.690624Q41.034374 29.346874 41.05 30.471874L45.14375 30.471874ZM55.9875 33.253124L58.721874 33.70625Q58.20625 35.20625 57.065624 36.003124Q55.925 36.784374 54.221874 36.784374Q51.503124 36.784374 50.20625 35.01875Q49.190624 33.596874 49.190624 31.440624Q49.190624 28.8625 50.534374 27.409374Q51.878124 25.940624 53.940624 25.940624Q56.253124 25.940624 57.58125 27.471874Q58.925 29.003124 58.878124 32.159374L52.003124 32.159374Q52.034374 33.378124 52.659374 34.065624Q53.3 34.7375 54.2375 34.7375Q54.89375 34.7375 55.33125 34.39375Q55.76875 34.034374 55.9875 33.253124ZM56.14375 30.471874Q56.1125 29.284374 55.51875 28.675Q54.940624 28.05 54.1125 28.05Q53.20625 28.05 52.628124 28.690624Q52.034374 29.346874 52.05 30.471874L56.14375 30.471874ZM60.89375 36.55L60.89375 22.2375L63.628124 22.2375L63.628124 29.83125L66.84688 26.175L70.22188 26.175L66.675 29.971874L70.47188 36.55L67.51875 36.55L64.90938 31.89375L63.628124 33.221874L63.628124 36.55L60.89375 36.55ZM71.9875 36.55L71.9875 22.2375L74.7375 22.2375L74.7375 36.55L71.9875 36.55ZM76.69063 26.175L79.6125 26.175L82.08125 33.534374L84.50313 26.175L87.34688 26.175L83.69063 36.159374L83.03438 37.971874Q82.675 38.878124 82.34688 39.346874Q82.01875 39.83125 81.59688 40.128124Q81.175 40.425 80.55 40.58125Q79.925 40.753124 79.14375 40.753124Q78.3625 40.753124 77.59688 40.596874L77.34688 38.440624Q78.00313 38.565624 78.51875 38.565624Q79.47188 38.565624 79.925 38.003124Q80.39375 37.45625 80.62813 36.58125L76.69063 26.175ZM107.90938 36.55L104.76875 36.55L103.51875 33.3L97.8 33.3L96.6125 36.55L93.55 36.55L99.12813 22.2375L102.19063 22.2375L107.90938 36.55ZM102.59688 30.878124L100.62813 25.565624L98.69063 30.878124L102.59688 30.878124ZM111.83125 36.55L107.65938 26.175L110.53438 26.175L112.4875 31.471874L113.06563 33.2375Q113.28438 32.565624 113.34688 32.346874Q113.47188 31.909374 113.62813 31.471874L115.6125 26.175L118.425 26.175L114.31563 36.55L111.83125 36.55ZM125.9875 33.253124L128.72188 33.70625Q128.20625 35.20625 127.06563 36.003124Q125.925 36.784374 124.22188 36.784374Q121.50313 36.784374 120.20625 35.01875Q119.19063 33.596874 119.19063 31.440624Q119.19063 28.8625 120.53438 27.409374Q121.87813 25.940624 123.94063 25.940624Q126.25313 25.940624 127.58125 27.471874Q128.925 29.003124 128.87813 32.159374L122.00313 32.159374Q122.03438 33.378124 122.65938 34.065624Q123.3 34.7375 124.2375 34.7375Q124.89375 34.7375 125.33125 34.39375Q125.76875 34.034374 125.9875 33.253124ZM126.14375 30.471874Q126.1125 29.284374 125.51875 28.675Q124.94063 28.05 124.1125 28.05Q123.20625 28.05 122.62813 28.690624Q122.03438 29.346874 122.05 30.471874L126.14375 30.471874ZM133.6125 36.55L130.8625 36.55L130.8625 26.175L133.425 26.175L133.425 27.659374Q134.06563 26.6125 134.58125 26.284374Q135.1125 25.940624 135.78438 25.940624Q136.72188 25.940624 137.58125 26.45625L136.7375 28.846874Q136.05 28.409374 135.45625 28.409374Q134.87813 28.409374 134.47188 28.721874Q134.06563 29.034374 133.83125 29.878124Q133.6125 30.70625 133.6125 33.346874L133.6125 36.55ZM141.03438 29.346874L138.55 28.89375Q138.97188 27.39375 139.9875 26.675Q141.01875 25.940624 143.03438 25.940624Q144.87813 25.940624 145.76875 26.378124Q146.675 26.815624 147.03438 27.4875Q147.40938 28.14375 147.40938 29.940624L147.37813 33.14375Q147.37813 34.503124 147.50313 35.159374Q147.64375 35.8 148.00313 36.55L145.28438 36.55Q145.175 36.26875 145.01875 35.7375Q144.95625 35.4875 144.925 35.409374Q144.22188 36.096874 143.40938 36.440624Q142.6125 36.784374 141.70625 36.784374Q140.1125 36.784374 139.19063 35.925Q138.26875 35.05 138.26875 33.721874Q138.26875 32.83125 138.675 32.14375Q139.09688 31.45625 139.84688 31.096874Q140.6125 30.721874 142.05 30.45625Q143.97188 30.096874 144.70625 29.784374L144.70625 29.503124Q144.70625 28.721874 144.31563 28.39375Q143.925 28.05 142.84688 28.05Q142.1125 28.05 141.69063 28.33125Q141.28438 28.6125 141.03438 29.346874ZM144.70625 31.565624Q144.175 31.7375 143.03438 31.9875Q141.89375 32.2375 141.55 32.471874Q141.00313 32.846874 141.00313 33.440624Q141.00313 34.003124 141.425 34.425Q141.8625 34.846874 142.53438 34.846874Q143.26875 34.846874 143.94063 34.3625Q144.44063 33.9875 144.59688 33.45625Q144.70625 33.096874 144.70625 32.1125L144.70625 31.565624ZM149.7375 37.2375L152.8625 37.6125Q152.94063 38.159374 153.22188 38.3625Q153.6125 38.659374 154.45625 38.659374Q155.53438 38.659374 156.06563 38.33125Q156.425 38.128124 156.6125 37.64375Q156.7375 37.3 156.7375 36.378124L156.7375 34.8625Q155.51875 36.55 153.64375 36.55Q151.55 36.55 150.33125 34.784374Q149.37813 33.378124 149.37813 31.3Q149.37813 28.690624 150.62813 27.315624Q151.87813 25.940624 153.75313 25.940624Q155.675 25.940624 156.925 27.628124L156.925 26.175L159.4875 26.175L159.4875 35.4875Q159.4875 37.315624 159.175 38.221874Q158.87813 39.14375 158.33125 39.659374Q157.78438 40.175 156.8625 40.45625Q155.95625 40.753124 154.56563 40.753124Q151.925 40.753124 150.81563 39.846874Q149.72188 38.95625 149.72188 37.565624Q149.72188 37.425 149.7375 37.2375ZM152.19063 31.14375Q152.19063 32.8 152.81563 33.565624Q153.45625 34.33125 154.39375 34.33125Q155.40938 34.33125 156.09688 33.55Q156.8 32.753124 156.8 31.221874Q156.8 29.6125 156.12813 28.83125Q155.47188 28.05 154.45625 28.05Q153.45625 28.05 152.81563 28.815624Q152.19063 29.58125 152.19063 31.14375ZM167.9875 33.253124L170.72188 33.70625Q170.20625 35.20625 169.06563 36.003124Q167.925 36.784374 166.22188 36.784374Q163.50313 36.784374 162.20625 35.01875Q161.19063 33.596874 161.19063 31.440624Q161.19063 28.8625 162.53438 27.409374Q163.87813 25.940624 165.94063 25.940624Q168.25313 25.940624 169.58125 27.471874Q170.925 29.003124 170.87813 32.159374L164.00313 32.159374Q164.03438 33.378124 164.65938 34.065624Q165.3 34.7375 166.2375 34.7375Q166.89375 34.7375 167.33125 34.39375Q167.76875 34.034374 167.9875 33.253124ZM168.14375 30.471874Q168.1125 29.284374 167.51875 28.675Q166.94063 28.05 166.1125 28.05Q165.20625 28.05 164.62813 28.690624Q164.03438 29.346874 164.05 30.471874L168.14375 30.471874ZM178.9875 22.2375L181.87813 22.2375L181.87813 29.9875Q181.87813 31.83125 181.9875 32.378124Q182.175 33.253124 182.8625 33.784374Q183.56563 34.315624 184.78438 34.315624Q186.00313 34.315624 186.62813 33.815624Q187.25313 33.315624 187.37813 32.58125Q187.51875 31.846874 187.51875 30.159374L187.51875 22.2375L190.40938 22.2375L190.40938 29.753124Q190.40938 32.33125 190.175 33.39375Q189.94063 34.45625 189.3 35.190624Q188.675 35.925 187.6125 36.3625Q186.56563 36.8 184.8625 36.8Q182.81563 36.8 181.75313 36.33125Q180.69063 35.846874 180.08125 35.096874Q179.47188 34.33125 179.26875 33.503124Q178.9875 32.26875 178.9875 29.8625L178.9875 22.2375ZM192.90938 26.175L195.47188 26.175L195.47188 27.70625Q195.97188 26.925 196.81563 26.440624Q197.65938 25.940624 198.70625 25.940624Q200.50313 25.940624 201.75313 27.3625Q203.01875 28.76875 203.01875 31.3Q203.01875 33.909374 201.75313 35.346874Q200.4875 36.784374 198.675 36.784374Q197.81563 36.784374 197.1125 36.440624Q196.425 36.096874 195.65938 35.26875L195.65938 40.503124L192.90938 40.503124L192.90938 26.175ZM195.62813 31.190624Q195.62813 32.940624 196.31563 33.784374Q197.00313 34.6125 198.00313 34.6125Q198.95625 34.6125 199.59688 33.846874Q200.2375 33.065624 200.2375 31.33125Q200.2375 29.690624 199.58125 28.909374Q198.925 28.1125 197.95625 28.1125Q196.95625 28.1125 196.28438 28.89375Q195.62813 29.659374 195.62813 31.190624ZM204.9875 36.55L204.9875 22.2375L207.7375 22.2375L207.7375 36.55L204.9875 36.55ZM210.34688 31.221874Q210.34688 29.846874 211.01875 28.565624Q211.70625 27.284374 212.94063 26.6125Q214.175 25.940624 215.69063 25.940624Q218.05 25.940624 219.55 27.471874Q221.05 29.003124 221.05 31.33125Q221.05 33.690624 219.53438 35.2375Q218.01875 36.784374 215.70625 36.784374Q214.28438 36.784374 212.9875 36.14375Q211.70625 35.4875 211.01875 34.253124Q210.34688 33.003124 210.34688 31.221874ZM213.15938 31.3625Q213.15938 32.909374 213.89375 33.7375Q214.62813 34.55 215.70625 34.55Q216.78438 34.55 217.50313 33.7375Q218.2375 32.909374 218.2375 31.346874Q218.2375 29.815624 217.50313 29.003124Q216.78438 28.175 215.70625 28.175Q214.62813 28.175 213.89375 29.003124Q213.15938 29.815624 213.15938 31.3625ZM225.03438 29.346874L222.55 28.89375Q222.97188 27.39375 223.9875 26.675Q225.01875 25.940624 227.03438 25.940624Q228.87813 25.940624 229.76875 26.378124Q230.675 26.815624 231.03438 27.4875Q231.40938 28.14375 231.40938 29.940624L231.37813 33.14375Q231.37813 34.503124 231.50313 35.159374Q231.64375 35.8 232.00313 36.55L229.28438 36.55Q229.175 36.26875 229.01875 35.7375Q228.95625 35.4875 228.925 35.409374Q228.22188 36.096874 227.40938 36.440624Q226.6125 36.784374 225.70625 36.784374Q224.1125 36.784374 223.19063 35.925Q222.26875 35.05 222.26875 33.721874Q222.26875 32.83125 222.675 32.14375Q223.09688 31.45625 223.84688 31.096874Q224.6125 30.721874 226.05 30.45625Q227.97188 30.096874 228.70625 29.784374L228.70625 29.503124Q228.70625 28.721874 228.31563 28.39375Q227.925 28.05 226.84688 28.05Q226.1125 28.05 225.69063 28.33125Q225.28438 28.6125 225.03438 29.346874ZM228.70625 31.565624Q228.175 31.7375 227.03438 31.9875Q225.89375 32.2375 225.55 32.471874Q225.00313 32.846874 225.00313 33.440624Q225.00313 34.003124 225.425 34.425Q225.8625 34.846874 226.53438 34.846874Q227.26875 34.846874 227.94063 34.3625Q228.44063 33.9875 228.59688 33.45625Q228.70625 33.096874 228.70625 32.1125L228.70625 31.565624ZM243.50313 36.55L240.95625 36.55L240.95625 35.01875Q240.31563 35.909374 239.44063 36.346874Q238.58125 36.784374 237.70625 36.784374Q235.925 36.784374 234.64375 35.346874Q233.37813 33.909374 233.37813 31.33125Q233.37813 28.690624 234.6125 27.315624Q235.84688 25.940624 237.75313 25.940624Q239.4875 25.940624 240.75313 27.39375L240.75313 22.2375L243.50313 22.2375L243.50313 36.55ZM236.175 31.14375Q236.175 32.8 236.62813 33.534374Q237.3 34.6125 238.4875 34.6125Q239.44063 34.6125 240.09688 33.815624Q240.76875 33.003124 240.76875 31.409374Q240.76875 29.6125 240.1125 28.83125Q239.47188 28.05 238.47188 28.05Q237.4875 28.05 236.83125 28.83125Q236.175 29.596874 236.175 31.14375ZM255.22188 36.55L255.22188 24.659374L250.9875 24.659374L250.9875 22.2375L262.3625 22.2375L262.3625 24.659374L258.1125 24.659374L258.1125 36.55L255.22188 36.55ZM266.72186 22.2375L266.72186 27.503124Q268.05 25.940624 269.89374 25.940624Q270.84686 25.940624 271.59686 26.3Q272.3625 26.64375 272.7531 27.190624Q273.14374 27.7375 273.28436 28.409374Q273.425 29.065624 273.425 30.471874L273.425 36.55L270.675 36.55L270.675 31.065624Q270.675 29.440624 270.51874 29.003124Q270.3625 28.565624 269.95624 28.315624Q269.5656 28.05 268.97186 28.05Q268.3 28.05 267.7531 28.378124Q267.22186 28.70625 266.97186 29.378124Q266.72186 30.05 266.72186 31.346874L266.72186 36.55L263.97186 36.55L263.97186 22.2375L266.72186 22.2375ZM278.6125 36.55L275.8625 36.55L275.8625 26.175L278.425 26.175L278.425 27.659374Q279.0656 26.6125 279.58124 26.284374Q280.1125 25.940624 280.78436 25.940624Q281.72186 25.940624 282.58124 26.45625L281.7375 28.846874Q281.05 28.409374 280.45624 28.409374Q279.8781 28.409374 279.47186 28.721874Q279.0656 29.034374 278.83124 29.878124Q278.6125 30.70625 278.6125 33.346874L278.6125 36.55ZM283.34686 31.221874Q283.34686 29.846874 284.01874 28.565624Q284.70624 27.284374 285.9406 26.6125Q287.175 25.940624 288.6906 25.940624Q291.05 25.940624 292.55 27.471874Q294.05 29.003124 294.05 31.33125Q294.05 33.690624 292.53436 35.2375Q291.01874 36.784374 288.70624 36.784374Q287.28436 36.784374 285.9875 36.14375Q284.70624 35.4875 284.01874 34.253124Q283.34686 33.003124 283.34686 31.221874ZM286.15936 31.3625Q286.15936 32.909374 286.89374 33.7375Q287.6281 34.55 288.70624 34.55Q289.78436 34.55 290.5031 33.7375Q291.2375 32.909374 291.2375 31.346874Q291.2375 29.815624 290.5031 29.003124Q289.78436 28.175 288.70624 28.175Q287.6281 28.175 286.89374 29.003124Q286.15936 29.815624 286.15936 31.3625ZM302.8156 36.55L302.8156 35.003124Q302.2531 35.83125 301.3156 36.315624Q300.39374 36.784374 299.3781 36.784374Q298.33124 36.784374 297.5031 36.33125Q296.675 35.8625 296.3 35.034374Q295.925 34.20625 295.925 32.7375L295.925 26.175L298.675 26.175L298.675 30.940624Q298.675 33.128124 298.8156 33.628124Q298.97186 34.1125 299.3625 34.409374Q299.76874 34.690624 300.39374 34.690624Q301.09686 34.690624 301.64374 34.315624Q302.20624 33.925 302.40936 33.3625Q302.6125 32.784374 302.6125 30.55L302.6125 26.175L305.3625 26.175L305.3625 36.55L302.8156 36.55ZM307.7375 37.2375L310.8625 37.6125Q310.9406 38.159374 311.22186 38.3625Q311.6125 38.659374 312.45624 38.659374Q313.53436 38.659374 314.0656 38.33125Q314.425 38.128124 314.6125 37.64375Q314.7375 37.3 314.7375 36.378124L314.7375 34.8625Q313.51874 36.55 311.64374 36.55Q309.55 36.55 308.33124 34.784374Q307.3781 33.378124 307.3781 31.3Q307.3781 28.690624 308.6281 27.315624Q309.8781 25.940624 311.7531 25.940624Q313.675 25.940624 314.925 27.628124L314.925 26.175L317.4875 26.175L317.4875 35.4875Q317.4875 37.315624 317.175 38.221874Q316.8781 39.14375 316.33124 39.659374Q315.78436 40.175 314.8625 40.45625Q313.95624 40.753124 312.5656 40.753124Q309.925 40.753124 308.8156 39.846874Q307.72186 38.95625 307.72186 37.565624Q307.72186 37.425 307.7375 37.2375ZM310.1906 31.14375Q310.1906 32.8 310.8156 33.565624Q311.45624 34.33125 312.39374 34.33125Q313.40936 34.33125 314.09686 33.55Q314.8 32.753124 314.8 31.221874Q314.8 29.6125 314.1281 28.83125Q313.47186 28.05 312.45624 28.05Q311.45624 28.05 310.8156 28.815624Q310.1906 29.58125 310.1906 31.14375ZM322.72186 22.2375L322.72186 27.503124Q324.05 25.940624 325.89374 25.940624Q326.84686 25.940624 327.59686 26.3Q328.3625 26.64375 328.7531 27.190624Q329.14374 27.7375 329.28436 28.409374Q329.425 29.065624 329.425 30.471874L329.425 36.55L326.675 36.55L326.675 31.065624Q326.675 29.440624 326.51874 29.003124Q326.3625 28.565624 325.95624 28.315624Q325.5656 28.05 324.97186 28.05Q324.3 28.05 323.7531 28.378124Q323.22186 28.70625 322.97186 29.378124Q322.72186 30.05 322.72186 31.346874L322.72186 36.55L319.97186 36.55L319.97186 22.2375L322.72186 22.2375ZM331.90936 26.175L334.47186 26.175L334.47186 27.70625Q334.97186 26.925 335.8156 26.440624Q336.65936 25.940624 337.70624 25.940624Q339.5031 25.940624 340.7531 27.3625Q342.01874 28.76875 342.01874 31.3Q342.01874 33.909374 340.7531 35.346874Q339.4875 36.784374 337.675 36.784374Q336.8156 36.784374 336.1125 36.440624Q335.425 36.096874 334.65936 35.26875L334.65936 40.503124L331.90936 40.503124L331.90936 26.175ZM334.6281 31.190624Q334.6281 32.940624 335.3156 33.784374Q336.0031 34.6125 337.0031 34.6125Q337.95624 34.6125 338.59686 33.846874Q339.2375 33.065624 339.2375 31.33125Q339.2375 29.690624 338.58124 28.909374Q337.925 28.1125 336.95624 28.1125Q335.95624 28.1125 335.28436 28.89375Q334.6281 29.659374 334.6281 31.190624ZM350.8156 36.55L350.8156 35.003124Q350.2531 35.83125 349.3156 36.315624Q348.39374 36.784374 347.3781 36.784374Q346.33124 36.784374 345.5031 36.33125Q344.675 35.8625 344.3 35.034374Q343.925 34.20625 343.925 32.7375L343.925 26.175L346.675 26.175L346.675 30.940624Q346.675 33.128124 346.8156 33.628124Q346.97186 34.1125 347.3625 34.409374Q347.76874 34.690624 348.39374 34.690624Q349.09686 34.690624 349.64374 34.315624Q350.20624 33.925 350.40936 33.3625Q350.6125 32.784374 350.6125 30.55L350.6125 26.175L353.3625 26.175L353.3625 36.55L350.8156 36.55ZM360.7375 26.175L360.7375 28.3625L358.8625 28.3625L358.8625 32.55Q358.8625 33.815624 358.90936 34.034374Q358.97186 34.2375 359.15936 34.378124Q359.3625 34.503124 359.6281 34.503124Q360.0031 34.503124 360.7375 34.2375L360.97186 36.378124Q360.0031 36.784374 358.8 36.784374Q358.05 36.784374 357.45624 36.534374Q356.8625 36.284374 356.58124 35.89375Q356.3156 35.4875 356.20624 34.815624Q356.1125 34.346874 356.1125 32.89375L356.1125 28.3625L354.84686 28.3625L354.84686 26.175L356.1125 26.175L356.1125 24.1125L358.8625 22.51875L358.8625 26.175L360.7375 26.175Z" fill-rule="nonzero"/></svg>