<svg version="1.1" xmlns="http://www.w3.org/2000/svg" xmlns:xlink="http://www.w3.org/1999/xlink" width="2870" height="346"
	 viewBox="0 0 2870.03 346.83" xml:space="preserve">
<style type="text/css">
	.st0{fill:#000000;}
</style>
<g>
	<path class="st0" d="M1323.37,24.72h40.66v296.45h-40.66V24.72z"/>
	<path class="st0" d="M1952.93,24.72h40.66v296.45h-40.66V24.72z"/>
	<path class="st0" d="M1527.85,35.3V24.72h261.3V35.3h-110.13v285.87h-40.66V35.3H1527.85z"/>
	<path class="st0" d="M167.93,24.72h-44.94l13.91,34.41L30.92,321.17h13.1l34.36-84.95h130.11l34.35,84.95h44.94L167.93,24.72z
		 M83.29,224.07l60.16-148.75l60.13,148.75H83.29z"/>
	<path class="st0" d="M697.87,118.53c-6.07-17.64-15.17-33.46-27.31-47.44c-12.14-13.97-27.46-25.2-45.96-33.67
		c-18.5-8.47-40.02-12.7-64.58-12.7H453.48v296.45h106.53c24.28,0,45.59-4.23,63.96-12.7c18.35-8.47,33.66-19.69,45.96-33.67
		c12.27-13.98,21.52-29.79,27.73-47.44c6.22-17.64,9.33-35.78,9.33-54.42C706.98,154.31,703.94,136.17,697.87,118.53z
		 M558.76,310.59h-60.34V35.3h60.34c57.29,0,103.74,61.62,103.74,137.64C662.5,248.96,616.05,310.59,558.76,310.59z"/>
	<path class="st0" d="M1131.59,118.53c-6.07-17.64-15.17-33.46-27.31-47.44c-12.14-13.97-27.46-25.2-45.96-33.67
		c-18.5-8.47-40.02-12.7-64.58-12.7H887.21v296.45h106.53c24.28,0,45.59-4.23,63.96-12.7c18.35-8.47,33.66-19.69,45.96-33.67
		c12.27-13.98,21.52-29.79,27.73-47.44c6.22-17.64,9.33-35.78,9.33-54.42C1140.71,154.31,1137.66,136.17,1131.59,118.53z
		 M992.48,310.59h-60.34V35.3h60.34c57.29,0,103.74,61.62,103.74,137.64C1096.22,248.96,1049.77,310.59,992.48,310.59z"/>
	<polygon class="st0" points="2844.25,24.72 2844.25,321.17 2829.36,321.17 2649.01,77.14 2649.01,321.17 2636.58,321.17
		2636.58,60.32 2610.27,24.72 2654.99,24.72 2831.81,263.97 2831.81,24.72 	"/>
	<path class="st0" d="M2327.79,17.52c27.35,0,51.24,4.44,71.68,13.33c20.45,8.9,37.44,20.61,50.97,35.15
		c13.53,14.54,23.75,31.13,30.67,49.76c6.9,18.64,10.36,37.69,10.36,57.17s-3.46,38.54-10.36,57.17
		c-6.92,18.64-17.14,35.22-30.67,49.76c-13.53,14.54-30.52,26.25-50.97,35.15c-20.45,8.89-44.34,13.33-71.68,13.33
		c-27.36,0-51.34-4.44-71.92-13.33c-20.58-8.9-37.72-20.61-51.39-35.15c-13.68-14.54-23.91-31.13-30.67-49.76
		c-6.77-18.64-10.14-37.69-10.14-57.17s3.37-38.54,10.14-57.17c6.76-18.64,16.99-35.22,30.67-49.76
		c13.67-14.54,30.81-26.25,51.39-35.15C2276.45,21.97,2300.42,17.52,2327.79,17.52z M2327.6,28.15
		c-63.59,0-115.15,64.84-115.15,144.82s51.55,144.82,115.15,144.82c63.59,0,115.15-64.84,115.15-144.82S2391.19,28.15,2327.6,28.15z
		"/>
</g>
</svg>
