<svg xmlns="http://www.w3.org/2000/svg" viewBox="0 0 584.09 103.92"><defs><style>.cls-1{fill:#30f2a2;}.cls-2{fill:#14cc80;}</style></defs><title>Buildkite logo for light backgrounds</title><g id="Layer_2" data-name="Layer 2"><g id="Logo"><path d="M211.53,2.92c14.9,0,23.32,8.74,23.32,20.62,0,7.89-4.75,14.26-11.12,16.42,7.45,1.84,13.5,8.64,13.5,18.14,0,12.42-9.29,21.39-23.65,21.39H184V2.92Zm-2.27,31.64c6.8,0,10.91-3.78,10.91-9.61s-3.78-9.51-11-9.51H198.67V34.56Zm1.51,32.51c7.24,0,11.56-3.78,11.56-9.94S218.44,46.87,211,46.87H198.67v20.2Z"/><path d="M278.49,73.76c-2.92,5-9.08,7.13-14.69,7.13-12.86,0-20.2-9.39-20.2-21V26.35H258V57c0,5.94,3,10.7,9.72,10.7,6.37,0,10-4.32,10-10.48V26.35h14.36V69.88a89,89,0,0,0,.54,9.61H278.92A36,36,0,0,1,278.49,73.76Z"/><path d="M310.78,0a8.86,8.86,0,1,1-8.86,9A8.85,8.85,0,0,1,310.78,0Zm-7.13,79.49V26.35H318V79.49Z"/><path d="M329.57,79.49V1.3h14.36V79.49Z"/><path d="M405.14,69.88c0,3.56.22,7.45.43,9.61H391.86a36.25,36.25,0,0,1-.54-6.16c-2.38,4.22-7.78,7.46-14.91,7.46-15.12,0-25.92-11.88-25.92-28,0-15.55,10.48-27.75,25.49-27.75,9.18,0,13.5,3.78,15,6.58V1.3h14.15Zm-27-1.95c7.34,0,13.07-5.61,13.07-15.22s-5.73-14.8-13.07-14.8S365,43.31,365,52.81,370.58,67.93,378.14,67.93Z"/><path d="M446.15,48.71l21.71,30.78h-17.6l-14-20.31-6,6.27v14H415.91V1.3h14.36V46.12l18.36-19.77h18.8Z"/><path d="M480.63,0a8.86,8.86,0,1,1-8.86,9A8.85,8.85,0,0,1,480.63,0ZM473.5,79.49V26.35h14.37V79.49Z"/><path d="M496,26.35c5.61,0,8.2-3.67,8.2-8.42V10.48h13V26.35h10.7V39.1h-10.7V61.34c0,4.65,2.16,6.16,6.27,6.16a20.65,20.65,0,0,0,4.43-.43V79a21.33,21.33,0,0,1-8.11,1.3c-10.36,0-16.84-6.16-16.84-16.42V39.1H496"/><path d="M583.34,64.26c-2.7,9.18-11.13,16.85-24.2,16.85-14.58,0-27.43-10.48-27.43-28.4,0-17,12.53-28,26.14-28,16.41,0,26.24,10.48,26.24,27.54,0,2-.21,4.22-.21,4.43h-38c.32,7,6.26,12.1,13.39,12.1,6.7,0,10.37-3.35,12.1-8.1Zm-13.4-17.39c-.21-5.29-3.67-10.47-11.88-10.47a11.5,11.5,0,0,0-11.88,10.47Z"/><polygon class="cls-1" points="0 3.92 50 28.42 50 78.42 0 53.92 0 3.92"/><polygon class="cls-1" points="100.5 3.92 150 28.42 100.5 53.92 100.5 3.92"/><polygon class="cls-2" points="100.5 3.92 50 28.42 50 78.42 100.5 53.92 100.5 3.92"/><polygon class="cls-2" points="150 28.42 100.5 53.92 100.5 103.92 150 78.42 150 28.42"/></g></g></svg>