<svg width="768" height="155" viewBox="0 0 768 155" fill="none" xmlns="http://www.w3.org/2000/svg">
<path d="M765.802 41.6394H739.719V153.349H765.802V41.6394Z" fill="black"/>
<path d="M459.972 131.84C438.082 131.84 425.246 118.268 425.246 99.0607C425.246 79.8533 435.14 64.7741 458.008 64.7741C470.104 64.8746 481.57 67.6055 492.414 72.9668V48.5808C481.268 43.868 469.647 41.4841 457.551 41.4385C422.03 41.4385 399.491 65.8884 399.491 99.0607C399.491 132.233 424.131 154.126 459.387 154.126C471.685 154.052 483.525 151.696 494.909 147.047V123.246C483.845 128.497 472.196 131.356 459.972 131.84Z" fill="black"/>
<path d="M119.872 41.6394C116.455 41.5481 113.075 41.8677 109.74 42.5984C106.397 43.3291 103.199 44.4525 100.129 45.9686C97.0595 47.4847 94.2273 49.3388 91.6144 51.5491C89.0015 53.7593 86.69 56.2436 84.6892 59.011C82.5879 56.2619 80.1943 53.7867 77.5083 51.5947C74.8223 49.4027 71.9261 47.5578 68.8016 46.0417C65.6862 44.5347 62.4338 43.4021 59.0443 42.6623C55.6639 41.9134 52.2379 41.5755 48.7753 41.6394C20.3347 41.6394 0.737793 63.0753 0.737793 91.5896V153.404H26.4285V89.0323C26.2823 87.4887 26.3006 85.9543 26.4833 84.4108C26.666 82.8764 27.004 81.3694 27.5065 79.9081C28.009 78.4467 28.6485 77.0493 29.4434 75.7159C30.2382 74.3915 31.161 73.1585 32.2207 72.026C33.2805 70.8935 34.4408 69.8797 35.7107 68.9937C36.9806 68.1078 38.3236 67.3589 39.7489 66.7561C41.1741 66.1533 42.645 65.7057 44.1707 65.4135C45.6873 65.1212 47.2222 64.9933 48.7753 65.0299C50.3467 64.9842 51.8998 65.0938 53.453 65.3678C54.997 65.6418 56.5045 66.0802 57.9571 66.6739C59.4097 67.2675 60.7893 67.9982 62.0957 68.875C63.4022 69.7518 64.599 70.7565 65.6862 71.889C66.7825 73.0215 67.7418 74.2454 68.5732 75.5789C69.4046 76.9123 70.0989 78.3097 70.638 79.7893C71.177 81.2689 71.5607 82.7759 71.7891 84.3377C72.0175 85.8904 72.0723 87.4522 71.9718 89.0231V153.404H97.2696V89.0323C97.1417 87.4796 97.1874 85.9361 97.3793 84.4017C97.5711 82.8673 97.9366 81.3603 98.4482 79.8898C98.9598 78.4285 99.6267 77.0311 100.431 75.6976C101.235 74.3733 102.176 73.1403 103.235 72.0077C104.304 70.8752 105.474 69.8705 106.744 68.9846C108.023 68.0987 109.375 67.3589 110.809 66.7561C112.244 66.1533 113.724 65.7057 115.249 65.4226C116.775 65.1303 118.31 65.0025 119.863 65.039C121.435 64.9933 123.006 65.1029 124.55 65.3861C126.103 65.6601 127.611 66.0985 129.072 66.683C130.534 67.2767 131.923 68.0073 133.229 68.8841C134.536 69.7609 135.742 70.7656 136.847 71.889C137.953 73.0124 138.921 74.2454 139.771 75.5789C140.62 76.9123 141.324 78.3097 141.881 79.7893C142.438 81.2689 142.84 82.7851 143.078 84.3377C143.325 85.8995 143.398 87.4613 143.315 89.0414V153.404H169.079V91.5896C169.198 88.3107 168.988 85.0501 168.44 81.8078C167.892 78.5655 167.024 75.4145 165.836 72.3548C164.648 69.2951 163.159 66.3816 161.378 63.6233C159.596 60.8651 157.55 58.3169 155.247 55.9787C152.945 53.6406 150.423 51.5582 147.692 49.7315C144.96 47.9049 142.073 46.3796 139.031 45.1466C135.988 43.9136 132.855 43.0003 129.621 42.4066C126.405 41.8221 123.152 41.5572 119.872 41.6394Z" fill="black"/>
<path d="M767.173 14.9518C767.173 16.8607 766.807 18.7056 766.076 20.4683C765.346 22.2311 764.304 23.7929 762.952 25.1446C761.6 26.4963 760.037 27.5375 758.274 28.2682C756.511 28.9989 754.666 29.3642 752.756 29.3642C750.847 29.3642 749.001 28.9989 747.238 28.2682C745.475 27.5375 743.912 26.4963 742.56 25.1446C741.208 23.7929 740.167 22.2311 739.436 20.4683C738.705 18.7056 738.339 16.8607 738.339 14.9518C738.339 13.0429 738.705 11.198 739.436 9.43527C740.167 7.67253 741.208 6.11073 742.56 4.759C743.912 3.40727 745.475 2.36606 747.238 1.6354C749.001 0.904732 750.847 0.539398 752.756 0.539398C754.666 0.539398 756.511 0.904732 758.274 1.6354C760.037 2.36606 761.6 3.40727 762.952 4.759C764.304 6.11073 765.346 7.67253 766.076 9.43527C766.807 11.198 767.173 13.0429 767.173 14.9518Z" fill="black"/>
<path d="M572.154 131.511C553.343 131.511 541.621 118.396 541.621 97.8825C541.621 78.6751 554.732 64.1896 572.154 64.1896C590.764 64.1896 602.23 77.3051 602.23 97.8825C601.965 114.204 591.815 131.511 571.889 131.511H572.154ZM572.154 41.6394C570.29 41.5663 568.427 41.5937 566.563 41.7125C564.699 41.8312 562.844 42.0413 561.008 42.3518C559.163 42.6623 557.344 43.0642 555.545 43.5574C553.745 44.0506 551.972 44.6443 550.237 45.3201C548.501 45.996 546.792 46.7632 545.139 47.6126C543.476 48.462 541.868 49.4027 540.297 50.4165C538.734 51.4303 537.218 52.5263 535.765 53.7045C534.312 54.8736 532.924 56.1249 531.599 57.4401C530.274 58.7553 529.023 60.1344 527.835 61.5775C526.647 63.0205 525.542 64.5184 524.509 66.0802C523.477 67.642 522.536 69.2403 521.668 70.9026C520.8 72.5557 520.024 74.2545 519.329 75.9899C518.635 77.7252 518.041 79.4879 517.529 81.2872C517.018 83.0865 516.607 84.904 516.278 86.7398C515.958 88.5756 515.72 90.4297 515.593 92.2929C515.455 94.1561 515.419 96.0193 515.474 97.8916C515.474 130.671 537.821 154.071 569.797 154.071C573.113 154.199 576.384 153.861 579.6 153.057C582.816 152.253 585.858 151.011 588.727 149.34C591.596 147.668 594.172 145.632 596.456 143.22C598.74 140.818 600.649 138.133 602.166 135.183V153.404H627.857V97.8825C627.857 63.7238 606.104 41.6394 572.154 41.6394Z" fill="black"/>
<path d="M373.408 65.039C359.32 65.039 351.061 76.7753 351.061 92.3111V153.413H325.306V91.5987C325.306 63.0845 344.967 41.6485 373.408 41.6485H382.644V64.9842L373.408 65.039Z" fill="black"/>
<path d="M703.869 65.039C689.845 65.039 681.522 76.7753 681.522 92.3111V153.413H655.831V91.5987C655.831 63.0845 675.492 41.6485 703.869 41.6485H713.179V64.9842L703.869 65.039Z" fill="black"/>
<path d="M219.145 86.8037C219.428 85.1597 219.858 83.5523 220.424 81.9813C220.991 80.4104 221.694 78.9034 222.525 77.4603C223.357 76.0173 224.307 74.6473 225.385 73.3686C226.454 72.0899 227.632 70.9117 228.912 69.834C230.191 68.7563 231.552 67.8064 232.995 66.9661C234.439 66.135 235.946 65.4317 237.518 64.8563C239.089 64.2809 240.688 63.8517 242.332 63.5594C243.977 63.2671 245.631 63.121 247.302 63.121C248.974 63.121 250.628 63.2671 252.272 63.5594C253.917 63.8517 255.525 64.2809 257.087 64.8563C258.659 65.4317 260.157 66.135 261.61 66.9661C263.053 67.7973 264.414 68.7563 265.693 69.834C266.972 70.9117 268.142 72.0808 269.22 73.3686C270.289 74.6473 271.239 76.0081 272.08 77.4603C272.911 78.9034 273.614 80.4104 274.181 81.9813C274.747 83.5523 275.177 85.1597 275.46 86.8037H219.145ZM248.444 41.5663C244.763 41.5481 241.108 41.8951 237.499 42.6075C233.882 43.3199 230.382 44.3885 226.984 45.8133C223.585 47.2381 220.36 48.9826 217.318 51.0467C214.266 53.12 211.462 55.4673 208.885 58.1068C206.309 60.7463 204.025 63.6142 202.024 66.7104C200.023 69.8066 198.36 73.0672 197.017 76.5013C195.674 79.9355 194.688 83.4701 194.057 87.096C193.427 90.7311 193.162 94.3844 193.272 98.0651C193.272 133.201 218.496 154.052 253.168 154.052C267.137 153.97 280.704 151.586 293.86 146.91V124.424C281.225 129.456 268.124 132.269 254.538 132.881C235.27 132.881 221.776 124.296 219.346 107.116H297.46C298.008 103.006 298.273 98.878 298.245 94.7223C298.373 91.3339 298.172 87.9728 297.633 84.6209C297.094 81.2781 296.235 78.0175 295.048 74.8391C293.86 71.6607 292.38 68.6375 290.589 65.7514C288.808 62.8744 286.752 60.1983 284.441 57.7232C282.12 55.2481 279.589 53.0287 276.83 51.065C274.071 49.0922 271.148 47.4208 268.06 46.0325C264.972 44.6443 261.774 43.5757 258.467 42.8176C255.169 42.0778 251.825 41.6577 248.444 41.5663Z" fill="black"/>
</svg>
