<svg width="100%" height="100%" viewBox="0 0 132 28" fill="none" xmlns="http://www.w3.org/2000/svg">
  <path d="M42.4503 7.49296C37.1293 7.49296 32.9906 11.6338 32.9906 17.7465C32.9906 23.8592 37.1293 28 42.4503 28C47.7714 28 51.91 23.8592 51.91 17.7465C51.91 11.6338 47.7714 7.49296 42.4503 7.49296V7.49296ZM42.4503 25.2394C38.8635 25.2394 35.9468 22.2817 35.9468 17.7465C35.9468 13.2113 38.8635 10.2535 42.4503 10.2535C46.0371 10.2535 48.9539 13.2113 48.9539 17.7465C48.9539 22.2817 46.0371 25.2394 42.4503 25.2394ZM69.371 10.6479H69.1739C67.5973 8.63662 65.666 7.49296 62.8675 7.49296C57.7041 7.49296 53.8019 11.6338 53.8019 17.7465C53.8019 23.8592 57.7041 28 62.8675 28C65.666 28 67.5973 26.8563 69.1739 24.8451H69.371V27.6056H72.3272V0H69.371V10.6479ZM63.0645 25.2394C59.7142 25.2394 56.7581 22.2817 56.7581 17.7465C56.7581 13.2113 59.7142 10.2535 63.0645 10.2535C66.4149 10.2535 69.371 13.2113 69.371 17.7465C69.371 22.2817 66.4149 25.2394 63.0645 25.2394ZM89.2363 7.88732H92.1925V27.6056H89.2363V25.4366H89.0393C88.6057 25.9493 88.1327 26.3831 87.5415 26.738C86.5561 27.369 85.1371 28 83.127 28C78.5942 28 75.2439 24.6479 75.2439 19.7183V7.88732H78.2V19.7183C78.2 22.8732 80.565 25.2394 83.5211 25.2394C86.6743 25.2394 89.2363 22.6761 89.2363 19.7183V7.88732ZM95.1092 0H98.0654V27.6056H95.1092V0ZM115.881 10.6479H115.684C114.107 8.63662 112.176 7.49296 109.378 7.49296C104.214 7.49296 100.312 11.6338 100.312 17.7465C100.312 23.8592 104.214 28 109.378 28C112.176 28 114.107 26.8563 115.684 24.8451H115.881V27.6056H118.837V7.88732H115.881V10.6479ZM109.575 25.2394C106.224 25.2394 103.268 22.2817 103.268 17.7465C103.268 13.2113 106.224 10.2535 109.575 10.2535C112.925 10.2535 115.881 13.2113 115.881 17.7465C115.881 22.2817 112.925 25.2394 109.575 25.2394ZM132 7.88732V10.6479H124.907C124.799 10.6479 124.71 10.7366 124.71 10.8451V27.6056H121.754V10.6479H124.513C124.621 10.6479 124.71 10.5592 124.71 10.4507V7.88732H132ZM27.7878 4.14085H30.744V27.6056H27.5907V4.33803C27.5907 4.22958 27.5021 4.14085 27.3937 4.14085H26.0141L17.7369 27.6056H13.0071L4.72984 4.14085H3.15323V27.6056H0V0H6.50353L14.9778 24.0563H15.7661L24.2404 0H27.5907V3.94366C27.5907 4.05211 27.6794 4.14085 27.7878 4.14085Z" fill="#fff"></path>
</svg>