<svg width="2695" height="523" viewBox="0 0 2695 523" fill="none" xmlns="http://www.w3.org/2000/svg">
<g clip-path="url(#clip0_52_1420)">
<path d="M1147.7 512.031H1049.46L834.793 292.589H794.77V512.031H722V0H965.778C1068.38 0 1129.51 54.8605 1129.51 146.295C1129.51 237.729 1068.38 292.589 965.778 292.589H929.393L1147.7 512.031ZM1056.74 146.295C1056.74 94.36 1027.63 62.1752 965.778 62.1752H794.77V230.414H965.778C1027.63 230.414 1056.74 198.229 1056.74 146.295Z" fill="#E9EBDF" style="fill:#E9EBDF;fill:color(display-p3 0.9137 0.9216 0.8745);fill-opacity:1;"/>
<path d="M1334.01 523C1217.58 523 1144.81 435.955 1144.81 321.845C1144.81 207.735 1217.58 120.69 1330.38 120.69C1421.34 120.69 1475.92 171.893 1499.93 247.966C1508.66 276.494 1512.3 307.947 1512.3 340.132V347.447H1214.67C1216.86 408.89 1261.97 468.14 1334.01 468.14C1395.87 468.14 1424.25 432.297 1430.07 405.964H1505.02C1487.56 468.14 1429.34 523 1334.01 523ZM1214.67 292.586H1442.44C1438.8 226.754 1403.87 175.551 1330.38 175.551C1256.88 175.551 1216.86 230.411 1214.67 292.586Z" fill="#E9EBDF" style="fill:#E9EBDF;fill:color(display-p3 0.9137 0.9216 0.8745);fill-opacity:1;"/>
<path d="M1515.9 190.187V131.67H1606.86V43.8928H1676.72V131.67H1774.96V190.187H1676.72V420.601C1676.72 446.203 1683.99 454.98 1709.46 454.98H1774.96V512.035H1694.91C1628.69 512.035 1606.86 479.119 1606.86 420.601V190.187H1515.9Z" fill="#E9EBDF" style="fill:#E9EBDF;fill:color(display-p3 0.9137 0.9216 0.8745);fill-opacity:1;"/>
<path d="M1975.8 120.69C2092.24 120.69 2168.64 207.735 2168.64 321.845C2168.64 435.955 2092.24 523 1975.8 523C1859.37 523 1782.96 435.955 1782.96 321.845C1782.96 207.735 1859.37 120.69 1975.8 120.69ZM1975.8 179.208C1896.49 179.208 1852.82 245.04 1852.82 321.845C1852.82 398.65 1896.49 464.482 1975.8 464.482C2055.12 464.482 2098.78 398.65 2098.78 321.845C2098.78 245.04 2055.12 179.208 1975.8 179.208Z" fill="#E9EBDF" style="fill:#E9EBDF;fill:color(display-p3 0.9137 0.9216 0.8745);fill-opacity:1;"/>
<path d="M2392.33 120.69C2508.77 120.69 2585.17 207.735 2585.17 321.845C2585.17 435.955 2508.77 523 2392.33 523C2275.9 523 2199.5 435.955 2199.5 321.845C2199.5 207.735 2275.9 120.69 2392.33 120.69ZM2392.33 179.208C2313.02 179.208 2269.35 245.04 2269.35 321.845C2269.35 398.65 2313.02 464.482 2392.33 464.482C2471.65 464.482 2515.32 398.65 2515.32 321.845C2515.32 245.04 2471.65 179.208 2392.33 179.208Z" fill="#E9EBDF" style="fill:#E9EBDF;fill:color(display-p3 0.9137 0.9216 0.8745);fill-opacity:1;"/>
<path d="M2695.45 0V512.031H2625.59V0H2695.45Z" fill="#E9EBDF" style="fill:#E9EBDF;fill:color(display-p3 0.9137 0.9216 0.8745);fill-opacity:1;"/>
<path d="M320 24C320 10.7452 309.255 0 296 0H24C10.7452 0 0 10.7452 0 24V136C0 149.255 10.7452 160 24 160H296C309.255 160 320 170.745 320 184V216C320 229.255 309.255 240 296 240H120C106.745 240 96 250.745 96 264V376C96 389.255 106.745 400 120 400H296C309.255 400 320 410.745 320 424V488C320 501.255 330.745 512 344 512H456C469.255 512 480 501.255 480 488V376C480 362.745 469.255 352 456 352H344C330.745 352 320 341.255 320 328V296C320 282.745 330.745 272 344 272H456C469.255 272 480 261.255 480 248V136C480 122.745 469.255 112 456 112H344C330.745 112 320 101.255 320 88V24Z" fill="#E9EBDF" style="fill:#E9EBDF;fill:color(display-p3 0.9137 0.9216 0.8745);fill-opacity:1;"/>
</g>
<defs>
<clipPath id="clip0_52_1420">
<rect width="2695" height="523" fill="white" style="fill:white;fill-opacity:1;"/>
</clipPath>
</defs>
</svg>
