<svg width="210" height="38" viewBox="0 0 210 38" fill="none" xmlns="http://www.w3.org/2000/svg">
<g clip-path="url(#clip0_4_98)">
<path fill-rule="evenodd" clip-rule="evenodd" d="M73.0007 16.3202C72.8399 17.1572 72.7757 17.9941 72.7757 18.8954C72.7757 26.1703 78.2081 31.7391 85.3442 31.7391C90.1981 31.7391 94.1198 29.1961 96.1127 25.4299L101.384 28.5523C98.395 34.2177 92.3197 37.984 85.3442 37.984C74.5758 37.984 66.5717 29.6468 66.5717 18.8954C66.5717 18.0263 66.636 17.1572 66.7325 16.3202H73.0007ZM55.8997 26.46L61.2036 29.5824C58.0534 34.6362 52.6209 37.984 45.4848 37.984V31.8679C45.5169 31.8679 45.5491 31.8679 45.5812 31.8679C50.5315 31.8679 54.0996 29.4858 55.8997 26.46ZM192.483 0C201.837 0 209.487 7.62898 209.487 16.9962V37.984H202.994V17.2537C202.994 12.0712 198.976 6.43796 192.483 6.43796C185.989 6.43796 181.971 12.039 181.971 17.2537V37.984H175.478V16.9962C175.478 7.62898 183.096 0 192.483 0ZM151.177 0C156.448 0 160.949 1.83482 164.613 5.47226C168.31 9.1419 170.142 13.6163 170.142 18.992C170.142 24.3677 168.31 28.842 164.613 32.5117C160.916 36.1813 156.448 37.984 151.177 37.984C145.905 37.984 141.437 36.1491 137.772 32.5117C134.108 28.842 132.276 24.3677 132.276 18.992C132.276 13.6163 134.108 9.1419 137.772 5.47226C141.405 1.83482 145.905 0 151.177 0ZM23.3049 0V6.3092L13.5972 6.3092L13.5972 26.7175C13.5972 32.4473 16.8117 32.061 23.3049 31.7713L23.3049 37.6299C12.3436 39.1428 7.23256 36.1169 7.23256 26.7175L7.23256 6.3092L0 6.3092L0 0L23.3049 0ZM128.032 0V6.3092L118.325 6.3092V26.7175C118.325 32.4473 121.539 32.061 128.032 31.7713V37.6299C117.071 39.1428 111.96 36.1169 111.96 26.7175V6.3092L104.728 6.3092V0L128.032 0ZM151.016 6.08387C147.448 6.08387 144.458 7.30708 141.983 9.7857C139.54 12.2643 138.319 15.3223 138.319 18.992C138.319 22.6616 139.54 25.7518 141.983 28.1983C144.426 30.6769 147.448 31.9001 151.016 31.9001C154.616 31.9001 157.67 30.6769 160.113 28.1983C162.556 25.7196 163.777 22.6616 163.777 18.992C163.777 15.3223 162.556 12.2321 160.113 9.7857C157.67 7.33927 154.616 6.08387 151.016 6.08387ZM44.8419 0C55.6425 0 62.6179 8.85219 62.6179 18.8632C62.6179 19.7967 62.5536 20.7302 62.3929 21.6315L32.4662 21.6315C32.4662 21.6315 32.4662 21.6315 32.4662 21.6637H26.3265C26.198 20.7302 26.1015 19.7645 26.1015 18.7988C26.1015 8.2084 33.6877 0 44.8419 0ZM44.8419 5.85854C38.1236 5.85854 33.4948 10.011 32.4983 16.2237L56.3497 16.2237C55.2568 9.1419 50.1779 5.85854 44.8419 5.85854ZM85.3764 0C92.5447 0 98.62 3.95934 101.352 10.011L96.0806 13.23C94.2805 9.17409 90.2302 6.50234 85.3764 6.50234C84.7978 6.50234 84.2192 6.56672 83.6727 6.6311V0.0965694C84.2192 0.0321898 84.7978 0 85.3764 0Z" fill="black"/>
</g>
<defs>
<clipPath id="clip0_4_98">
<rect width="210" height="38" fill="black"/>
</clipPath>
</defs>
</svg>
