<svg width="189" height="153" viewBox="0 0 189 153" fill="none" xmlns="http://www.w3.org/2000/svg">
<path d="M94.598 61.846V26.108H126.056C129.052 26.108 131.905 26.3933 134.616 26.964C137.469 27.392 139.966 28.248 142.106 29.532C144.246 30.816 145.958 32.5993 147.242 34.882C148.526 37.1647 149.168 40.0893 149.168 43.656C149.168 50.076 147.242 54.7127 143.39 57.566C139.538 60.4193 134.616 61.846 128.624 61.846H94.598ZM61 0V152.796H135.044C141.892 152.796 148.526 151.94 154.946 150.228C161.509 148.516 167.287 145.877 172.28 142.31C177.416 138.743 181.482 134.178 184.478 128.614C187.474 122.907 188.972 116.202 188.972 108.498C188.972 98.9393 186.618 90.8073 181.91 84.102C177.345 77.254 170.354 72.4747 160.938 69.764C167.786 66.4827 172.922 62.274 176.346 57.138C179.913 52.002 181.696 45.582 181.696 37.878C181.696 30.7447 180.483 24.7527 178.058 19.902C175.775 15.0513 172.494 11.1993 168.214 8.34601C163.934 5.35 158.798 3.21 152.806 1.926C146.814 0.642 140.18 0 132.904 0H61ZM94.598 126.688V84.744H131.192C138.468 84.744 144.317 86.456 148.74 89.88C153.163 93.1613 155.374 98.7253 155.374 106.572C155.374 110.567 154.661 113.848 153.234 116.416C151.95 118.984 150.167 121.053 147.884 122.622C145.601 124.049 142.962 125.119 139.966 125.832C136.97 126.403 133.831 126.688 130.55 126.688H94.598Z" fill="#039BE5"/>
<path d="M83.598 61.846V26.108H115.056C118.052 26.108 120.905 26.3933 123.616 26.964C126.469 27.392 128.966 28.248 131.106 29.532C133.246 30.816 134.958 32.5993 136.242 34.882C137.526 37.1647 138.168 40.0893 138.168 43.656C138.168 50.076 136.242 54.7127 132.39 57.566C128.538 60.4193 123.616 61.846 117.624 61.846H83.598ZM50 0V152.796H124.044C130.892 152.796 137.526 151.94 143.946 150.228C150.509 148.516 156.287 145.877 161.28 142.31C166.416 138.743 170.482 134.178 173.478 128.614C176.474 122.907 177.972 116.202 177.972 108.498C177.972 98.9393 175.618 90.8073 170.91 84.102C166.345 77.254 159.354 72.4747 149.938 69.764C156.786 66.4827 161.922 62.274 165.346 57.138C168.913 52.002 170.696 45.582 170.696 37.878C170.696 30.7447 169.483 24.7527 167.058 19.902C164.775 15.0513 161.494 11.1993 157.214 8.34601C152.934 5.35 147.798 3.21 141.806 1.926C135.814 0.642 129.18 0 121.904 0H50ZM83.598 126.688V84.744H120.192C127.468 84.744 133.317 86.456 137.74 89.88C142.163 93.1613 144.374 98.7253 144.374 106.572C144.374 110.567 143.661 113.848 142.234 116.416C140.95 118.984 139.167 121.053 136.884 122.622C134.601 124.049 131.962 125.119 128.966 125.832C125.97 126.403 122.831 126.688 119.55 126.688H83.598Z" fill="#039BE5"/>
<path d="M73.598 61.846V26.108H105.056C108.052 26.108 110.905 26.3933 113.616 26.964C116.469 27.392 118.966 28.248 121.106 29.532C123.246 30.816 124.958 32.5993 126.242 34.882C127.526 37.1647 128.168 40.0893 128.168 43.656C128.168 50.076 126.242 54.7127 122.39 57.566C118.538 60.4193 113.616 61.846 107.624 61.846H73.598ZM40 0V152.796H114.044C120.892 152.796 127.526 151.94 133.946 150.228C140.509 148.516 146.287 145.877 151.28 142.31C156.416 138.743 160.482 134.178 163.478 128.614C166.474 122.907 167.972 116.202 167.972 108.498C167.972 98.9393 165.618 90.8073 160.91 84.102C156.345 77.254 149.354 72.4747 139.938 69.764C146.786 66.4827 151.922 62.274 155.346 57.138C158.913 52.002 160.696 45.582 160.696 37.878C160.696 30.7447 159.483 24.7527 157.058 19.902C154.775 15.0513 151.494 11.1993 147.214 8.34601C142.934 5.35 137.798 3.21 131.806 1.926C125.814 0.642 119.18 0 111.904 0H40ZM73.598 126.688V84.744H110.192C117.468 84.744 123.317 86.456 127.74 89.88C132.163 93.1613 134.374 98.7253 134.374 106.572C134.374 110.567 133.661 113.848 132.234 116.416C130.95 118.984 129.167 121.053 126.884 122.622C124.601 124.049 121.962 125.119 118.966 125.832C115.97 126.403 112.831 126.688 109.55 126.688H73.598Z" fill="#039BE5"/>
<path d="M63.598 61.846V26.108H95.056C98.052 26.108 100.905 26.3933 103.616 26.964C106.469 27.392 108.966 28.248 111.106 29.532C113.246 30.816 114.958 32.5993 116.242 34.882C117.526 37.1647 118.168 40.0893 118.168 43.656C118.168 50.076 116.242 54.7127 112.39 57.566C108.538 60.4193 103.616 61.846 97.624 61.846H63.598ZM30 0V152.796H104.044C110.892 152.796 117.526 151.94 123.946 150.228C130.509 148.516 136.287 145.877 141.28 142.31C146.416 138.743 150.482 134.178 153.478 128.614C156.474 122.907 157.972 116.202 157.972 108.498C157.972 98.9393 155.618 90.8073 150.91 84.102C146.345 77.254 139.354 72.4747 129.938 69.764C136.786 66.4827 141.922 62.274 145.346 57.138C148.913 52.002 150.696 45.582 150.696 37.878C150.696 30.7447 149.483 24.7527 147.058 19.902C144.775 15.0513 141.494 11.1993 137.214 8.34601C132.934 5.35 127.798 3.21 121.806 1.926C115.814 0.642 109.18 0 101.904 0H30ZM63.598 126.688V84.744H100.192C107.468 84.744 113.317 86.456 117.74 89.88C122.163 93.1613 124.374 98.7253 124.374 106.572C124.374 110.567 123.661 113.848 122.234 116.416C120.95 118.984 119.167 121.053 116.884 122.622C114.601 124.049 111.962 125.119 108.966 125.832C105.97 126.403 102.831 126.688 99.55 126.688H63.598Z" fill="#039BE5"/>
<path d="M53.598 61.846V26.108H85.056C88.052 26.108 90.9053 26.3933 93.616 26.964C96.4693 27.392 98.966 28.248 101.106 29.532C103.246 30.816 104.958 32.5993 106.242 34.882C107.526 37.1647 108.168 40.0893 108.168 43.656C108.168 50.076 106.242 54.7127 102.39 57.566C98.538 60.4193 93.616 61.846 87.624 61.846H53.598ZM20 0V152.796H94.044C100.892 152.796 107.526 151.94 113.946 150.228C120.509 148.516 126.287 145.877 131.28 142.31C136.416 138.743 140.482 134.178 143.478 128.614C146.474 122.907 147.972 116.202 147.972 108.498C147.972 98.9393 145.618 90.8073 140.91 84.102C136.345 77.254 129.354 72.4747 119.938 69.764C126.786 66.4827 131.922 62.274 135.346 57.138C138.913 52.002 140.696 45.582 140.696 37.878C140.696 30.7447 139.483 24.7527 137.058 19.902C134.775 15.0513 131.494 11.1993 127.214 8.34601C122.934 5.35 117.798 3.21 111.806 1.926C105.814 0.642 99.18 0 91.904 0H20ZM53.598 126.688V84.744H90.192C97.468 84.744 103.317 86.456 107.74 89.88C112.163 93.1613 114.374 98.7253 114.374 106.572C114.374 110.567 113.661 113.848 112.234 116.416C110.95 118.984 109.167 121.053 106.884 122.622C104.601 124.049 101.962 125.119 98.966 125.832C95.97 126.403 92.8313 126.688 89.55 126.688H53.598Z" fill="#039BE5"/>
<path d="M43.598 61.846V26.108H75.056C78.052 26.108 80.9053 26.3933 83.616 26.964C86.4693 27.392 88.966 28.248 91.106 29.532C93.246 30.816 94.958 32.5993 96.242 34.882C97.526 37.1647 98.168 40.0893 98.168 43.656C98.168 50.076 96.242 54.7127 92.39 57.566C88.538 60.4193 83.616 61.846 77.624 61.846H43.598ZM10 0V152.796H84.044C90.892 152.796 97.526 151.94 103.946 150.228C110.509 148.516 116.287 145.877 121.28 142.31C126.416 138.743 130.482 134.178 133.478 128.614C136.474 122.907 137.972 116.202 137.972 108.498C137.972 98.9393 135.618 90.8073 130.91 84.102C126.345 77.254 119.354 72.4747 109.938 69.764C116.786 66.4827 121.922 62.274 125.346 57.138C128.913 52.002 130.696 45.582 130.696 37.878C130.696 30.7447 129.483 24.7527 127.058 19.902C124.775 15.0513 121.494 11.1993 117.214 8.34601C112.934 5.35 107.798 3.21 101.806 1.926C95.814 0.642 89.18 0 81.904 0H10ZM43.598 126.688V84.744H80.192C87.468 84.744 93.3173 86.456 97.74 89.88C102.163 93.1613 104.374 98.7253 104.374 106.572C104.374 110.567 103.661 113.848 102.234 116.416C100.95 118.984 99.1667 121.053 96.884 122.622C94.6013 124.049 91.962 125.119 88.966 125.832C85.97 126.403 82.8313 126.688 79.55 126.688H43.598Z" fill="#039BE5"/>
<path d="M33.598 61.846V26.108H65.056C68.052 26.108 70.9053 26.3933 73.616 26.964C76.4693 27.392 78.966 28.248 81.106 29.532C83.246 30.816 84.958 32.5993 86.242 34.882C87.526 37.1647 88.168 40.0893 88.168 43.656C88.168 50.076 86.242 54.7127 82.39 57.566C78.538 60.4193 73.616 61.846 67.624 61.846H33.598ZM0 0V152.796H74.044C80.892 152.796 87.526 151.94 93.946 150.228C100.509 148.516 106.287 145.877 111.28 142.31C116.416 138.743 120.482 134.178 123.478 128.614C126.474 122.907 127.972 116.202 127.972 108.498C127.972 98.9393 125.618 90.8073 120.91 84.102C116.345 77.254 109.354 72.4747 99.938 69.764C106.786 66.4827 111.922 62.274 115.346 57.138C118.913 52.002 120.696 45.582 120.696 37.878C120.696 30.7447 119.483 24.7527 117.058 19.902C114.775 15.0513 111.494 11.1993 107.214 8.34601C102.934 5.35 97.798 3.21 91.806 1.926C85.814 0.642 79.18 0 71.904 0H0ZM33.598 126.688V84.744H70.192C77.468 84.744 83.3173 86.456 87.74 89.88C92.1627 93.1613 94.374 98.7253 94.374 106.572C94.374 110.567 93.6607 113.848 92.234 116.416C90.95 118.984 89.1667 121.053 86.884 122.622C84.6013 124.049 81.962 125.119 78.966 125.832C75.97 126.403 72.8313 126.688 69.55 126.688H33.598Z" fill="#039BE5"/>
</svg>
