<?xml version="1.0" encoding="UTF-8"?>
<svg fill="none" stroke-linecap="square" stroke-miterlimit="10" version="1.1" viewBox="0.0 0.0 672.0 528.0" xmlns="http://www.w3.org/2000/svg">
<clipPath id="a">
<path d="m0 0h672v528h-672v-528z"/>
</clipPath>
<g clip-path="url(#a)">
<path d="m0 0h672v528h-672z" fill="#fff" fill-rule="evenodd"/>
<path d="m271.2 38.739c0-9.7208 7.8803-17.601 17.601-17.601h94.404c4.6681 0 9.145 1.8544 12.446 5.1552 3.3008 3.3008 5.1552 7.7777 5.1552 12.446v70.404c0 9.7208-7.8803 17.601-17.601 17.601h-94.404c-9.7208 0-17.601-7.8803-17.601-17.601z" fill="#f5f5f7" fill-rule="evenodd"/>
<path d="m271.2 38.739c0-9.7208 7.8803-17.601 17.601-17.601h94.404c4.6681 0 9.145 1.8544 12.446 5.1552 3.3008 3.3008 5.1552 7.7777 5.1552 12.446v70.404c0 9.7208-7.8803 17.601-17.601 17.601h-94.404c-9.7208 0-17.601-7.8803-17.601-17.601z" fill-rule="evenodd" stroke="#e5e7eb" stroke-linecap="butt" stroke-linejoin="round"/>
<path d="m303.56 53.213v-11.094h-3.9531v-2.2656h10.609v2.2656h-3.9531v11.094h-2.7031zm8.9012-6.7188l-2.3281-0.42188q0.40625-1.4062 1.3594-2.0781t2.8438-0.67188q1.7031 0 2.5469 0.40625t1.1719 1.0312q0.34375 0.625 0.34375 2.2812l-0.015625 3q0 1.2656 0.10938 1.875 0.125 0.60938 0.46875 1.2969h-2.5312q-0.10938-0.25-0.25-0.75-0.0625-0.23438-0.09375-0.3125-0.65625 0.64062-1.4062 0.96875-0.73438 0.3125-1.5938 0.3125-1.4844 0-2.3438-0.8125t-0.85938-2.0469q0-0.82812 0.39062-1.4688t1.0938-0.96875q0.70312-0.34375 2.0312-0.60938 1.7969-0.32812 2.4844-0.625v-0.25q0-0.75-0.35938-1.0625t-1.375-0.3125q-0.6875 0-1.0781 0.28125-0.375 0.26562-0.60938 0.9375zm3.4219 2.0781q-0.48438 0.15625-1.5625 0.39062-1.0625 0.21875-1.3906 0.4375-0.5 0.35938-0.5 0.90625 0 0.53125 0.40625 0.9375 0.40625 0.39062 1.0156 0.39062 0.70312 0 1.3281-0.46875 0.46875-0.34375 0.60938-0.84375 0.09375-0.32812 0.09375-1.25v-0.5zm7.5007 4.6406h-2.5625v-9.6719h2.375v1.375q0.60938-0.98438 1.0938-1.2812 0.48438-0.3125 1.1094-0.3125 0.875 0 1.6875 0.48438l-0.79688 2.2344q-0.64062-0.42188-1.2031-0.42188-0.53125 0-0.90625 0.29688t-0.59375 1.0781q-0.20312 0.76562-0.20312 3.2344v2.9844zm4.5728 0.64062l2.9219 0.35938q0.0625 0.5 0.32812 0.6875 0.375 0.28125 1.1562 0.28125 1 0 1.5-0.29688 0.32812-0.20312 0.51562-0.65625 0.10938-0.3125 0.10938-1.1719v-1.4062q-1.1406 1.5625-2.8906 1.5625-1.9531 0-3.0938-1.6562-0.89062-1.2969-0.89062-3.2344 0-2.4375 1.1719-3.7188t2.9062-1.2812q1.7969 0 2.9688 1.5781v-1.3594h2.3906v8.6719q0 1.7188-0.28125 2.5625t-0.79688 1.3281q-0.5 0.48438-1.3594 0.75-0.84375 0.28125-2.1562 0.28125-2.4531 0-3.4844-0.84375t-1.0312-2.125q0-0.14062 0.015625-0.3125zm2.2812-5.6719q0 1.5312 0.59375 2.25t1.4688 0.71875q0.9375 0 1.5781-0.73438 0.65625-0.73438 0.65625-2.1719 0-1.5156-0.625-2.2344-0.60938-0.73438-1.5625-0.73438-0.92188 0-1.5156 0.71875t-0.59375 2.1875zm14.943 1.9531l2.5469 0.42188q-0.48438 1.4062-1.5469 2.1406t-2.6562 0.73438q-2.5156 0-3.7344-1.6562-0.95312-1.3125-0.95312-3.3281 0-2.4062 1.25-3.7656 1.2656-1.3594 3.1875-1.3594 2.1562 0 3.4062 1.4219t1.1875 4.375h-6.4062q0.03125 1.1406 0.60938 1.7812 0.59375 0.625 1.4844 0.625 0.59375 0 1-0.32812 0.42188-0.32812 0.625-1.0625zm0.15625-2.5938q-0.03125-1.1094-0.57812-1.6875t-1.3281-0.57812q-0.84375 0-1.3906 0.60938t-0.53125 1.6562h3.8281zm9.0632-4v2.0312h-1.75v3.9062q0 1.1875 0.046875 1.3906 0.046875 0.1875 0.21875 0.3125 0.1875 0.125 0.4375 0.125 0.35938 0 1.0312-0.25l0.21875 2q-0.89062 0.375-2.0156 0.375-0.70312 0-1.2656-0.23438-0.54688-0.23438-0.8125-0.59375-0.25-0.375-0.34375-1-0.09375-0.45312-0.09375-1.8125v-4.2188h-1.1719v-2.0312h1.1719v-1.9219l2.5781-1.5v3.4219h1.75zm18.328 9.6719h-2.9375l-1.1719-3.0312h-5.3281l-1.1094 3.0312h-2.8594l5.2031-13.359h2.8438l5.3594 13.359zm-4.9688-5.2812l-1.8438-4.9531-1.7969 4.9531h3.6406z" fill="#24292e"/>
<path d="m288 71.174h96v42.016h-96z" fill="#fff" fill-rule="evenodd"/>
<path d="m288 71.174h96v42.016h-96z" fill-rule="evenodd" stroke="#24292e" stroke-linecap="butt" stroke-linejoin="round" stroke-width="2"/>
<path d="m302.26 98.094l5.125-13.359h1.9062l5.4688 13.359h-2.0156l-1.5469-4.0469h-5.5938l-1.4688 4.0469h-1.875zm3.8594-5.4844h4.5312l-1.4062-3.7031q-0.625-1.6875-0.9375-2.7656-0.26562 1.2812-0.71875 2.5469l-1.4688 3.9219zm16.162 1.9375l1.6094 0.21875q-0.26562 1.6562-1.3594 2.6094-1.0781 0.9375-2.6719 0.9375-1.9844 0-3.1875-1.2969t-1.2031-3.7188q0-1.5781 0.51562-2.75t1.5781-1.75q1.0625-0.59375 2.3125-0.59375 1.5781 0 2.5781 0.79688t1.2812 2.2656l-1.5938 0.23438q-0.23438-0.96875-0.8125-1.4531-0.57812-0.5-1.3906-0.5-1.2344 0-2.0156 0.89062t-0.78125 2.8125q0 1.9531 0.75 2.8438 0.75 0.875 1.9531 0.875 0.96875 0 1.6094-0.59375 0.65625-0.59375 0.82812-1.8281zm6.5938 2.0781l0.23438 1.4531q-0.6875 0.14062-1.2344 0.14062-0.89062 0-1.3906-0.28125-0.48438-0.28125-0.6875-0.73438-0.20312-0.46875-0.20312-1.9375v-5.5781h-1.2031v-1.2656h1.2031v-2.3906l1.625-0.98438v3.375h1.6562v1.2656h-1.6562v5.6719q0 0.6875 0.078125 0.89062 0.09375 0.20312 0.28125 0.32812 0.20312 0.10938 0.57812 0.10938 0.26562 0 0.71875-0.0625zm1.6052-10v-1.8906h1.6406v1.8906h-1.6406zm0 11.469v-9.6719h1.6406v9.6719h-1.6406zm3.5354-4.8438q0-2.6875 1.4844-3.9688 1.25-1.0781 3.0469-1.0781 2 0 3.2656 1.3125 1.2656 1.2969 1.2656 3.6094 0 1.8594-0.5625 2.9375-0.5625 1.0625-1.6406 1.6562-1.0625 0.59375-2.3281 0.59375-2.0312 0-3.2812-1.2969-1.25-1.3125-1.25-3.7656zm1.6875 0q0 1.8594 0.79688 2.7969 0.8125 0.92188 2.0469 0.92188 1.2188 0 2.0312-0.92188 0.8125-0.9375 0.8125-2.8438 0-1.7969-0.8125-2.7188t-2.0312-0.92188q-1.2344 0-2.0469 0.92188-0.79688 0.90625-0.79688 2.7656zm9.2976 4.8438v-9.6719h1.4688v1.375q1.0625-1.5938 3.0781-1.5938 0.875 0 1.6094 0.3125t1.0938 0.82812q0.375 0.5 0.51562 1.2031 0.09375 0.45312 0.09375 1.5938v5.9531h-1.6406v-5.8906q0-1-0.20312-1.4844-0.1875-0.5-0.67188-0.79688t-1.1406-0.29688q-1.0469 0-1.8125 0.67188-0.75 0.65625-0.75 2.5156v5.2812h-1.6406zm21.278 0h-1.6406v-10.453q-0.59375 0.5625-1.5625 1.1406-0.95312 0.5625-1.7188 0.84375v-1.5938q1.375-0.64062 2.4062-1.5625t1.4531-1.7812h1.0625v13.406z" fill="#24292e"/>
<path d="m21.596 169.14c0-11.93 9.6711-21.601 21.601-21.601h86.404c5.729 0 11.223 2.2758 15.274 6.3268 4.051 4.051 6.3268 9.5453 6.3268 15.274v129.59c0 11.93-9.6711 21.601-21.601 21.601h-86.404c-11.93 0-21.601-9.6711-21.601-21.601z" fill="#f5f5f7" fill-rule="evenodd"/>
<path d="m21.596 169.14c0-11.93 9.6711-21.601 21.601-21.601h86.404c5.729 0 11.223 2.2758 15.274 6.3268 4.051 4.051 6.3268 9.5453 6.3268 15.274v129.59c0 11.93-9.6711 21.601-21.601 21.601h-86.404c-11.93 0-21.601-9.6711-21.601-21.601z" fill-rule="evenodd" stroke="#e5e7eb" stroke-linecap="butt" stroke-linejoin="round"/>
<path d="m53.615 180.79v-11.094h-3.9531v-2.2656h10.609v2.2656h-3.9531v11.094h-2.7031zm8.9012-6.7188l-2.3281-0.42188q0.40625-1.4062 1.3594-2.0781t2.8438-0.67188q1.7031 0 2.5469 0.40625t1.1719 1.0312q0.34375 0.625 0.34375 2.2812l-0.015625 3q0 1.2656 0.10938 1.875 0.125 0.60938 0.46875 1.2969h-2.5312q-0.10938-0.25-0.25-0.75-0.0625-0.23438-0.09375-0.3125-0.65625 0.64062-1.4062 0.96875-0.73438 0.3125-1.5938 0.3125-1.4844 0-2.3438-0.8125t-0.85938-2.0469q0-0.82812 0.39062-1.4688t1.0938-0.96875q0.70312-0.34375 2.0312-0.60938 1.7969-0.32812 2.4844-0.625v-0.25q0-0.75-0.35938-1.0625t-1.375-0.3125q-0.6875 0-1.0781 0.28125-0.375 0.26562-0.60938 0.9375zm3.4219 2.0781q-0.48438 0.15625-1.5625 0.39062-1.0625 0.21875-1.3906 0.4375-0.5 0.35938-0.5 0.90625 0 0.53125 0.40625 0.9375 0.40625 0.39062 1.0156 0.39062 0.70312 0 1.3281-0.46875 0.46875-0.34375 0.60938-0.84375 0.09375-0.32812 0.09375-1.25v-0.5zm7.5007 4.6406h-2.5625v-9.6719h2.375v1.375q0.60938-0.98438 1.0938-1.2812 0.48438-0.3125 1.1094-0.3125 0.875 0 1.6875 0.48438l-0.79688 2.2344q-0.64062-0.42188-1.2031-0.42188-0.53125 0-0.90625 0.29688t-0.59375 1.0781q-0.20312 0.76562-0.20312 3.2344v2.9844zm4.5728 0.64062l2.9219 0.35938q0.0625 0.5 0.32812 0.6875 0.375 0.28125 1.1562 0.28125 1 0 1.5-0.29688 0.32812-0.20312 0.51562-0.65625 0.10938-0.3125 0.10938-1.1719v-1.4062q-1.1406 1.5625-2.8906 1.5625-1.9531 0-3.0938-1.6562-0.89062-1.2969-0.89062-3.2344 0-2.4375 1.1719-3.7188t2.9062-1.2812q1.7969 0 2.9688 1.5781v-1.3594h2.3906v8.6719q0 1.7188-0.28125 2.5625t-0.79688 1.3281q-0.5 0.48438-1.3594 0.75-0.84375 0.28125-2.1562 0.28125-2.4531 0-3.4844-0.84375t-1.0312-2.125q0-0.14062 0.015625-0.3125zm2.2812-5.6719q0 1.5312 0.59375 2.25t1.4688 0.71875q0.9375 0 1.5781-0.73438 0.65625-0.73438 0.65625-2.1719 0-1.5156-0.625-2.2344-0.60938-0.73438-1.5625-0.73438-0.92188 0-1.5156 0.71875t-0.59375 2.1875zm14.943 1.9531l2.5469 0.42188q-0.48438 1.4062-1.5469 2.1406t-2.6562 0.73438q-2.5156 0-3.7344-1.6562-0.95312-1.3125-0.95312-3.3281 0-2.4062 1.25-3.7656 1.2656-1.3594 3.1875-1.3594 2.1562 0 3.4062 1.4219t1.1875 4.375h-6.4062q0.03125 1.1406 0.60938 1.7812 0.59375 0.625 1.4844 0.625 0.59375 0 1-0.32812 0.42188-0.32812 0.625-1.0625zm0.15625-2.5938q-0.03125-1.1094-0.57812-1.6875t-1.3281-0.57812q-0.84375 0-1.3906 0.60938t-0.53125 1.6562h3.8281zm9.0632-4v2.0312h-1.75v3.9062q0 1.1875 0.046875 1.3906 0.046875 0.1875 0.21875 0.3125 0.1875 0.125 0.4375 0.125 0.35938 0 1.0312-0.25l0.21875 2q-0.89062 0.375-2.0156 0.375-0.70312 0-1.2656-0.23438-0.54688-0.23438-0.8125-0.59375-0.25-0.375-0.34375-1-0.09375-0.45312-0.09375-1.8125v-4.2188h-1.1719v-2.0312h1.1719v-1.9219l2.5781-1.5v3.4219h1.75zm6.9741-3.6875h5.3438q1.5938 0 2.3594 0.14062 0.78125 0.125 1.3906 0.54688 0.625 0.42188 1.0312 1.125 0.40625 0.6875 0.40625 1.5469 0 0.9375-0.5 1.7344-0.5 0.78125-1.375 1.1719 1.2188 0.35938 1.875 1.2188 0.65625 0.84375 0.65625 2 0 0.92188-0.42188 1.7812t-1.1562 1.375-1.7969 0.625q-0.6875 0.078125-3.2656 0.09375h-4.5469v-13.359zm2.7031 2.2344v3.0781h1.7656q1.5781 0 1.9531-0.046875 0.70312-0.078125 1.0938-0.46875 0.40625-0.40625 0.40625-1.0469 0-0.625-0.34375-1-0.34375-0.39062-1.0156-0.48438-0.40625-0.03125-2.3125-0.03125h-1.5469zm0 5.2969v3.5781h2.5q1.4531 0 1.8438-0.078125 0.60938-0.10938 0.98438-0.53125t0.375-1.1406q0-0.59375-0.29688-1.0156-0.28125-0.42188-0.84375-0.60938-0.54688-0.20312-2.3906-0.20312h-2.1719z" fill="#24292e"/>
<path d="m38.399 195.47h96v42.016h-96z" fill="#fff" fill-rule="evenodd"/>
<path d="m38.399 195.47h96v42.016h-96z" fill-rule="evenodd" stroke="#24292e" stroke-linecap="butt" stroke-linejoin="round" stroke-width="2"/>
<path d="m52.663 222.39l5.125-13.359h1.9062l5.4688 13.359h-2.0156l-1.5469-4.0469h-5.5938l-1.4688 4.0469h-1.875zm3.8594-5.4844h4.5312l-1.4062-3.7031q-0.625-1.6875-0.9375-2.7656-0.26562 1.2812-0.71875 2.5469l-1.4688 3.9219zm16.162 1.9375l1.6094 0.21875q-0.26562 1.6562-1.3594 2.6094-1.0781 0.9375-2.6719 0.9375-1.9844 0-3.1875-1.2969t-1.2031-3.7188q0-1.5781 0.51562-2.75t1.5781-1.75q1.0625-0.59375 2.3125-0.59375 1.5781 0 2.5781 0.79688t1.2812 2.2656l-1.5938 0.23438q-0.23438-0.96875-0.8125-1.4531-0.57812-0.5-1.3906-0.5-1.2344 0-2.0156 0.89062t-0.78125 2.8125q0 1.9531 0.75 2.8438 0.75 0.875 1.9531 0.875 0.96875 0 1.6094-0.59375 0.65625-0.59375 0.82812-1.8281zm6.5938 2.0781l0.23438 1.4531q-0.6875 0.14062-1.2344 0.14062-0.89062 0-1.3906-0.28125-0.48438-0.28125-0.6875-0.73438-0.20312-0.46875-0.20312-1.9375v-5.5781h-1.2031v-1.2656h1.2031v-2.3906l1.625-0.98438v3.375h1.6562v1.2656h-1.6562v5.6719q0 0.6875 0.078125 0.89062 0.09375 0.20312 0.28125 0.32812 0.20312 0.10938 0.57812 0.10938 0.26562 0 0.71875-0.0625zm1.6052-10v-1.8906h1.6406v1.8906h-1.6406zm0 11.469v-9.6719h1.6406v9.6719h-1.6406zm3.5354-4.8438q0-2.6875 1.4844-3.9688 1.25-1.0781 3.0469-1.0781 2 0 3.2656 1.3125 1.2656 1.2969 1.2656 3.6094 0 1.8594-0.5625 2.9375-0.5625 1.0625-1.6406 1.6562-1.0625 0.59375-2.3281 0.59375-2.0312 0-3.2812-1.2969-1.25-1.3125-1.25-3.7656zm1.6875 0q0 1.8594 0.79688 2.7969 0.8125 0.92188 2.0469 0.92188 1.2188 0 2.0312-0.92188 0.8125-0.9375 0.8125-2.8438 0-1.7969-0.8125-2.7188t-2.0312-0.92188q-1.2344 0-2.0469 0.92188-0.79688 0.90625-0.79688 2.7656zm9.2976 4.8438v-9.6719h1.4688v1.375q1.0625-1.5938 3.0781-1.5938 0.875 0 1.6094 0.3125t1.0938 0.82812q0.375 0.5 0.51562 1.2031 0.09375 0.45312 0.09375 1.5938v5.9531h-1.6406v-5.8906q0-1-0.20312-1.4844-0.1875-0.5-0.67188-0.79688t-1.1406-0.29688q-1.0469 0-1.8125 0.67188-0.75 0.65625-0.75 2.5156v5.2812h-1.6406zm23.715-1.5781v1.5781h-8.8281q-0.015625-0.59375 0.1875-1.1406 0.34375-0.90625 1.0781-1.7812 0.75-0.875 2.1562-2.0156 2.1719-1.7812 2.9375-2.8281t0.76562-1.9688q0-0.98438-0.70312-1.6406-0.6875-0.67188-1.8125-0.67188-1.1875 0-1.9062 0.71875-0.70312 0.70312-0.70312 1.9531l-1.6875-0.17188q0.17188-1.8906 1.2969-2.875 1.1406-0.98438 3.0312-0.98438 1.9219 0 3.0469 1.0625t1.125 2.6406q0 0.79688-0.32812 1.5781t-1.0938 1.6406q-0.75 0.84375-2.5312 2.3438-1.4688 1.2344-1.8906 1.6875-0.42188 0.4375-0.6875 0.875h6.5469z" fill="#24292e"/>
<path d="m38.399 261.02h96v42.016h-96z" fill="#fff" fill-rule="evenodd"/>
<path d="m38.399 261.02h96v42.016h-96z" fill-rule="evenodd" stroke="#24292e" stroke-linecap="butt" stroke-linejoin="round" stroke-width="2"/>
<path d="m52.663 287.94l5.125-13.359h1.9062l5.4688 13.359h-2.0156l-1.5469-4.0469h-5.5938l-1.4688 4.0469h-1.875zm3.8594-5.4844h4.5312l-1.4062-3.7031q-0.625-1.6875-0.9375-2.7656-0.26562 1.2812-0.71875 2.5469l-1.4688 3.9219zm16.162 1.9375l1.6094 0.21875q-0.26562 1.6562-1.3594 2.6094-1.0781 0.9375-2.6719 0.9375-1.9844 0-3.1875-1.2969t-1.2031-3.7188q0-1.5781 0.51562-2.75t1.5781-1.75q1.0625-0.59375 2.3125-0.59375 1.5781 0 2.5781 0.79688t1.2812 2.2656l-1.5938 0.23438q-0.23438-0.96875-0.8125-1.4531-0.57812-0.5-1.3906-0.5-1.2344 0-2.0156 0.89062t-0.78125 2.8125q0 1.9531 0.75 2.8438 0.75 0.875 1.9531 0.875 0.96875 0 1.6094-0.59375 0.65625-0.59375 0.82812-1.8281zm6.5938 2.0781l0.23438 1.4531q-0.6875 0.14062-1.2344 0.14062-0.89062 0-1.3906-0.28125-0.48438-0.28125-0.6875-0.73438-0.20312-0.46875-0.20312-1.9375v-5.5781h-1.2031v-1.2656h1.2031v-2.3906l1.625-0.98438v3.375h1.6562v1.2656h-1.6562v5.6719q0 0.6875 0.078125 0.89062 0.09375 0.20312 0.28125 0.32812 0.20312 0.10938 0.57812 0.10938 0.26562 0 0.71875-0.0625zm1.6052-10v-1.8906h1.6406v1.8906h-1.6406zm0 11.469v-9.6719h1.6406v9.6719h-1.6406zm3.5354-4.8438q0-2.6875 1.4844-3.9688 1.25-1.0781 3.0469-1.0781 2 0 3.2656 1.3125 1.2656 1.2969 1.2656 3.6094 0 1.8594-0.5625 2.9375-0.5625 1.0625-1.6406 1.6562-1.0625 0.59375-2.3281 0.59375-2.0312 0-3.2812-1.2969-1.25-1.3125-1.25-3.7656zm1.6875 0q0 1.8594 0.79688 2.7969 0.8125 0.92188 2.0469 0.92188 1.2188 0 2.0312-0.92188 0.8125-0.9375 0.8125-2.8438 0-1.7969-0.8125-2.7188t-2.0312-0.92188q-1.2344 0-2.0469 0.92188-0.79688 0.90625-0.79688 2.7656zm9.2976 4.8438v-9.6719h1.4688v1.375q1.0625-1.5938 3.0781-1.5938 0.875 0 1.6094 0.3125t1.0938 0.82812q0.375 0.5 0.51562 1.2031 0.09375 0.45312 0.09375 1.5938v5.9531h-1.6406v-5.8906q0-1-0.20312-1.4844-0.1875-0.5-0.67188-0.79688t-1.1406-0.29688q-1.0469 0-1.8125 0.67188-0.75 0.65625-0.75 2.5156v5.2812h-1.6406zm15.106-3.5312l1.6406-0.21875q0.28125 1.4062 0.95312 2.0156 0.6875 0.60938 1.6562 0.60938 1.1562 0 1.9531-0.79688t0.79688-1.9844q0-1.125-0.73438-1.8594t-1.875-0.73438q-0.46875 0-1.1562 0.17188l0.1875-1.4375q0.15625 0.015625 0.26562 0.015625 1.0469 0 1.875-0.54688 0.84375-0.54688 0.84375-1.6719 0-0.90625-0.60938-1.5t-1.5781-0.59375q-0.95312 0-1.5938 0.60938-0.64062 0.59375-0.8125 1.7969l-1.6406-0.29688q0.29688-1.6406 1.3594-2.5469t2.6562-0.90625q1.0938 0 2 0.46875 0.92188 0.46875 1.4062 1.2812 0.5 0.8125 0.5 1.7188 0 0.85938-0.46875 1.5781-0.46875 0.70312-1.375 1.125 1.1875 0.28125 1.8438 1.1406t0.65625 2.1562q0 1.7344-1.2812 2.9531-1.2656 1.2188-3.2188 1.2188-1.7656 0-2.9219-1.0469t-1.3281-2.7188z" fill="#24292e"/>
<path d="m216 165.14c0-9.7208 7.8803-17.601 17.601-17.601h204.8c4.6681 0 9.145 1.8544 12.446 5.1552 3.3008 3.3008 5.1552 7.7777 5.1552 12.446v70.404c0 9.7208-7.8802 17.601-17.601 17.601h-204.8c-9.7208 0-17.601-7.8803-17.601-17.601z" fill="#f5f5f7" fill-rule="evenodd"/>
<path d="m216 165.14c0-9.7208 7.8803-17.601 17.601-17.601h204.8c4.6681 0 9.145 1.8544 12.446 5.1552 3.3008 3.3008 5.1552 7.7777 5.1552 12.446v70.404c0 9.7208-7.8802 17.601-17.601 17.601h-204.8c-9.7208 0-17.601-7.8803-17.601-17.601z" fill-rule="evenodd" stroke="#e5e7eb" stroke-linecap="butt" stroke-linejoin="round"/>
<path d="m303.22 179.61v-11.094h-3.9531v-2.2656h10.609v2.2656h-3.9531v11.094h-2.7031zm8.9012-6.7188l-2.3281-0.42188q0.40625-1.4062 1.3594-2.0781t2.8438-0.67188q1.7031 0 2.5469 0.40625t1.1719 1.0312q0.34375 0.625 0.34375 2.2812l-0.015625 3q0 1.2656 0.10938 1.875 0.125 0.60938 0.46875 1.2969h-2.5312q-0.10938-0.25-0.25-0.75-0.0625-0.23438-0.09375-0.3125-0.65625 0.64062-1.4062 0.96875-0.73438 0.3125-1.5938 0.3125-1.4844 0-2.3438-0.8125t-0.85938-2.0469q0-0.82812 0.39062-1.4688t1.0938-0.96875q0.70312-0.34375 2.0312-0.60938 1.7969-0.32812 2.4844-0.625v-0.25q0-0.75-0.35938-1.0625t-1.375-0.3125q-0.6875 0-1.0781 0.28125-0.375 0.26562-0.60938 0.9375zm3.4219 2.0781q-0.48438 0.15625-1.5625 0.39062-1.0625 0.21875-1.3906 0.4375-0.5 0.35938-0.5 0.90625 0 0.53125 0.40625 0.9375 0.40625 0.39062 1.0156 0.39062 0.70312 0 1.3281-0.46875 0.46875-0.34375 0.60938-0.84375 0.09375-0.32812 0.09375-1.25v-0.5zm7.5007 4.6406h-2.5625v-9.6719h2.375v1.375q0.60938-0.98438 1.0938-1.2812 0.48438-0.3125 1.1094-0.3125 0.875 0 1.6875 0.48438l-0.79688 2.2344q-0.64062-0.42188-1.2031-0.42188-0.53125 0-0.90625 0.29688t-0.59375 1.0781q-0.20312 0.76562-0.20312 3.2344v2.9844zm4.5728 0.64062l2.9219 0.35938q0.0625 0.5 0.32812 0.6875 0.375 0.28125 1.1562 0.28125 1 0 1.5-0.29688 0.32812-0.20312 0.51562-0.65625 0.10938-0.3125 0.10938-1.1719v-1.4062q-1.1406 1.5625-2.8906 1.5625-1.9531 0-3.0938-1.6562-0.89062-1.2969-0.89062-3.2344 0-2.4375 1.1719-3.7188t2.9062-1.2812q1.7969 0 2.9688 1.5781v-1.3594h2.3906v8.6719q0 1.7188-0.28125 2.5625t-0.79688 1.3281q-0.5 0.48438-1.3594 0.75-0.84375 0.28125-2.1562 0.28125-2.4531 0-3.4844-0.84375t-1.0312-2.125q0-0.14062 0.015625-0.3125zm2.2812-5.6719q0 1.5312 0.59375 2.25t1.4688 0.71875q0.9375 0 1.5781-0.73438 0.65625-0.73438 0.65625-2.1719 0-1.5156-0.625-2.2344-0.60938-0.73438-1.5625-0.73438-0.92188 0-1.5156 0.71875t-0.59375 2.1875zm14.943 1.9531l2.5469 0.42188q-0.48438 1.4062-1.5469 2.1406t-2.6562 0.73438q-2.5156 0-3.7344-1.6562-0.95312-1.3125-0.95312-3.3281 0-2.4062 1.25-3.7656 1.2656-1.3594 3.1875-1.3594 2.1562 0 3.4062 1.4219t1.1875 4.375h-6.4062q0.03125 1.1406 0.60938 1.7812 0.59375 0.625 1.4844 0.625 0.59375 0 1-0.32812 0.42188-0.32812 0.625-1.0625zm0.15625-2.5938q-0.03125-1.1094-0.57812-1.6875t-1.3281-0.57812q-0.84375 0-1.3906 0.60938t-0.53125 1.6562h3.8281zm9.0632-4v2.0312h-1.75v3.9062q0 1.1875 0.046875 1.3906 0.046875 0.1875 0.21875 0.3125 0.1875 0.125 0.4375 0.125 0.35938 0 1.0312-0.25l0.21875 2q-0.89062 0.375-2.0156 0.375-0.70312 0-1.2656-0.23438-0.54688-0.23438-0.8125-0.59375-0.25-0.375-0.34375-1-0.09375-0.45312-0.09375-1.8125v-4.2188h-1.1719v-2.0312h1.1719v-1.9219l2.5781-1.5v3.4219h1.75zm15.521 4.7656l2.6094 0.82812q-0.59375 2.1875-2 3.25-1.3906 1.0625-3.5469 1.0625-2.6562 0-4.375-1.8125-1.7031-1.8281-1.7031-4.9844 0-3.3281 1.7188-5.1719t4.5156-1.8438q2.4531 0 3.9844 1.4375 0.92188 0.85938 1.375 2.4688l-2.6719 0.64062q-0.23438-1.0469-0.98438-1.6406-0.75-0.60938-1.8281-0.60938-1.4844 0-2.4219 1.0781-0.92188 1.0625-0.92188 3.4375 0 2.5312 0.90625 3.6094 0.92188 1.0781 2.375 1.0781 1.0781 0 1.8438-0.67188 0.78125-0.6875 1.125-2.1562z" fill="#24292e"/>
<path d="m231.36 195.47h95.811v42.016h-95.811z" fill="#fff" fill-rule="evenodd"/>
<path d="m231.36 195.47h95.811v42.016h-95.811z" fill-rule="evenodd" stroke="#24292e" stroke-linecap="butt" stroke-linejoin="round" stroke-width="2"/>
<path d="m245.53 222.39l5.125-13.359h1.9062l5.4688 13.359h-2.0156l-1.5469-4.0469h-5.5938l-1.4688 4.0469h-1.875zm3.8594-5.4844h4.5312l-1.4062-3.7031q-0.625-1.6875-0.9375-2.7656-0.26562 1.2812-0.71875 2.5469l-1.4688 3.9219zm16.162 1.9375l1.6094 0.21875q-0.26562 1.6562-1.3594 2.6094-1.0781 0.9375-2.6719 0.9375-1.9844 0-3.1875-1.2969t-1.2031-3.7188q0-1.5781 0.51562-2.75t1.5781-1.75q1.0625-0.59375 2.3125-0.59375 1.5781 0 2.5781 0.79688t1.2812 2.2656l-1.5938 0.23438q-0.23438-0.96875-0.8125-1.4531-0.57812-0.5-1.3906-0.5-1.2344 0-2.0156 0.89062t-0.78125 2.8125q0 1.9531 0.75 2.8438 0.75 0.875 1.9531 0.875 0.96875 0 1.6094-0.59375 0.65625-0.59375 0.82812-1.8281zm6.5938 2.0781l0.23438 1.4531q-0.6875 0.14062-1.2344 0.14062-0.89062 0-1.3906-0.28125-0.48438-0.28125-0.6875-0.73438-0.20312-0.46875-0.20312-1.9375v-5.5781h-1.2031v-1.2656h1.2031v-2.3906l1.625-0.98438v3.375h1.6562v1.2656h-1.6562v5.6719q0 0.6875 0.078125 0.89062 0.09375 0.20312 0.28125 0.32812 0.20312 0.10938 0.57812 0.10938 0.26562 0 0.71875-0.0625zm1.6052-10v-1.8906h1.6406v1.8906h-1.6406zm0 11.469v-9.6719h1.6406v9.6719h-1.6406zm3.5355-4.8438q0-2.6875 1.4844-3.9688 1.25-1.0781 3.0469-1.0781 2 0 3.2656 1.3125 1.2656 1.2969 1.2656 3.6094 0 1.8594-0.5625 2.9375-0.5625 1.0625-1.6406 1.6562-1.0625 0.59375-2.3281 0.59375-2.0312 0-3.2812-1.2969-1.25-1.3125-1.25-3.7656zm1.6875 0q0 1.8594 0.79688 2.7969 0.8125 0.92188 2.0469 0.92188 1.2188 0 2.0312-0.92188 0.8125-0.9375 0.8125-2.8438 0-1.7969-0.8125-2.7188t-2.0312-0.92188q-1.2344 0-2.0469 0.92188-0.79688 0.90625-0.79688 2.7656zm9.2976 4.8438v-9.6719h1.4688v1.375q1.0625-1.5938 3.0781-1.5938 0.875 0 1.6094 0.3125t1.0938 0.82812q0.375 0.5 0.51562 1.2031 0.09375 0.45312 0.09375 1.5938v5.9531h-1.6406v-5.8906q0-1-0.20312-1.4844-0.1875-0.5-0.67188-0.79688t-1.1406-0.29688q-1.0469 0-1.8125 0.67188-0.75 0.65625-0.75 2.5156v5.2812h-1.6406zm20.356 0v-3.2031h-5.7969v-1.5l6.0938-8.6562h1.3438v8.6562h1.7969v1.5h-1.7969v3.2031h-1.6406zm0-4.7031v-6.0156l-4.1875 6.0156h4.1875z" fill="#24292e"/>
<path d="m344.64 195.47h96v42.016h-96z" fill="#fff" fill-rule="evenodd"/>
<path d="m344.64 195.47h96v42.016h-96z" fill-rule="evenodd" stroke="#24292e" stroke-linecap="butt" stroke-linejoin="round" stroke-width="2"/>
<path d="m358.9 222.39l5.125-13.359h1.9062l5.4688 13.359h-2.0156l-1.5469-4.0469h-5.5938l-1.4688 4.0469h-1.875zm3.8594-5.4844h4.5312l-1.4062-3.7031q-0.625-1.6875-0.9375-2.7656-0.26562 1.2812-0.71875 2.5469l-1.4688 3.9219zm16.162 1.9375l1.6094 0.21875q-0.26562 1.6562-1.3594 2.6094-1.0781 0.9375-2.6719 0.9375-1.9844 0-3.1875-1.2969t-1.2031-3.7188q0-1.5781 0.51562-2.75t1.5781-1.75q1.0625-0.59375 2.3125-0.59375 1.5781 0 2.5781 0.79688t1.2812 2.2656l-1.5938 0.23438q-0.23438-0.96875-0.8125-1.4531-0.57812-0.5-1.3906-0.5-1.2344 0-2.0156 0.89062t-0.78125 2.8125q0 1.9531 0.75 2.8438 0.75 0.875 1.9531 0.875 0.96875 0 1.6094-0.59375 0.65625-0.59375 0.82812-1.8281zm6.5938 2.0781l0.23438 1.4531q-0.6875 0.14062-1.2344 0.14062-0.89062 0-1.3906-0.28125-0.48438-0.28125-0.6875-0.73438-0.20312-0.46875-0.20312-1.9375v-5.5781h-1.2031v-1.2656h1.2031v-2.3906l1.625-0.98438v3.375h1.6562v1.2656h-1.6562v5.6719q0 0.6875 0.078125 0.89062 0.09375 0.20312 0.28125 0.32812 0.20312 0.10938 0.57812 0.10938 0.26562 0 0.71875-0.0625zm1.6052-10v-1.8906h1.6406v1.8906h-1.6406zm0 11.469v-9.6719h1.6406v9.6719h-1.6406zm3.5354-4.8438q0-2.6875 1.4844-3.9688 1.25-1.0781 3.0469-1.0781 2 0 3.2656 1.3125 1.2656 1.2969 1.2656 3.6094 0 1.8594-0.5625 2.9375-0.5625 1.0625-1.6406 1.6562-1.0625 0.59375-2.3281 0.59375-2.0312 0-3.2812-1.2969-1.25-1.3125-1.25-3.7656zm1.6875 0q0 1.8594 0.79688 2.7969 0.8125 0.92188 2.0469 0.92188 1.2188 0 2.0312-0.92188 0.8125-0.9375 0.8125-2.8438 0-1.7969-0.8125-2.7188t-2.0312-0.92188q-1.2344 0-2.0469 0.92188-0.79688 0.90625-0.79688 2.7656zm9.2976 4.8438v-9.6719h1.4688v1.375q1.0625-1.5938 3.0781-1.5938 0.875 0 1.6094 0.3125t1.0938 0.82812q0.375 0.5 0.51562 1.2031 0.09375 0.45312 0.09375 1.5938v5.9531h-1.6406v-5.8906q0-1-0.20312-1.4844-0.1875-0.5-0.67188-0.79688t-1.1406-0.29688q-1.0469 0-1.8125 0.67188-0.75 0.65625-0.75 2.5156v5.2812h-1.6406zm15.106-3.5l1.7188-0.14062q0.1875 1.25 0.875 1.8906 0.70312 0.625 1.6875 0.625 1.1875 0 2-0.89062 0.82812-0.89062 0.82812-2.3594 0-1.4062-0.79688-2.2188-0.78125-0.8125-2.0625-0.8125-0.78125 0-1.4219 0.35938t-1 0.9375l-1.5469-0.20312 1.2969-6.8594h6.6406v1.5625h-5.3281l-0.71875 3.5938q1.2031-0.84375 2.5156-0.84375 1.75 0 2.9531 1.2188 1.2031 1.2031 1.2031 3.1094 0 1.8125-1.0469 3.1406-1.2969 1.625-3.5156 1.625-1.8125 0-2.9688-1.0156-1.1562-1.0312-1.3125-2.7188z" fill="#24292e"/>
<path d="m520.8 165.14c0-9.7208 7.8802-17.601 17.601-17.601h94.404c4.6681 0 9.145 1.8544 12.446 5.1552 3.3008 3.3008 5.1552 7.7777 5.1552 12.446v70.404c0 9.7208-7.8802 17.601-17.601 17.601h-94.404c-9.7208 0-17.601-7.8803-17.601-17.601z" fill="#f5f5f7" fill-rule="evenodd"/>
<path d="m520.8 165.14c0-9.7208 7.8802-17.601 17.601-17.601h94.404c4.6681 0 9.145 1.8544 12.446 5.1552 3.3008 3.3008 5.1552 7.7777 5.1552 12.446v70.404c0 9.7208-7.8802 17.601-17.601 17.601h-94.404c-9.7208 0-17.601-7.8803-17.601-17.601z" fill-rule="evenodd" stroke="#e5e7eb" stroke-linecap="butt" stroke-linejoin="round"/>
<path d="m552.82 179.61v-11.094h-3.9531v-2.2656h10.609v2.2656h-3.9531v11.094h-2.7031zm8.9012-6.7188l-2.3281-0.42188q0.40625-1.4062 1.3594-2.0781t2.8438-0.67188q1.7031 0 2.5469 0.40625t1.1719 1.0312q0.34375 0.625 0.34375 2.2812l-0.015625 3q0 1.2656 0.10938 1.875 0.125 0.60938 0.46875 1.2969h-2.5312q-0.10938-0.25-0.25-0.75-0.0625-0.23438-0.09375-0.3125-0.65625 0.64062-1.4062 0.96875-0.73438 0.3125-1.5938 0.3125-1.4844 0-2.3438-0.8125t-0.85938-2.0469q0-0.82812 0.39062-1.4688t1.0938-0.96875q0.70312-0.34375 2.0312-0.60938 1.7969-0.32812 2.4844-0.625v-0.25q0-0.75-0.35938-1.0625t-1.375-0.3125q-0.6875 0-1.0781 0.28125-0.375 0.26562-0.60938 0.9375zm3.4219 2.0781q-0.48438 0.15625-1.5625 0.39062-1.0625 0.21875-1.3906 0.4375-0.5 0.35938-0.5 0.90625 0 0.53125 0.40625 0.9375 0.40625 0.39062 1.0156 0.39062 0.70312 0 1.3281-0.46875 0.46875-0.34375 0.60938-0.84375 0.09375-0.32812 0.09375-1.25v-0.5zm7.5007 4.6406h-2.5625v-9.6719h2.375v1.375q0.60938-0.98438 1.0938-1.2812 0.48438-0.3125 1.1094-0.3125 0.875 0 1.6875 0.48438l-0.79688 2.2344q-0.64062-0.42188-1.2031-0.42188-0.53125 0-0.90625 0.29688t-0.59375 1.0781q-0.20312 0.76562-0.20312 3.2344v2.9844zm4.5728 0.64062l2.9219 0.35938q0.0625 0.5 0.32812 0.6875 0.375 0.28125 1.1562 0.28125 1 0 1.5-0.29688 0.32812-0.20312 0.51562-0.65625 0.10938-0.3125 0.10938-1.1719v-1.4062q-1.1406 1.5625-2.8906 1.5625-1.9531 0-3.0938-1.6562-0.89062-1.2969-0.89062-3.2344 0-2.4375 1.1719-3.7188t2.9062-1.2812q1.7969 0 2.9688 1.5781v-1.3594h2.3906v8.6719q0 1.7188-0.28125 2.5625t-0.79688 1.3281q-0.5 0.48438-1.3594 0.75-0.84375 0.28125-2.1562 0.28125-2.4531 0-3.4844-0.84375t-1.0312-2.125q0-0.14062 0.015625-0.3125zm2.2812-5.6719q0 1.5312 0.59375 2.25t1.4688 0.71875q0.9375 0 1.5781-0.73438 0.65625-0.73438 0.65625-2.1719 0-1.5156-0.625-2.2344-0.60938-0.73438-1.5625-0.73438-0.92188 0-1.5156 0.71875t-0.59375 2.1875zm14.943 1.9531l2.5469 0.42188q-0.48438 1.4062-1.5469 2.1406t-2.6562 0.73438q-2.5156 0-3.7344-1.6562-0.95312-1.3125-0.95312-3.3281 0-2.4062 1.25-3.7656 1.2656-1.3594 3.1875-1.3594 2.1562 0 3.4062 1.4219t1.1875 4.375h-6.4062q0.03125 1.1406 0.60938 1.7812 0.59375 0.625 1.4844 0.625 0.59375 0 1-0.32812 0.42188-0.32812 0.625-1.0625zm0.15625-2.5938q-0.03125-1.1094-0.57812-1.6875t-1.3281-0.57812q-0.84375 0-1.3906 0.60938t-0.53125 1.6562h3.8281zm9.0632-4v2.0312h-1.75v3.9062q0 1.1875 0.046875 1.3906 0.046875 0.1875 0.21875 0.3125 0.1875 0.125 0.4375 0.125 0.35938 0 1.0312-0.25l0.21875 2q-0.89062 0.375-2.0156 0.375-0.70312 0-1.2656-0.23438-0.54688-0.23438-0.8125-0.59375-0.25-0.375-0.34375-1-0.09375-0.45312-0.09375-1.8125v-4.2188h-1.1719v-2.0312h1.1719v-1.9219l2.5781-1.5v3.4219h1.75zm6.9584-3.6875h4.9375q1.6562 0 2.5312 0.26562 1.1875 0.34375 2.0156 1.2344 0.84375 0.875 1.2812 2.1562t0.4375 3.1562q0 1.6406-0.40625 2.8438-0.5 1.4531-1.4375 2.3594-0.70312 0.67188-1.8906 1.0625-0.89062 0.28125-2.3906 0.28125h-5.0781v-13.359zm2.7031 2.2656v8.8438h2.0156q1.125 0 1.625-0.125 0.65625-0.17188 1.0781-0.5625 0.4375-0.39062 0.70312-1.2812 0.28125-0.90625 0.28125-2.4531t-0.28125-2.375q-0.26562-0.82812-0.76562-1.2812-0.48438-0.46875-1.2344-0.64062-0.5625-0.125-2.2188-0.125h-1.2031z" fill="#24292e"/>
<path d="m537.6 195.47h96v42.016h-96z" fill="#fff" fill-rule="evenodd"/>
<path d="m537.6 195.47h96v42.016h-96z" fill-rule="evenodd" stroke="#24292e" stroke-linecap="butt" stroke-linejoin="round" stroke-width="2"/>
<path d="m551.86 222.39l5.125-13.359h1.9062l5.4688 13.359h-2.0156l-1.5469-4.0469h-5.5938l-1.4688 4.0469h-1.875zm3.8594-5.4844h4.5312l-1.4062-3.7031q-0.625-1.6875-0.9375-2.7656-0.26562 1.2812-0.71875 2.5469l-1.4688 3.9219zm16.162 1.9375l1.6094 0.21875q-0.26562 1.6562-1.3594 2.6094-1.0781 0.9375-2.6719 0.9375-1.9844 0-3.1875-1.2969t-1.2031-3.7188q0-1.5781 0.51562-2.75t1.5781-1.75q1.0625-0.59375 2.3125-0.59375 1.5781 0 2.5781 0.79688t1.2812 2.2656l-1.5938 0.23438q-0.23438-0.96875-0.8125-1.4531-0.57812-0.5-1.3906-0.5-1.2344 0-2.0156 0.89062t-0.78125 2.8125q0 1.9531 0.75 2.8438 0.75 0.875 1.9531 0.875 0.96875 0 1.6094-0.59375 0.65625-0.59375 0.82812-1.8281zm6.5938 2.0781l0.23438 1.4531q-0.6875 0.14062-1.2344 0.14062-0.89062 0-1.3906-0.28125-0.48438-0.28125-0.6875-0.73438-0.20312-0.46875-0.20312-1.9375v-5.5781h-1.2031v-1.2656h1.2031v-2.3906l1.625-0.98438v3.375h1.6562v1.2656h-1.6562v5.6719q0 0.6875 0.078125 0.89062 0.09375 0.20312 0.28125 0.32812 0.20312 0.10938 0.57812 0.10938 0.26562 0 0.71875-0.0625zm1.6052-10v-1.8906h1.6406v1.8906h-1.6406zm0 11.469v-9.6719h1.6406v9.6719h-1.6406zm3.5355-4.8438q0-2.6875 1.4844-3.9688 1.25-1.0781 3.0469-1.0781 2 0 3.2656 1.3125 1.2656 1.2969 1.2656 3.6094 0 1.8594-0.5625 2.9375-0.5625 1.0625-1.6406 1.6562-1.0625 0.59375-2.3281 0.59375-2.0312 0-3.2812-1.2969-1.25-1.3125-1.25-3.7656zm1.6875 0q0 1.8594 0.79688 2.7969 0.8125 0.92188 2.0469 0.92188 1.2188 0 2.0312-0.92188 0.8125-0.9375 0.8125-2.8438 0-1.7969-0.8125-2.7188t-2.0312-0.92188q-1.2344 0-2.0469 0.92188-0.79688 0.90625-0.79688 2.7656zm9.2976 4.8438v-9.6719h1.4688v1.375q1.0625-1.5938 3.0781-1.5938 0.875 0 1.6094 0.3125t1.0938 0.82812q0.375 0.5 0.51562 1.2031 0.09375 0.45312 0.09375 1.5938v5.9531h-1.6406v-5.8906q0-1-0.20312-1.4844-0.1875-0.5-0.67188-0.79688t-1.1406-0.29688q-1.0469 0-1.8125 0.67188-0.75 0.65625-0.75 2.5156v5.2812h-1.6406zm23.606-10.078l-1.625 0.125q-0.21875-0.96875-0.625-1.4062-0.65625-0.70312-1.6406-0.70312-0.78125 0-1.375 0.4375-0.76562 0.5625-1.2188 1.6562-0.45312 1.0781-0.46875 3.0781 0.59375-0.89062 1.4531-1.3281t1.7969-0.4375q1.6406 0 2.7812 1.2031 1.1562 1.2031 1.1562 3.1094 0 1.2656-0.54688 2.3438-0.53125 1.0781-1.4844 1.6562-0.9375 0.57812-2.1406 0.57812-2.0625 0-3.3594-1.5-1.2812-1.5156-1.2812-4.9844 0-3.875 1.4219-5.625 1.25-1.5312 3.375-1.5312 1.5625 0 2.5625 0.89062 1.0156 0.875 1.2188 2.4375zm-6.6875 5.75q0 0.84375 0.35938 1.625 0.35938 0.76562 1 1.1719t1.3594 0.40625q1.0312 0 1.7812-0.82812 0.75-0.84375 0.75-2.2812 0-1.3906-0.73438-2.1875t-1.8594-0.79688q-1.1094 0-1.8906 0.79688-0.76562 0.79688-0.76562 2.0938z" fill="#24292e"/>
<path d="m271.2 291.54c0-9.7208 7.8803-17.601 17.601-17.601h94.404c4.6681 0 9.145 1.8544 12.446 5.1552 3.3008 3.3008 5.1552 7.7777 5.1552 12.446v70.404c0 9.7208-7.8803 17.601-17.601 17.601h-94.404c-9.7208 0-17.601-7.8802-17.601-17.601z" fill="#f5f5f7" fill-rule="evenodd"/>
<path d="m271.2 291.54c0-9.7208 7.8803-17.601 17.601-17.601h94.404c4.6681 0 9.145 1.8544 12.446 5.1552 3.3008 3.3008 5.1552 7.7777 5.1552 12.446v70.404c0 9.7208-7.8803 17.601-17.601 17.601h-94.404c-9.7208 0-17.601-7.8802-17.601-17.601z" fill-rule="evenodd" stroke="#e5e7eb" stroke-linecap="butt" stroke-linejoin="round"/>
<path d="m303.73 306.01v-11.094h-3.9531v-2.2656h10.609v2.2656h-3.9531v11.094h-2.7031zm8.9012-6.7188l-2.3281-0.42188q0.40625-1.4062 1.3594-2.0781t2.8438-0.67188q1.7031 0 2.5469 0.40625t1.1719 1.0312q0.34375 0.625 0.34375 2.2812l-0.015625 3q0 1.2656 0.10938 1.875 0.125 0.60938 0.46875 1.2969h-2.5312q-0.10938-0.25-0.25-0.75-0.0625-0.23438-0.09375-0.3125-0.65625 0.64062-1.4062 0.96875-0.73438 0.3125-1.5938 0.3125-1.4844 0-2.3438-0.8125t-0.85938-2.0469q0-0.82812 0.39062-1.4688t1.0938-0.96875q0.70312-0.34375 2.0312-0.60938 1.7969-0.32812 2.4844-0.625v-0.25q0-0.75-0.35938-1.0625t-1.375-0.3125q-0.6875 0-1.0781 0.28125-0.375 0.26562-0.60938 0.9375zm3.4219 2.0781q-0.48438 0.15625-1.5625 0.39062-1.0625 0.21875-1.3906 0.4375-0.5 0.35938-0.5 0.90625 0 0.53125 0.40625 0.9375 0.40625 0.39062 1.0156 0.39062 0.70312 0 1.3281-0.46875 0.46875-0.34375 0.60938-0.84375 0.09375-0.32812 0.09375-1.25v-0.5zm7.5007 4.6406h-2.5625v-9.6719h2.375v1.375q0.60938-0.98438 1.0938-1.2812 0.48438-0.3125 1.1094-0.3125 0.875 0 1.6875 0.48438l-0.79688 2.2344q-0.64062-0.42188-1.2031-0.42188-0.53125 0-0.90625 0.29688t-0.59375 1.0781q-0.20312 0.76562-0.20312 3.2344v2.9844zm4.5728 0.64062l2.9219 0.35938q0.0625 0.5 0.32812 0.6875 0.375 0.28125 1.1562 0.28125 1 0 1.5-0.29688 0.32812-0.20312 0.51562-0.65625 0.10938-0.3125 0.10938-1.1719v-1.4062q-1.1406 1.5625-2.8906 1.5625-1.9531 0-3.0938-1.6562-0.89062-1.2969-0.89062-3.2344 0-2.4375 1.1719-3.7188t2.9062-1.2812q1.7969 0 2.9688 1.5781v-1.3594h2.3906v8.6719q0 1.7188-0.28125 2.5625t-0.79688 1.3281q-0.5 0.48438-1.3594 0.75-0.84375 0.28125-2.1562 0.28125-2.4531 0-3.4844-0.84375t-1.0312-2.125q0-0.14062 0.015625-0.3125zm2.2812-5.6719q0 1.5312 0.59375 2.25t1.4688 0.71875q0.9375 0 1.5781-0.73438 0.65625-0.73438 0.65625-2.1719 0-1.5156-0.625-2.2344-0.60938-0.73438-1.5625-0.73438-0.92188 0-1.5156 0.71875t-0.59375 2.1875zm14.943 1.9531l2.5469 0.42188q-0.48438 1.4062-1.5469 2.1406t-2.6562 0.73438q-2.5156 0-3.7344-1.6562-0.95312-1.3125-0.95312-3.3281 0-2.4062 1.25-3.7656 1.2656-1.3594 3.1875-1.3594 2.1562 0 3.4062 1.4219t1.1875 4.375h-6.4062q0.03125 1.1406 0.60938 1.7812 0.59375 0.625 1.4844 0.625 0.59375 0 1-0.32812 0.42188-0.32812 0.625-1.0625zm0.15625-2.5938q-0.03125-1.1094-0.57812-1.6875t-1.3281-0.57812q-0.84375 0-1.3906 0.60938t-0.53125 1.6562h3.8281zm9.0632-4v2.0312h-1.75v3.9062q0 1.1875 0.046875 1.3906 0.046875 0.1875 0.21875 0.3125 0.1875 0.125 0.4375 0.125 0.35938 0 1.0312-0.25l0.21875 2q-0.89062 0.375-2.0156 0.375-0.70312 0-1.2656-0.23438-0.54688-0.23438-0.8125-0.59375-0.25-0.375-0.34375-1-0.09375-0.45312-0.09375-1.8125v-4.2188h-1.1719v-2.0312h1.1719v-1.9219l2.5781-1.5v3.4219h1.75zm6.9741 9.6719v-13.359h9.9062v2.2656h-7.2188v2.9531h6.7188v2.25h-6.7188v3.6406h7.4688v2.25h-10.156z" fill="#24292e"/>
<path d="m288 322.71h96v42.016h-96z" fill="#fff" fill-rule="evenodd"/>
<path d="m288 322.71h96v42.016h-96z" fill-rule="evenodd" stroke="#24292e" stroke-linecap="butt" stroke-linejoin="round" stroke-width="2"/>
<path d="m302.26 349.63l5.125-13.359h1.9062l5.4688 13.359h-2.0156l-1.5469-4.0469h-5.5938l-1.4688 4.0469h-1.875zm3.8594-5.4844h4.5312l-1.4062-3.7031q-0.625-1.6875-0.9375-2.7656-0.26562 1.2812-0.71875 2.5469l-1.4688 3.9219zm16.162 1.9375l1.6094 0.21875q-0.26562 1.6562-1.3594 2.6094-1.0781 0.9375-2.6719 0.9375-1.9844 0-3.1875-1.2969t-1.2031-3.7188q0-1.5781 0.51562-2.75t1.5781-1.75q1.0625-0.59375 2.3125-0.59375 1.5781 0 2.5781 0.79688t1.2812 2.2656l-1.5938 0.23438q-0.23438-0.96875-0.8125-1.4531-0.57812-0.5-1.3906-0.5-1.2344 0-2.0156 0.89062t-0.78125 2.8125q0 1.9531 0.75 2.8438 0.75 0.875 1.9531 0.875 0.96875 0 1.6094-0.59375 0.65625-0.59375 0.82812-1.8281zm6.5938 2.0781l0.23438 1.4531q-0.6875 0.14062-1.2344 0.14062-0.89062 0-1.3906-0.28125-0.48438-0.28125-0.6875-0.73438-0.20312-0.46875-0.20312-1.9375v-5.5781h-1.2031v-1.2656h1.2031v-2.3906l1.625-0.98438v3.375h1.6562v1.2656h-1.6562v5.6719q0 0.6875 0.078125 0.89062 0.09375 0.20312 0.28125 0.32812 0.20312 0.10938 0.57812 0.10938 0.26562 0 0.71875-0.0625zm1.6052-10v-1.8906h1.6406v1.8906h-1.6406zm0 11.469v-9.6719h1.6406v9.6719h-1.6406zm3.5354-4.8438q0-2.6875 1.4844-3.9688 1.25-1.0781 3.0469-1.0781 2 0 3.2656 1.3125 1.2656 1.2969 1.2656 3.6094 0 1.8594-0.5625 2.9375-0.5625 1.0625-1.6406 1.6562-1.0625 0.59375-2.3281 0.59375-2.0312 0-3.2812-1.2969-1.25-1.3125-1.25-3.7656zm1.6875 0q0 1.8594 0.79688 2.7969 0.8125 0.92188 2.0469 0.92188 1.2188 0 2.0312-0.92188 0.8125-0.9375 0.8125-2.8438 0-1.7969-0.8125-2.7188t-2.0312-0.92188q-1.2344 0-2.0469 0.92188-0.79688 0.90625-0.79688 2.7656zm9.2976 4.8438v-9.6719h1.4688v1.375q1.0625-1.5938 3.0781-1.5938 0.875 0 1.6094 0.3125t1.0938 0.82812q0.375 0.5 0.51562 1.2031 0.09375 0.45312 0.09375 1.5938v5.9531h-1.6406v-5.8906q0-1-0.20312-1.4844-0.1875-0.5-0.67188-0.79688t-1.1406-0.29688q-1.0469 0-1.8125 0.67188-0.75 0.65625-0.75 2.5156v5.2812h-1.6406zm15.215-11.609v-1.5781h8.6406v1.2812q-1.2812 1.3594-2.5312 3.6094t-1.9375 4.625q-0.48438 1.6719-0.625 3.6719h-1.6875q0.03125-1.5781 0.625-3.8125t1.6875-4.2969q1.1094-2.0781 2.3594-3.5h-6.5312z" fill="#24292e"/>
<path d="m86.399 237.49v23.528" fill="#000" fill-opacity="0" fill-rule="evenodd"/>
<path d="m86.399 237.49v11.528" fill-rule="evenodd" stroke="#000" stroke-linecap="butt" stroke-linejoin="round" stroke-width="2"/>
<path d="m83.095 249.01l3.3035 9.0762 3.3035-9.0762z" fill="#000" fill-rule="evenodd" stroke="#000" stroke-linecap="butt" stroke-width="2"/>
<path d="m288 92.181h-8.7244v103.28" fill="#000" fill-opacity="0" fill-rule="evenodd"/>
<path d="m288 92.181h-8.7244v91.276" fill-rule="evenodd" stroke="#24292e" stroke-linecap="butt" stroke-linejoin="round" stroke-width="2"/>
<path d="m275.97 183.46l3.3035 9.0762 3.3034-9.0762z" fill="#24292e" fill-rule="evenodd" stroke="#24292e" stroke-linecap="butt" stroke-width="2"/>
<path d="m384 92.181h8.6299v103.28" fill="#000" fill-opacity="0" fill-rule="evenodd"/>
<path d="m384 92.181h8.6299v91.276" fill-rule="evenodd" stroke="#24292e" stroke-linecap="butt" stroke-linejoin="round" stroke-width="2"/>
<path d="m389.33 183.46l3.3035 9.0762 3.3035-9.0762z" fill="#24292e" fill-rule="evenodd" stroke="#24292e" stroke-linecap="butt" stroke-width="2"/>
<path d="m384 92.181h102v124.28h51.606" fill="#000" fill-opacity="0" fill-rule="evenodd"/>
<path d="m384 92.181h102v124.28h39.606" fill-rule="evenodd" stroke="#24292e" stroke-linecap="butt" stroke-linejoin="round" stroke-width="2"/>
<path d="m525.61 219.77l9.0762-3.3035-9.0762-3.3035z" fill="#24292e" fill-rule="evenodd" stroke="#24292e" stroke-linecap="butt" stroke-width="2"/>
<path d="m288 92.181h-106v124.28h-47.606" fill="#000" fill-opacity="0" fill-rule="evenodd"/>
<path d="m288 92.181h-106v124.28h-35.606" fill-rule="evenodd" stroke="#24292e" stroke-linecap="butt" stroke-linejoin="round" stroke-width="2"/>
<path d="m146.39 213.16l-9.0762 3.3035 9.0762 3.3035z" fill="#24292e" fill-rule="evenodd" stroke="#24292e" stroke-linecap="butt" stroke-width="2"/>
<path d="m410.4 418.86c0-9.7208 7.8802-17.601 17.601-17.601h204.8c4.6681 0 9.145 1.8544 12.446 5.1552 3.3008 3.3008 5.1552 7.7777 5.1552 12.446v70.404c0 9.7208-7.8802 17.601-17.601 17.601h-204.8c-9.7208 0-17.601-7.8803-17.601-17.601z" fill="#f5f5f7" fill-rule="evenodd"/>
<path d="m410.4 418.86c0-9.7208 7.8802-17.601 17.601-17.601h204.8c4.6681 0 9.145 1.8544 12.446 5.1552 3.3008 3.3008 5.1552 7.7777 5.1552 12.446v70.404c0 9.7208-7.8802 17.601-17.601 17.601h-204.8c-9.7208 0-17.601-7.8803-17.601-17.601z" fill-rule="evenodd" stroke="#e5e7eb" stroke-linecap="butt" stroke-linejoin="round"/>
<path d="m497.1 433.34v-11.094h-3.9531v-2.2656h10.609v2.2656h-3.9531v11.094h-2.7031zm8.9012-6.7188l-2.3281-0.42188q0.40625-1.4062 1.3594-2.0781t2.8438-0.67188q1.7031 0 2.5469 0.40625t1.1719 1.0312q0.34375 0.625 0.34375 2.2812l-0.015625 3q0 1.2656 0.10941 1.875 0.125 0.60938 0.46875 1.2969h-2.5313q-0.10938-0.25-0.25-0.75-0.0625-0.23438-0.09375-0.3125-0.65625 0.64062-1.4062 0.96875-0.73438 0.3125-1.5938 0.3125-1.4844 0-2.3438-0.8125t-0.85938-2.0469q0-0.82812 0.39062-1.4688t1.0938-0.96875q0.70312-0.34375 2.0312-0.60938 1.7969-0.32812 2.4844-0.625v-0.25q0-0.75-0.35938-1.0625t-1.375-0.3125q-0.6875 0-1.0781 0.28125-0.375 0.26562-0.60938 0.9375zm3.4219 2.0781q-0.48438 0.15625-1.5625 0.39062-1.0625 0.21875-1.3906 0.4375-0.5 0.35938-0.5 0.90625 0 0.53125 0.40625 0.9375 0.40625 0.39062 1.0156 0.39062 0.70312 0 1.3281-0.46875 0.46875-0.34375 0.60938-0.84375 0.09375-0.32812 0.09375-1.25v-0.5zm7.5007 4.6406h-2.5625v-9.6719h2.375v1.375q0.60938-0.98438 1.0938-1.2812 0.48438-0.3125 1.1094-0.3125 0.875 0 1.6875 0.48438l-0.79688 2.2344q-0.64062-0.42188-1.2031-0.42188-0.53125 0-0.90625 0.29688t-0.59375 1.0781q-0.20312 0.76562-0.20312 3.2344v2.9844zm4.5728 0.64062l2.9219 0.35938q0.0625 0.5 0.32812 0.6875 0.375 0.28125 1.1562 0.28125 1 0 1.5-0.29688 0.32812-0.20312 0.51562-0.65625 0.10938-0.3125 0.10938-1.1719v-1.4062q-1.1406 1.5625-2.8906 1.5625-1.9531 0-3.0938-1.6562-0.89062-1.2969-0.89062-3.2344 0-2.4375 1.1719-3.7188t2.9062-1.2812q1.7969 0 2.9688 1.5781v-1.3594h2.3906v8.6719q0 1.7188-0.28125 2.5625t-0.79688 1.3281q-0.5 0.48438-1.3594 0.75-0.84375 0.28125-2.1562 0.28125-2.4531 0-3.4844-0.84375t-1.0312-2.125q0-0.14062 0.015625-0.3125zm2.2812-5.6719q0 1.5312 0.59375 2.25t1.4688 0.71875q0.9375 0 1.5781-0.73438 0.65625-0.73438 0.65625-2.1719 0-1.5156-0.625-2.2344-0.60938-0.73438-1.5625-0.73438-0.92188 0-1.5156 0.71875t-0.59375 2.1875zm14.943 1.9531l2.5469 0.42188q-0.48438 1.4062-1.5469 2.1406t-2.6562 0.73438q-2.5156 0-3.7344-1.6562-0.95312-1.3125-0.95312-3.3281 0-2.4062 1.25-3.7656 1.2656-1.3594 3.1875-1.3594 2.1562 0 3.4062 1.4219t1.1875 4.375h-6.4062q0.03125 1.1406 0.60938 1.7812 0.59375 0.625 1.4844 0.625 0.59375 0 1-0.32812 0.42188-0.32812 0.625-1.0625zm0.15625-2.5938q-0.03125-1.1094-0.57812-1.6875t-1.3281-0.57812q-0.84375 0-1.3906 0.60938t-0.53125 1.6562h3.8281zm9.0632-4v2.0312h-1.75v3.9062q0 1.1875 0.046875 1.3906 0.046875 0.1875 0.21875 0.3125 0.1875 0.125 0.4375 0.125 0.35938 0 1.0312-0.25l0.21875 2q-0.89062 0.375-2.0156 0.375-0.70312 0-1.2656-0.23438-0.54688-0.23438-0.8125-0.59375-0.25-0.375-0.34375-1-0.09375-0.45312-0.09375-1.8125v-4.2188h-1.1719v-2.0312h1.1719v-1.9219l2.5781-1.5v3.4219h1.75zm13.177 4.7656v-2.25h5.8125v5.3125q-0.84375 0.82812-2.4531 1.4531t-3.25 0.625q-2.0938 0-3.6562-0.875-1.5625-0.89062-2.3438-2.5156-0.78125-1.6406-0.78125-3.5625 0-2.0938 0.875-3.7031 0.875-1.625 2.5625-2.5 1.2812-0.65625 3.2031-0.65625 2.4844 0 3.875 1.0469 1.4062 1.0312 1.7969 2.875l-2.6719 0.5q-0.28125-0.98438-1.0625-1.5469-0.78125-0.57812-1.9375-0.57812-1.7812 0-2.8281 1.125-1.0312 1.125-1.0312 3.3281 0 2.375 1.0469 3.5625 1.0625 1.1875 2.7812 1.1875 0.84375 0 1.6875-0.32812 0.85938-0.32812 1.4688-0.8125v-1.6875h-3.0938z" fill="#24292e"/>
<path d="m425.77 449.19h95.811v42.016h-95.811z" fill="#fff" fill-rule="evenodd"/>
<path d="m425.77 449.19h95.811v42.016h-95.811z" fill-rule="evenodd" stroke="#24292e" stroke-linecap="butt" stroke-linejoin="round" stroke-width="2"/>
<path d="m439.94 476.11l5.125-13.359h1.9062l5.4688 13.359h-2.0156l-1.5469-4.0469h-5.5938l-1.4688 4.0469h-1.875zm3.8594-5.4844h4.5312l-1.4062-3.7031q-0.625-1.6875-0.9375-2.7656-0.26562 1.2812-0.71875 2.5469l-1.4688 3.9219zm16.162 1.9375l1.6094 0.21875q-0.26562 1.6562-1.3594 2.6094-1.0781 0.9375-2.6719 0.9375-1.9844 0-3.1875-1.2969t-1.2031-3.7188q0-1.5781 0.51562-2.75t1.5781-1.75q1.0625-0.59375 2.3125-0.59375 1.5781 0 2.5781 0.79688t1.2812 2.2656l-1.5938 0.23438q-0.23438-0.96875-0.8125-1.4531-0.57812-0.5-1.3906-0.5-1.2344 0-2.0156 0.89062t-0.78125 2.8125q0 1.9531 0.75 2.8438 0.75 0.875 1.9531 0.875 0.96875 0 1.6094-0.59375 0.65625-0.59375 0.82812-1.8281zm6.5938 2.0781l0.23438 1.4531q-0.6875 0.14062-1.2344 0.14062-0.89062 0-1.3906-0.28125-0.48438-0.28125-0.6875-0.73438-0.20312-0.46875-0.20312-1.9375v-5.5781h-1.2031v-1.2656h1.2031v-2.3906l1.625-0.98438v3.375h1.6562v1.2656h-1.6562v5.6719q0 0.6875 0.078125 0.89062 0.09375 0.20312 0.28125 0.32812 0.20312 0.10938 0.57812 0.10938 0.26562 0 0.71875-0.0625zm1.6052-10v-1.8906h1.6406v1.8906h-1.6406zm0 11.469v-9.6719h1.6406v9.6719h-1.6406zm3.5354-4.8438q0-2.6875 1.4844-3.9688 1.25-1.0781 3.0469-1.0781 2 0 3.2656 1.3125 1.2656 1.2969 1.2656 3.6094 0 1.8594-0.5625 2.9375-0.5625 1.0625-1.6406 1.6562-1.0625 0.59375-2.3281 0.59375-2.0312 0-3.2812-1.2969-1.25-1.3125-1.25-3.7656zm1.6875 0q0 1.8594 0.79688 2.7969 0.8125 0.92188 2.0469 0.92188 1.2188 0 2.0312-0.92188 0.8125-0.9375 0.8125-2.8438 0-1.7969-0.8125-2.7188t-2.0312-0.92188q-1.2344 0-2.0469 0.92188-0.79688 0.90625-0.79688 2.7656zm9.2976 4.8438v-9.6719h1.4688v1.375q1.0625-1.5938 3.0781-1.5938 0.875 0 1.6094 0.3125t1.0938 0.82812q0.375 0.5 0.51562 1.2031 0.09375 0.45312 0.09375 1.5938v5.9531h-1.6406v-5.8906q0-1-0.20312-1.4844-0.1875-0.5-0.67188-0.79688t-1.1406-0.29688q-1.0469 0-1.8125 0.67188-0.75 0.65625-0.75 2.5156v5.2812h-1.6406zm15.34-3.0938l1.5781-0.14062q0.20312 1.1094 0.76562 1.6094t1.4531 0.5q0.75 0 1.3125-0.34375 0.57812-0.34375 0.9375-0.92188 0.375-0.57812 0.60938-1.5625 0.25-0.98438 0.25-2 0-0.10938 0-0.32812-0.5 0.78125-1.3594 1.2656-0.84375 0.48438-1.8281 0.48438-1.6719 0-2.8125-1.2031t-1.1406-3.1719q0-2.0312 1.1875-3.2656 1.2031-1.2344 3-1.2344 1.3125 0 2.3906 0.70312t1.6406 2 0.5625 3.75q0 2.5625-0.5625 4.0781t-1.6562 2.3125-2.5781 0.79688q-1.5625 0-2.5625-0.875-0.98438-0.875-1.1875-2.4531zm6.7188-5.8906q0-1.4062-0.75-2.2344t-1.8125-0.82812q-1.0938 0-1.9062 0.89062t-0.8125 2.3125q0 1.2812 0.76562 2.0781 0.78125 0.79688 1.9062 0.79688 1.1406 0 1.875-0.79688t0.73438-2.2188z" fill="#24292e"/>
<path d="m532.36 449.19h102.68v42.016h-102.68z" fill="#fff" fill-rule="evenodd"/>
<path d="m532.36 449.19h102.68v42.016h-102.68z" fill-rule="evenodd" stroke="#24292e" stroke-linecap="butt" stroke-linejoin="round" stroke-width="2"/>
<path d="m544.78 476.11l5.125-13.359h1.9062l5.4688 13.359h-2.0156l-1.5469-4.0469h-5.5938l-1.4688 4.0469h-1.875zm3.8594-5.4844h4.5312l-1.4062-3.7031q-0.625-1.6875-0.9375-2.7656-0.26562 1.2812-0.71875 2.5469l-1.4688 3.9219zm16.162 1.9375l1.6094 0.21875q-0.26562 1.6562-1.3594 2.6094-1.0781 0.9375-2.6719 0.9375-1.9844 0-3.1875-1.2969t-1.2031-3.7188q0-1.5781 0.51562-2.75t1.5781-1.75q1.0625-0.59375 2.3125-0.59375 1.5781 0 2.5781 0.79688t1.2812 2.2656l-1.5938 0.23438q-0.23438-0.96875-0.8125-1.4531-0.57812-0.5-1.3906-0.5-1.2344 0-2.0156 0.89062t-0.78125 2.8125q0 1.9531 0.75 2.8438 0.75 0.875 1.9531 0.875 0.96875 0 1.6094-0.59375 0.65625-0.59375 0.82812-1.8281zm6.5938 2.0781l0.23438 1.4531q-0.6875 0.14062-1.2344 0.14062-0.89062 0-1.3906-0.28125-0.48438-0.28125-0.6875-0.73438-0.20312-0.46875-0.20312-1.9375v-5.5781h-1.2031v-1.2656h1.2031v-2.3906l1.625-0.98438v3.375h1.6562v1.2656h-1.6562v5.6719q0 0.6875 0.078125 0.89062 0.09375 0.20312 0.28125 0.32812 0.20312 0.10938 0.57812 0.10938 0.26562 0 0.71875-0.0625zm1.6052-10v-1.8906h1.6406v1.8906h-1.6406zm0 11.469v-9.6719h1.6406v9.6719h-1.6406zm3.5354-4.8438q0-2.6875 1.4844-3.9688 1.25-1.0781 3.0469-1.0781 2 0 3.2656 1.3125 1.2656 1.2969 1.2656 3.6094 0 1.8594-0.5625 2.9375-0.5625 1.0625-1.6406 1.6562-1.0625 0.59375-2.3281 0.59375-2.0312 0-3.2812-1.2969-1.25-1.3125-1.25-3.7656zm1.6875 0q0 1.8594 0.79688 2.7969 0.8125 0.92188 2.0469 0.92188 1.2188 0 2.0312-0.92188 0.8125-0.9375 0.8125-2.8438 0-1.7969-0.8125-2.7188t-2.0312-0.92188q-1.2344 0-2.0469 0.92188-0.79688 0.90625-0.79688 2.7656zm9.2976 4.8438v-9.6719h1.4688v1.375q1.0625-1.5938 3.0781-1.5938 0.875 0 1.6094 0.3125t1.0938 0.82812q0.375 0.5 0.51562 1.2031 0.09375 0.45312 0.09375 1.5938v5.9531h-1.6406v-5.8906q0-1-0.20312-1.4844-0.1875-0.5-0.67188-0.79688t-1.1406-0.29688q-1.0469 0-1.8125 0.67188-0.75 0.65625-0.75 2.5156v5.2812h-1.6406zm21.278 0h-1.6406v-10.453q-0.59375 0.5625-1.5625 1.1406-0.95312 0.5625-1.7188 0.84375v-1.5938q1.375-0.64062 2.4062-1.5625t1.4531-1.7812h1.0625v13.406zm4.2039-6.5938q0-2.3594 0.48438-3.7969 0.48438-1.4531 1.4375-2.2344 0.96875-0.78125 2.4219-0.78125 1.0781 0 1.8906 0.4375 0.8125 0.42188 1.3281 1.25 0.53125 0.8125 0.82812 1.9844 0.3125 1.1562 0.3125 3.1406 0 2.3594-0.48438 3.8125-0.48438 1.4375-1.4531 2.2344-0.95312 0.78125-2.4219 0.78125-1.9219 0-3.0312-1.3906-1.3125-1.6719-1.3125-5.4375zm1.6719 0q0 3.2969 0.76562 4.3906 0.78125 1.0781 1.9062 1.0781 1.1406 0 1.9062-1.0938t0.76562-4.375q0-3.2969-0.76562-4.375t-1.9219-1.0781q-1.125 0-1.7969 0.95312-0.85938 1.2188-0.85938 4.5z" fill="#24292e"/>
<path d="m118.04 418.86c0-9.7208 7.8803-17.601 17.601-17.601h94.404c4.6681 0 9.145 1.8544 12.446 5.1552 3.3008 3.3008 5.1552 7.7777 5.1552 12.446v70.404c0 9.7208-7.8803 17.601-17.601 17.601h-94.404c-9.7208 0-17.601-7.8803-17.601-17.601z" fill="#f5f5f7" fill-rule="evenodd"/>
<path d="m118.04 418.86c0-9.7208 7.8803-17.601 17.601-17.601h94.404c4.6681 0 9.145 1.8544 12.446 5.1552 3.3008 3.3008 5.1552 7.7777 5.1552 12.446v70.404c0 9.7208-7.8803 17.601-17.601 17.601h-94.404c-9.7208 0-17.601-7.8803-17.601-17.601z" fill-rule="evenodd" stroke="#e5e7eb" stroke-linecap="butt" stroke-linejoin="round"/>
<path d="m151.09 433.34v-11.094h-3.9531v-2.2656h10.609v2.2656h-3.9531v11.094h-2.7031zm8.9012-6.7188l-2.3281-0.42188q0.40625-1.4062 1.3594-2.0781t2.8438-0.67188q1.7031 0 2.5469 0.40625t1.1719 1.0312q0.34375 0.625 0.34375 2.2812l-0.015625 3q0 1.2656 0.10938 1.875 0.125 0.60938 0.46875 1.2969h-2.5312q-0.10938-0.25-0.25-0.75-0.0625-0.23438-0.09375-0.3125-0.65625 0.64062-1.4062 0.96875-0.73438 0.3125-1.5938 0.3125-1.4844 0-2.3438-0.8125t-0.85938-2.0469q0-0.82812 0.39062-1.4688t1.0938-0.96875q0.70312-0.34375 2.0312-0.60938 1.7969-0.32812 2.4844-0.625v-0.25q0-0.75-0.35938-1.0625t-1.375-0.3125q-0.6875 0-1.0781 0.28125-0.375 0.26562-0.60938 0.9375zm3.4219 2.0781q-0.48438 0.15625-1.5625 0.39062-1.0625 0.21875-1.3906 0.4375-0.5 0.35938-0.5 0.90625 0 0.53125 0.40625 0.9375 0.40625 0.39062 1.0156 0.39062 0.70312 0 1.3281-0.46875 0.46875-0.34375 0.60938-0.84375 0.09375-0.32812 0.09375-1.25v-0.5zm7.5007 4.6406h-2.5625v-9.6719h2.375v1.375q0.60938-0.98438 1.0938-1.2812 0.48438-0.3125 1.1094-0.3125 0.875 0 1.6875 0.48438l-0.79688 2.2344q-0.64062-0.42188-1.2031-0.42188-0.53125 0-0.90625 0.29688t-0.59375 1.0781q-0.20312 0.76562-0.20312 3.2344v2.9844zm4.5728 0.64062l2.9219 0.35938q0.0625 0.5 0.32812 0.6875 0.375 0.28125 1.1562 0.28125 1 0 1.5-0.29688 0.32812-0.20312 0.51562-0.65625 0.10938-0.3125 0.10938-1.1719v-1.4062q-1.1406 1.5625-2.8906 1.5625-1.9531 0-3.0938-1.6562-0.89062-1.2969-0.89062-3.2344 0-2.4375 1.1719-3.7188t2.9062-1.2812q1.7969 0 2.9688 1.5781v-1.3594h2.3906v8.6719q0 1.7188-0.28125 2.5625t-0.79688 1.3281q-0.5 0.48438-1.3594 0.75-0.84375 0.28125-2.1562 0.28125-2.4531 0-3.4844-0.84375t-1.0312-2.125q0-0.14062 0.015625-0.3125zm2.2812-5.6719q0 1.5312 0.59375 2.25t1.4688 0.71875q0.9375 0 1.5781-0.73438 0.65625-0.73438 0.65625-2.1719 0-1.5156-0.625-2.2344-0.60938-0.73438-1.5625-0.73438-0.92188 0-1.5156 0.71875t-0.59375 2.1875zm14.943 1.9531l2.5469 0.42188q-0.48438 1.4062-1.5469 2.1406t-2.6562 0.73438q-2.5156 0-3.7344-1.6562-0.95312-1.3125-0.95312-3.3281 0-2.4062 1.25-3.7656 1.2656-1.3594 3.1875-1.3594 2.1562 0 3.4062 1.4219t1.1875 4.375h-6.4062q0.03125 1.1406 0.60938 1.7812 0.59375 0.625 1.4844 0.625 0.59375 0 1-0.32812 0.42188-0.32812 0.625-1.0625zm0.15625-2.5938q-0.03125-1.1094-0.57812-1.6875t-1.3281-0.57812q-0.84375 0-1.3906 0.60938t-0.53125 1.6562h3.8281zm9.0632-4v2.0312h-1.75v3.9062q0 1.1875 0.046875 1.3906 0.046875 0.1875 0.21875 0.3125 0.1875 0.125 0.4375 0.125 0.35938 0 1.0312-0.25l0.21875 2q-0.89062 0.375-2.0156 0.375-0.70312 0-1.2656-0.23438-0.54688-0.23438-0.8125-0.59375-0.25-0.375-0.34375-1-0.09375-0.45312-0.09375-1.8125v-4.2188h-1.1719v-2.0312h1.1719v-1.9219l2.5781-1.5v3.4219h1.75zm6.9897 9.6719v-13.359h9.1562v2.2656h-6.4531v3.1562h5.5625v2.2656h-5.5625v5.6719h-2.7031z" fill="#24292e"/>
<path d="m134.84 450.03h96v42.016h-96z" fill="#fff" fill-rule="evenodd"/>
<path d="m134.84 450.03h96v42.016h-96z" fill-rule="evenodd" stroke="#24292e" stroke-linecap="butt" stroke-linejoin="round" stroke-width="2"/>
<path d="m149.1 476.95l5.125-13.359h1.9062l5.4688 13.359h-2.0156l-1.5469-4.0469h-5.5938l-1.4688 4.0469h-1.875zm3.8594-5.4844h4.5312l-1.4062-3.7031q-0.625-1.6875-0.9375-2.7656-0.26562 1.2812-0.71875 2.5469l-1.4688 3.9219zm16.162 1.9375l1.6094 0.21875q-0.26562 1.6562-1.3594 2.6094-1.0781 0.9375-2.6719 0.9375-1.9844 0-3.1875-1.2969t-1.2031-3.7188q0-1.5781 0.51562-2.75t1.5781-1.75q1.0625-0.59375 2.3125-0.59375 1.5781 0 2.5781 0.79688t1.2812 2.2656l-1.5938 0.23438q-0.23438-0.96875-0.8125-1.4531-0.57812-0.5-1.3906-0.5-1.2344 0-2.0156 0.89062t-0.78125 2.8125q0 1.9531 0.75 2.8438 0.75 0.875 1.9531 0.875 0.96875 0 1.6094-0.59375 0.65625-0.59375 0.82812-1.8281zm6.5938 2.0781l0.23438 1.4531q-0.6875 0.14062-1.2344 0.14062-0.89062 0-1.3906-0.28125-0.48438-0.28125-0.6875-0.73438-0.20312-0.46875-0.20312-1.9375v-5.5781h-1.2031v-1.2656h1.2031v-2.3906l1.625-0.98438v3.375h1.6562v1.2656h-1.6562v5.6719q0 0.6875 0.078125 0.89062 0.09375 0.20312 0.28125 0.32812 0.20312 0.10938 0.57812 0.10938 0.26562 0 0.71875-0.0625zm1.6052-10v-1.8906h1.6406v1.8906h-1.6406zm0 11.469v-9.6719h1.6406v9.6719h-1.6406zm3.5354-4.8438q0-2.6875 1.4844-3.9688 1.25-1.0781 3.0469-1.0781 2 0 3.2656 1.3125 1.2656 1.2969 1.2656 3.6094 0 1.8594-0.5625 2.9375-0.5625 1.0625-1.6406 1.6562-1.0625 0.59375-2.3281 0.59375-2.0312 0-3.2812-1.2969-1.25-1.3125-1.25-3.7656zm1.6875 0q0 1.8594 0.79688 2.7969 0.8125 0.92188 2.0469 0.92188 1.2188 0 2.0312-0.92188 0.8125-0.9375 0.8125-2.8438 0-1.7969-0.8125-2.7188t-2.0312-0.92188q-1.2344 0-2.0469 0.92188-0.79688 0.90625-0.79688 2.7656zm9.2976 4.8438v-9.6719h1.4688v1.375q1.0625-1.5938 3.0781-1.5938 0.875 0 1.6094 0.3125t1.0938 0.82812q0.375 0.5 0.51562 1.2031 0.09375 0.45312 0.09375 1.5938v5.9531h-1.6406v-5.8906q0-1-0.20312-1.4844-0.1875-0.5-0.67188-0.79688t-1.1406-0.29688q-1.0469 0-1.8125 0.67188-0.75 0.65625-0.75 2.5156v5.2812h-1.6406zm17.622-7.2344q-1.0156-0.375-1.5156-1.0625-0.48438-0.70312-0.48438-1.6719 0-1.4531 1.0469-2.4375 1.0469-1 2.7812-1 1.75 0 2.8125 1.0156 1.0781 1.0156 1.0781 2.4688 0 0.9375-0.5 1.625-0.48438 0.6875-1.4688 1.0625 1.2188 0.39062 1.8594 1.2812 0.65625 0.89062 0.65625 2.1406 0 1.7031-1.2188 2.875t-3.1875 1.1719q-1.9844 0-3.2031-1.1719-1.2031-1.1719-1.2031-2.9219 0-1.3125 0.65625-2.1875 0.67188-0.875 1.8906-1.1875zm-0.32812-2.7812q0 0.9375 0.60938 1.5469 0.60938 0.59375 1.5938 0.59375 0.9375 0 1.5469-0.59375t0.60938-1.4531q0-0.90625-0.625-1.5156-0.625-0.625-1.5625-0.625t-1.5625 0.60938q-0.60938 0.59375-0.60938 1.4375zm-0.53125 6.1562q0 0.70312 0.32812 1.3594 0.34375 0.65625 1 1.0156t1.4062 0.35938q1.1719 0 1.9375-0.75t0.76562-1.9219q0-1.1875-0.79688-1.9531-0.78125-0.78125-1.9531-0.78125-1.1562 0-1.9219 0.76562t-0.76562 1.9062z" fill="#24292e"/>
<path d="m86.399 303.04v168h48.441" fill="#000" fill-opacity="0" fill-rule="evenodd"/>
<path d="m86.399 303.04v168h36.441" fill-rule="evenodd" stroke="#24292e" stroke-linecap="butt" stroke-linejoin="round" stroke-width="2"/>
<path d="m122.84 474.34l9.0762-3.3035-9.0762-3.3035z" fill="#24292e" fill-rule="evenodd" stroke="#24292e" stroke-linecap="butt" stroke-width="2"/>
<path d="m288 343.72h-28.58v127.31h-28.586" fill="#000" fill-opacity="0" fill-rule="evenodd"/>
<path d="m288 343.72h-28.58v127.31h-16.586" fill-rule="evenodd" stroke="#24292e" stroke-linecap="butt" stroke-linejoin="round" stroke-width="2"/>
<path d="m242.83 467.72l-9.0762 3.3035 9.0762 3.3035z" fill="#24292e" fill-rule="evenodd" stroke="#24292e" stroke-linecap="butt" stroke-width="2"/>
<path d="m585.6 237.49v212.72" fill="#000" fill-opacity="0" fill-rule="evenodd"/>
<path d="m585.6 237.49v200.72" fill-rule="evenodd" stroke="#24292e" stroke-linecap="butt" stroke-linejoin="round" stroke-width="2"/>
<path d="m582.3 438.21l3.3035 9.0762 3.3035-9.0762z" fill="#24292e" fill-rule="evenodd" stroke="#24292e" stroke-linecap="butt" stroke-width="2"/>
<path d="m414.55 238.02v105.7h-30.551" fill="#000" fill-opacity="0" fill-rule="evenodd"/>
<path d="m414.55 238.02v105.7h-18.551" fill-rule="evenodd" stroke="#24292e" stroke-linecap="butt" stroke-linejoin="round" stroke-width="2"/>
<path d="m396 340.42l-9.0762 3.3034 9.0762 3.3035z" fill="#24292e" fill-rule="evenodd" stroke="#24292e" stroke-linecap="butt" stroke-width="2"/>
<path d="m336 364.73v105.48h89.764" fill="#000" fill-opacity="0" fill-rule="evenodd"/>
<path d="m336 364.73v105.48h77.764" fill-rule="evenodd" stroke="#24292e" stroke-linecap="butt" stroke-linejoin="round" stroke-width="2"/>
<path d="m413.76 473.51l9.0762-3.3035-9.0762-3.3035z" fill="#24292e" fill-rule="evenodd" stroke="#24292e" stroke-linecap="butt" stroke-width="2"/>
</g>
</svg>
