<svg width="189" height="158" viewBox="0 0 189 158" fill="none" xmlns="http://www.w3.org/2000/svg">
  <path
    d="M0 5V157.796H135.044C141.892 157.796 148.526 156.94 154.946 155.228C161.509 153.516 167.287 150.877 172.28 147.31C177.416 143.743 181.482 139.178 184.478 133.614C187.474 127.907 188.972 121.202 188.972 113.498C188.972 103.939 186.618 95.8073 181.91 89.102C177.345 82.254 170.354 77.4747 160.938 74.764C167.786 71.4827 172.922 67.274 176.346 62.138C179.913 57.002 181.696 50.582 181.696 42.878C181.696 35.7447 180.483 29.7527 178.058 24.902C175.775 20.0513 172.494 16.1993 168.214 13.346C163.934 10.35 158.798 8.21 152.806 6.926C146.814 5.642 140.18 5 132.904 5H61Z"
    fill="black"
  />
</svg>
