<svg fill="none" height="24" viewBox="0 0 98 96" width="24" xmlns="http://www.w3.org/2000/svg" xmlns:xlink="http://www.w3.org/1999/xlink"><clipPath id="a"><path d="m0 0h98v96h-98z"/></clipPath><g clip-path="url(#a)"><path d="m41.4395 69.3848c-12.6329-1.5313-21.5333-10.6231-21.5333-22.3946 0-4.7851 1.7227-9.9531 4.5938-13.3984-1.2441-3.1582-1.0527-9.8574.3828-12.6328 3.8281-.4785 8.9961 1.5312 12.0586 4.3066 3.6367-1.1484 7.4648-1.7226 12.1543-1.7226s8.5176.5742 11.9629 1.6269c2.9668-2.6797 8.2305-4.6894 12.0586-4.2109 1.3398 2.584 1.5312 9.2832.2871 12.5371 3.0625 3.6367 4.6894 8.5176 4.6894 13.4941 0 11.7715-8.9003 20.6719-21.7246 22.2989 3.2539 2.1054 5.4551 6.6992 5.4551 11.9629v9.9531c0 2.8711 2.3926 4.498 5.2637 3.3496 17.3223-6.6035 30.9121-23.9258 30.9121-45.3633 0-27.084-22.0117-49.19139933-49.0957-49.19139957s-48.90430019 22.10739957-48.90430043 49.19139957c-.00000019 21.2461 13.49410043 38.8555 31.67770043 45.459 2.584.957 5.0723-.7656 5.0723-3.3496v-7.6563c-1.3398.5743-3.0625.9571-4.5938.9571-6.3164 0-10.0488-3.4453-12.7285-9.8575-1.0527-2.5839-2.2011-4.1152-4.4023-4.4023-1.1484-.0957-1.5313-.5742-1.5313-1.1484 0-1.1485 1.9141-2.0098 3.8282-2.0098 2.7754 0 5.1679 1.7227 7.6562 5.2637 1.9141 2.7754 3.9238 4.0195 6.3164 4.0195s3.9238-.8613 6.125-3.0625c1.627-1.627 2.8711-3.0625 4.0196-4.0195z" fill="#000"/></g></svg>