<svg width="946" height="158" viewBox="0 0 946 158" fill="none" xmlns="http://www.w3.org/2000/svg">
  <path
    d="M268.284 73.05V50.672H287.982C289.858 50.672 291.645 50.8507 293.342 51.208C295.129 51.476 296.692 52.012 298.032 52.816C299.372 53.62 300.444 54.7367 301.248 56.166C302.052 57.5953 302.454 59.4267 302.454 61.66C302.454 65.68 301.248 68.5833 298.836 70.37C296.424 72.1567 293.342 73.05 289.59 73.05H268.284ZM247.246 34.324V130H293.61C297.898 130 302.052 129.464 306.072 128.392C310.181 127.32 313.799 125.667 316.926 123.434C320.142 121.201 322.688 118.342 324.564 114.858C326.44 111.285 327.378 107.086 327.378 102.262C327.378 96.2767 325.904 91.1847 322.956 86.986C320.097 82.698 315.72 79.7053 309.824 78.008C314.112 75.9533 317.328 73.318 319.472 70.102C321.705 66.886 322.822 62.866 322.822 58.042C322.822 53.5753 322.063 49.8233 320.544 46.786C319.115 43.7487 317.06 41.3367 314.38 39.55C311.7 37.674 308.484 36.334 304.732 35.53C300.98 34.726 296.826 34.324 292.27 34.324H247.246ZM268.284 113.652V87.388H291.198C295.754 87.388 299.417 88.46 302.186 90.604C304.955 92.6587 306.34 96.1427 306.34 101.056C306.34 103.557 305.893 105.612 305 107.22C304.196 108.828 303.079 110.123 301.65 111.106C300.221 111.999 298.568 112.669 296.692 113.116C294.816 113.473 292.851 113.652 290.796 113.652H268.284ZM399.216 130V60.722H380.188V97.036C380.188 104.093 379.026 109.185 376.704 112.312C374.381 115.349 370.629 116.868 365.448 116.868C360.892 116.868 357.72 115.483 355.934 112.714C354.147 109.855 353.254 105.567 353.254 99.85V60.722H334.226V103.334C334.226 107.622 334.583 111.553 335.298 115.126C336.102 118.61 337.442 121.603 339.318 124.104C341.194 126.516 343.74 128.392 346.956 129.732C350.261 131.072 354.46 131.742 359.552 131.742C363.572 131.742 367.502 130.849 371.344 129.062C375.185 127.275 378.312 124.372 380.724 120.352H381.126V130H399.216ZM427.861 50.002V34.324H408.833V50.002H427.861ZM408.833 60.722V130H427.861V60.722H408.833ZM438.02 34.324V130H457.048V34.324H438.02ZM515.849 95.16C515.849 98.0187 515.581 100.788 515.045 103.468C514.509 106.148 513.616 108.56 512.365 110.704C511.114 112.759 509.417 114.411 507.273 115.662C505.218 116.913 502.628 117.538 499.501 117.538C496.553 117.538 494.007 116.913 491.863 115.662C489.808 114.322 488.066 112.625 486.637 110.57C485.297 108.426 484.314 106.014 483.689 103.334C483.064 100.654 482.751 97.974 482.751 95.294C482.751 92.4353 483.019 89.7107 483.555 87.12C484.18 84.44 485.118 82.0727 486.369 80.018C487.709 77.9633 489.451 76.3107 491.595 75.06C493.739 73.8093 496.374 73.184 499.501 73.184C502.628 73.184 505.218 73.8093 507.273 75.06C509.328 76.3107 510.98 77.9633 512.231 80.018C513.571 81.9833 514.509 84.306 515.045 86.986C515.581 89.5767 515.849 92.3013 515.849 95.16ZM516.117 121.156V130H534.207V34.324H515.179V69.164H514.911C512.767 65.7693 509.819 63.2233 506.067 61.526C502.404 59.7393 498.518 58.846 494.409 58.846C489.317 58.846 484.85 59.8733 481.009 61.928C477.168 63.8933 473.952 66.5287 471.361 69.834C468.86 73.1393 466.939 76.9807 465.599 81.358C464.348 85.646 463.723 90.1127 463.723 94.758C463.723 99.582 464.348 104.227 465.599 108.694C466.939 113.161 468.86 117.136 471.361 120.62C473.952 124.015 477.212 126.739 481.143 128.794C485.074 130.759 489.63 131.742 494.811 131.742C499.367 131.742 503.432 130.938 507.005 129.33C510.668 127.633 513.616 124.908 515.849 121.156H516.117ZM566.277 73.05V50.672H585.975C587.851 50.672 589.638 50.8507 591.335 51.208C593.122 51.476 594.685 52.012 596.025 52.816C597.365 53.62 598.437 54.7367 599.241 56.166C600.045 57.5953 600.447 59.4267 600.447 61.66C600.447 65.68 599.241 68.5833 596.829 70.37C594.417 72.1567 591.335 73.05 587.583 73.05H566.277ZM545.239 34.324V130H591.603C595.891 130 600.045 129.464 604.065 128.392C608.174 127.32 611.792 125.667 614.919 123.434C618.135 121.201 620.681 118.342 622.557 114.858C624.433 111.285 625.371 107.086 625.371 102.262C625.371 96.2767 623.897 91.1847 620.949 86.986C618.09 82.698 613.713 79.7053 607.817 78.008C612.105 75.9533 615.321 73.318 617.465 70.102C619.698 66.886 620.815 62.866 620.815 58.042C620.815 53.5753 620.056 49.8233 618.537 46.786C617.108 43.7487 615.053 41.3367 612.373 39.55C609.693 37.674 606.477 36.334 602.725 35.53C598.973 34.726 594.819 34.324 590.263 34.324H545.239ZM566.277 113.652V87.388H589.191C593.747 87.388 597.41 88.46 600.179 90.604C602.948 92.6587 604.333 96.1427 604.333 101.056C604.333 103.557 603.886 105.612 602.993 107.22C602.189 108.828 601.072 110.123 599.643 111.106C598.214 111.999 596.561 112.669 594.685 113.116C592.809 113.473 590.844 113.652 588.789 113.652H566.277ZM697.209 130V60.722H678.181V97.036C678.181 104.093 677.019 109.185 674.697 112.312C672.374 115.349 668.622 116.868 663.441 116.868C658.885 116.868 655.713 115.483 653.927 112.714C652.14 109.855 651.247 105.567 651.247 99.85V60.722H632.219V103.334C632.219 107.622 632.576 111.553 633.291 115.126C634.095 118.61 635.435 121.603 637.311 124.104C639.187 126.516 641.733 128.392 644.949 129.732C648.254 131.072 652.453 131.742 657.545 131.742C661.565 131.742 665.495 130.849 669.337 129.062C673.178 127.275 676.305 124.372 678.717 120.352H679.119V130H697.209ZM755.468 95.16C755.468 98.0187 755.2 100.788 754.664 103.468C754.128 106.148 753.235 108.56 751.984 110.704C750.734 112.759 749.036 114.411 746.892 115.662C744.838 116.913 742.247 117.538 739.12 117.538C736.172 117.538 733.626 116.913 731.482 115.662C729.428 114.322 727.686 112.625 726.256 110.57C724.916 108.426 723.934 106.014 723.308 103.334C722.683 100.654 722.37 97.974 722.37 95.294C722.37 92.4353 722.638 89.7107 723.174 87.12C723.8 84.44 724.738 82.0727 725.988 80.018C727.328 77.9633 729.07 76.3107 731.214 75.06C733.358 73.8093 735.994 73.184 739.12 73.184C742.247 73.184 744.838 73.8093 746.892 75.06C748.947 76.3107 750.6 77.9633 751.85 80.018C753.19 81.9833 754.128 84.306 754.664 86.986C755.2 89.5767 755.468 92.3013 755.468 95.16ZM755.736 121.156V130H773.826V34.324H754.798V69.164H754.53C752.386 65.7693 749.438 63.2233 745.686 61.526C742.024 59.7393 738.138 58.846 734.028 58.846C728.936 58.846 724.47 59.8733 720.628 61.928C716.787 63.8933 713.571 66.5287 710.98 69.834C708.479 73.1393 706.558 76.9807 705.218 81.358C703.968 85.646 703.342 90.1127 703.342 94.758C703.342 99.582 703.968 104.227 705.218 108.694C706.558 113.161 708.479 117.136 710.98 120.62C713.571 124.015 716.832 126.739 720.762 128.794C724.693 130.759 729.249 131.742 734.43 131.742C738.986 131.742 743.051 130.938 746.624 129.33C750.287 127.633 753.235 124.908 755.468 121.156H755.736ZM832.026 95.16C832.026 98.0187 831.758 100.788 831.222 103.468C830.686 106.148 829.793 108.56 828.542 110.704C827.292 112.759 825.594 114.411 823.45 115.662C821.396 116.913 818.805 117.538 815.678 117.538C812.73 117.538 810.184 116.913 808.04 115.662C805.986 114.322 804.244 112.625 802.814 110.57C801.474 108.426 800.492 106.014 799.866 103.334C799.241 100.654 798.928 97.974 798.928 95.294C798.928 92.4353 799.196 89.7107 799.732 87.12C800.358 84.44 801.296 82.0727 802.546 80.018C803.886 77.9633 805.628 76.3107 807.772 75.06C809.916 73.8093 812.552 73.184 815.678 73.184C818.805 73.184 821.396 73.8093 823.45 75.06C825.505 76.3107 827.158 77.9633 828.408 80.018C829.748 81.9833 830.686 84.306 831.222 86.986C831.758 89.5767 832.026 92.3013 832.026 95.16ZM832.294 121.156V130H850.384V34.324H831.356V69.164H831.088C828.944 65.7693 825.996 63.2233 822.244 61.526C818.582 59.7393 814.696 58.846 810.586 58.846C805.494 58.846 801.028 59.8733 797.186 61.928C793.345 63.8933 790.129 66.5287 787.538 69.834C785.037 73.1393 783.116 76.9807 781.776 81.358C780.526 85.646 779.9 90.1127 779.9 94.758C779.9 99.582 780.526 104.227 781.776 108.694C783.116 113.161 785.037 117.136 787.538 120.62C790.129 124.015 793.39 126.739 797.32 128.794C801.251 130.759 805.807 131.742 810.988 131.742C815.544 131.742 819.609 130.938 823.182 129.33C826.845 127.633 829.793 124.908 832.026 121.156H832.294ZM893.576 138.576L922.52 60.722H902.822L887.68 108.158H887.412L871.734 60.722H851.5L875.754 125.712C876.29 127.052 876.558 128.481 876.558 130C876.558 132.055 875.933 133.931 874.682 135.628C873.521 137.325 871.689 138.308 869.188 138.576C867.312 138.665 865.436 138.621 863.56 138.442C861.684 138.263 859.853 138.085 858.066 137.906V153.584C860.031 153.763 861.952 153.897 863.828 153.986C865.794 154.165 867.759 154.254 869.724 154.254C876.246 154.254 881.338 153.048 885 150.636C888.663 148.224 891.522 144.204 893.576 138.576Z"
    fill="black"
  />
  <path
    d="M0 5V157.796H135.044C141.892 157.796 148.526 156.94 154.946 155.228C161.509 153.516 167.287 150.877 172.28 147.31C177.416 143.743 181.482 139.178 184.478 133.614C187.474 127.907 188.972 121.202 188.972 113.498C188.972 103.939 186.618 95.8073 181.91 89.102C177.345 82.254 170.354 77.4747 160.938 74.764C167.786 71.4827 172.922 67.274 176.346 62.138C179.913 57.002 181.696 50.582 181.696 42.878C181.696 35.7447 180.483 29.7527 178.058 24.902C175.775 20.0513 172.494 16.1993 168.214 13.346C163.934 10.35 158.798 8.21 152.806 6.926C146.814 5.642 140.18 5 132.904 5H61Z"
    fill="black"
  />
</svg>
