<svg width="232" height="50" viewBox="0 0 232 50" fill="none" xmlns="http://www.w3.org/2000/svg">
<g clip-path="url(#clip0_4_117)">
<path d="M179.1 17.7V38.5C179.6 38.8 180.3 38.9 181.5 38.9C182.7 38.9 183.5 38.8 184 38.5V17.7C183.5 17.4 182.8 17.3 181.5 17.3C180.4 17.3 179.6 17.4 179.1 17.7ZM85.5 20.5C89.1 20.5 89.9 23.3 89.6 25.9H80.2C80.4 22.6 82.3 20.5 85.5 20.5ZM75.1 28.3C75.1 35.2 79 39.6 86.1 39.6C89 39.6 91.3 38.9 92.7 38C93.5 37.1 94.1 35.2 93.9 33.8C92.3 34.6 90 35.3 87.3 35.3C82.9 35.3 80.4 33.5 80.1 29.6H93.7C94.1 28.4 94.2 27.1 94.2 25.7C94.2 20.3 91.4 16.4 85.5 16.4C79.2 16.5 75.1 21.3 75.1 28.3ZM103.3 20.4H103L102.7 17C101.1 17 99.7 17.3 98.7 17.8V38.5C99.2 38.8 99.9 38.9 101.1 38.9C102.3 38.9 103.1 38.8 103.6 38.5V24.1C104.4 22.6 106 21.2 108.6 21.2C111.6 21.2 112.5 23 112.5 25.9V38.6C113 38.9 113.7 39 114.9 39C116.1 39 116.9 38.9 117.4 38.6V24.9C117.4 17.8 113.6 16.6 110.3 16.6C106.4 16.5 104.2 18.3 103.3 20.4ZM121.4 28.3C121.4 35.3 125 39.6 131.7 39.6C134.1 39.6 136.1 39 137.5 38.3C138.4 37.3 139 35.1 138.8 33.6C137.2 34.5 135.4 35.1 133.3 35.1C129.2 35.1 126.5 32.9 126.5 28C126.5 23.1 129.2 21 133.3 21C135.3 21 136.8 21.5 138.4 22.5C138.7 21 138.3 18.9 137.6 17.9C136.4 17.1 134.5 16.7 132.4 16.7C126.1 16.5 121.4 20.2 121.4 28.3ZM193.8 20.4H193.5L193.2 17C191.6 17 190.2 17.3 189.2 17.8V38.5C189.7 38.8 190.4 38.9 191.6 38.9C192.8 38.9 193.6 38.8 194.1 38.5V24.1C194.9 22.6 196.5 21.2 199.1 21.2C202.1 21.2 203 23 203 25.9V38.6C203.5 38.9 204.2 39 205.4 39C206.6 39 207.4 38.9 207.9 38.6V24.9C207.9 17.8 204.1 16.6 200.8 16.6C197 16.5 194.8 18.3 193.8 20.4ZM217 27.9C217 23.6 219 20.7 223.5 20.7C224.8 20.7 225.8 21 226.6 21.4V31.7C225.7 33.1 224.4 34.2 222.1 34.2C218.9 34.2 217 32 217 27.9ZM212 28.4C212 35.4 215.6 38.7 220.6 38.7C223.7 38.7 225.7 37.4 226.9 35.5H227.2C226.9 36.5 226.7 38.3 226.7 39.6C226.7 43.5 225.3 45.5 221.1 45.5C218.8 45.5 216 44.8 213.4 43.3C212.9 44.8 213.1 47 214.1 48.4C216.3 49.5 219.2 50 221.7 50C229.7 50 231.7 45.1 231.7 38.6V18.7C229.4 17.2 226.9 16.5 223.8 16.5C216.4 16.5 212 20.6 212 28.4ZM54.3 34.4V25.2H59.4C63.9 25.2 66.7 26.7 66.7 29.9C66.7 33.2 63.9 34.6 59.1 34.6C57.3 34.6 55.6 34.5 54.3 34.4ZM54.3 12.4C55.4 12.2 56.7 12.1 58.2 12.1C62.5 12.1 65.1 13.4 65.1 16.5C65.1 19.3 62.9 20.7 59.3 20.7H54.2V12.4H54.3ZM49.2 8.40002V38.6C51.9 38.9 55.7 39 59.3 39C66.4 39 72 36.5 72 30C72 25.7 69.6 23.6 66 22.7V22.4C68.7 21.7 70.4 19.2 70.4 15.8C70.4 9.80002 65.3 7.60002 58.1 7.60002C54.7 7.60002 51.8 8.00002 49.2 8.40002ZM178.5 10.2C178.5 12.2 179.6 13.3 181.5 13.3C183.4 13.3 184.6 12.2 184.6 10.1C184.6 8.00002 183.4 6.90002 181.6 6.90002C179.8 6.90002 178.5 8.10002 178.5 10.2ZM142.6 7.50002V38.5C143.1 38.8 143.8 38.9 145 38.9C146.2 38.9 147 38.8 147.5 38.5V24.1C148.3 22.5 149.9 21.2 152.6 21.2C155.7 21.2 156.6 22.9 156.6 25.9V38.6C157.1 38.9 157.8 39 159 39C160.2 39 161 38.9 161.5 38.6V24.9C161.5 17.8 157.6 16.6 154.2 16.6C150.1 16.6 148.1 18.3 147.2 20.3H147C147.3 18.6 147.5 16.7 147.5 14.3V6.50002C145.2 6.40002 143.7 6.80002 142.6 7.50002ZM166.6 7.50002V33.7C166.6 37.4 168 39.6 171.5 39.6C172.9 39.6 174.1 39.2 174.9 38.7C175.7 37.8 176.2 35.8 175.9 34.2C175.2 34.7 174.2 35 173.2 35C172.1 35 171.4 34.6 171.4 32.9V6.40002C169.3 6.40002 167.8 6.80002 166.6 7.50002Z" fill="black"/>
<path d="M13.1 39.4C12.5 40 12.1 40.5 11.9 41.3H19C18.8 40.6 18.4 40 17.8 39.4H13.1ZM19.7 35.8C19.1 36.2 18.4 36.5 17.7 36.9L17.5 37L17.7 37.1C19.9 38.4 20.9 40.2 20.9 42.5C20.9 43.1 21.4 43.6 22 43.6C22.6 43.6 23.1 43.1 23.1 42.5C23.1 39.8 22 37.6 19.8 35.9L19.7 35.8ZM11.8 28.5C12 29.2 12.4 29.8 13 30.4H17.6C18.2 29.8 18.6 29.3 18.8 28.5H11.8ZM13.1 24C12.5 24.6 12.1 25.1 11.9 25.9H19C18.8 25.2 18.4 24.6 17.8 24H13.1ZM7.8 11.7C7.8 11 8.4 10.4 9.1 10.4C9.8 10.4 10.4 11 10.4 11.7C10.4 12.4 9.8 13 9.1 13C8.3 13 7.8 12.4 7.8 11.7ZM20.4 11.7C20.4 11 21 10.4 21.7 10.4C22.4 10.4 23 11 23 11.7C23 12.4 22.4 13 21.7 13C21 13 20.4 12.4 20.4 11.7ZM2.8 11C2.7 11.5 2.6 12 2.5 12.2C1.7 14.4 0.5 15.5 0.5 15.5C0.2 15.7 0 16 0 16.3V16.6V16.7C0.1 17.1 0.5 17.5 0.9 17.5C6.8 18.1 10.1 18.9 12.3 19.6C9.2 21.4 7.6 23.9 7.6 27.1C7.6 30.4 9.3 33 12.5 34.8C9.3 36.6 7.6 39.2 7.6 42.5C7.6 43.1 8.1 43.6 8.7 43.6C9.3 43.6 9.8 43.1 9.8 42.5C9.8 38.6 12.9 36.9 15.3 36C15.4 36 15.5 35.9 15.6 35.9C16.4 35.6 17.2 35.3 17.9 34.9C21.3 33.1 23 30.5 23 27.1C23 24.6 22 22.5 20.1 20.8C19.2 21 18.3 21.3 17.6 21.5L17.4 21.6L17.6 21.7C19.8 23 20.8 24.8 20.8 27.1C20.8 31 17.7 32.7 15.3 33.5C13 32.6 9.9 31 9.9 27.1C9.9 23.2 13 21.5 15.4 20.6H15.6C16.1 20.4 16.9 20 18.3 19.7C20.5 19 23.9 18.2 30 17.6C30.5 17.6 30.8 17.2 30.9 16.8C31 16.4 30.8 15.9 30.4 15.7C30.4 15.7 29.3 14.6 28.4 12.4C28.3 12.1 28.2 11.7 28.1 11.2C27.2 7.7 25.3 0 15.4 0C5.6 0 3.6 7.7 2.8 11Z" fill="black"/>
</g>
<defs>
<clipPath id="clip0_4_117">
<rect width="231.6" height="50" fill="black"/>
</clipPath>
</defs>
</svg>
