<svg width="198" height="141" viewBox="0 0 198 141" fill="none" xmlns="http://www.w3.org/2000/svg">
<path fill-rule="evenodd" clip-rule="evenodd" d="M0 2.445H30.06V83.119C30.06 95.886 35.9 103.491 40.518 106.751C35.629 111.097 20.689 114.9 9.55199 105.664C2.98599 100.22 0 91.268 0 82.847V2.445ZM187.863 69.459V60.981H197.031V31.238H186.963C183.098 13.381 167.2 0 148.187 0C126.284 0 108.529 17.756 108.529 39.658V109.117C114.769 109.994 122.203 109.008 128.528 103.763C135.093 98.318 138.079 89.367 138.079 80.946V78.387H153.092V48.644H138.079V39.658H138.115C138.115 34.096 142.624 29.587 148.187 29.587C153.749 29.587 158.276 34.096 158.276 39.658V69.459C158.276 91.361 176.05 109.117 197.952 109.117V79.53C192.39 79.53 187.863 75.021 187.863 69.459ZM74.015 31.238V74.889C74.015 77.367 71.959 79.376 69.422 79.376C66.885 79.376 64.829 77.367 64.829 74.889V31.238H35.085V82.576C35.085 91.811 38.217 103.491 52.47 107.294C66.738 111.101 75.015 103.22 75.015 103.22C74.261 108.412 69.371 112.215 61.494 113.03C55.534 113.646 47.912 111.672 44.11 110.042V137.241C53.798 140.098 64.045 141.021 74.073 139.075C92.272 135.544 103.758 120.333 103.758 100.096V31.238H74.015Z" fill="white"/>
</svg>
