<svg width="705" height="102" viewBox="0 0 705 102" fill="none" xmlns="http://www.w3.org/2000/svg">
<path fill-rule="evenodd" clip-rule="evenodd" d="M26.1546 54L65.6522 14.0188C68.3357 11.3024 71.9063 9.80875 75.7122 9.80875C79.5154 9.80875 83.086 11.301 85.7667 14.0174L88.844 17.1323L95 10.901L91.9227 7.786C87.5996 3.40999 81.843 1 75.7094 1C69.5787 1.00142 63.8207 3.41141 59.4976 7.78883L20 47.7686L26.1546 54Z" fill="black"/>
<path fill-rule="evenodd" clip-rule="evenodd" d="M79 27.2992L72.8149 21.0771L33.1318 60.9991C27.5592 66.6051 18.492 66.6065 12.9207 61.0019C7.34808 55.3959 7.34808 46.273 12.9207 40.667L47.1635 6.22073L40.9783 0L6.73703 34.4463C-2.24568 43.4828 -2.24568 58.1876 6.73703 67.2226C11.0806 71.5922 16.8644 74 23.0242 74C29.1854 74 34.972 71.5907 39.3156 67.2212L79 27.2992Z" fill="black"/>
<path fill-rule="evenodd" clip-rule="evenodd" d="M118.262 34.7761C113.92 30.4065 108.136 28 101.973 28C95.812 28.0014 90.0253 30.4079 85.6818 34.7789L46 74.7002L52.1823 80.9225L91.867 40.9998C97.441 35.3936 106.507 35.395 112.078 40.9983C114.773 43.7093 116.257 47.3183 116.257 51.1639C116.257 55.0108 114.773 58.6212 112.078 61.3322L77.8367 95.7792L84.0218 102L118.262 67.5545C127.246 58.5178 127.246 43.8127 118.262 34.7761Z" fill="black"/>
<path fill-rule="evenodd" clip-rule="evenodd" d="M98.8455 48L59.3487 87.9812C53.801 93.5941 44.778 93.597 39.2331 87.9826L36.1559 84.8677L30 91.099L33.0772 94.214C37.4002 98.59 43.1567 101 49.2916 101C55.4223 100.999 61.1788 98.5886 65.5032 94.2112L105 54.2314L98.8455 48Z" fill="black"/>
<path fill-rule="evenodd" clip-rule="evenodd" d="M161.475 61.4105C161.985 63.9616 163.179 65.9589 165.054 67.3979C166.928 68.8398 169.394 69.5593 172.453 69.5593C175.462 69.5593 177.788 68.8512 179.433 67.4336C181.078 66.0174 181.899 64.1515 181.899 61.8359C181.899 60.7024 181.68 59.7459 181.24 58.9664C180.799 58.187 180.186 57.526 179.399 56.9821C178.61 56.441 177.639 55.9785 176.481 55.6016C175.324 55.2232 174.026 54.8221 172.59 54.3967L168.84 53.3345C166.616 52.7206 164.624 51.9769 162.865 51.1017C161.104 50.228 159.6 49.2002 158.35 48.0195C157.1 46.8389 156.149 45.4812 155.501 43.9451C154.853 42.4104 154.528 40.6259 154.528 38.5959C154.528 36.4702 154.946 34.5101 155.78 32.7141C156.613 30.921 157.794 29.3835 159.322 28.1087C160.851 26.8338 162.703 25.8302 164.881 25.0964C167.056 24.3669 169.509 24 172.243 24C177.384 24 181.458 25.2392 184.47 27.7189C187.48 30.2001 189.239 33.5179 189.75 37.6751L181.414 38.3832C180.903 36.2575 179.885 34.6043 178.357 33.4236C176.828 32.243 174.698 31.652 171.966 31.652C169.418 31.652 167.427 32.2544 165.992 33.4593C164.554 34.6642 163.836 36.2118 163.836 38.1005C163.836 39.1869 164.046 40.0949 164.463 40.8272C164.881 41.561 165.481 42.1977 166.269 42.7402C167.056 43.2841 168.017 43.7681 169.151 44.1921C170.286 44.6175 171.571 45.0687 173.007 45.5398L176.551 46.6733C178.772 47.3814 180.777 48.1252 182.559 48.9046C184.342 49.6841 185.859 50.6178 187.109 51.7042C188.36 52.7906 189.322 54.0897 189.992 55.6016C190.664 57.1134 191 58.9793 191 61.1992C191 63.5619 190.537 65.7233 189.612 67.682C188.684 69.6435 187.389 71.3081 185.72 72.6772C184.053 74.0477 182.074 75.1113 179.78 75.8651C177.487 76.6203 174.953 77 172.174 77C167.033 77 162.749 75.7723 159.322 73.3153C155.895 70.8584 153.788 67.1509 153 62.19L161.475 61.4105Z" fill="black"/>
<path fill-rule="evenodd" clip-rule="evenodd" d="M226.861 32.6167C224.362 32.6167 222.127 33.0871 220.16 34.025C218.191 34.9643 216.525 36.2659 215.161 37.9314C213.794 39.5983 212.751 41.5706 212.034 43.8443C211.317 46.1222 210.959 48.5976 210.959 51.272C210.959 53.9478 211.328 56.4346 212.07 58.7353C212.809 61.0345 213.864 63.0282 215.229 64.7192C216.594 66.4074 218.261 67.7332 220.23 68.6967C222.196 69.6573 224.43 70.1376 226.931 70.1376C229.431 70.1376 231.664 69.6815 233.633 68.7663C235.599 67.8512 237.267 66.5723 238.632 64.9281C239.998 63.2868 241.051 61.3031 241.792 58.9811C242.532 56.6577 242.902 54.1112 242.902 51.3431C242.902 48.6204 242.532 46.1094 241.792 43.8102C241.051 41.5124 239.998 39.54 238.632 37.8973C237.267 36.256 235.588 34.9643 233.596 34.025C231.607 33.0871 229.361 32.6167 226.861 32.6167ZM226.931 25C230.681 25 234.107 25.6466 237.209 26.9397C240.31 28.2328 242.949 30.0418 245.126 32.3695C247.3 34.6985 248.989 37.4838 250.195 40.728C251.398 43.9722 252 47.5219 252 51.3772C252 55.376 251.363 58.984 250.092 62.204C248.815 65.4255 247.001 68.2107 244.639 70.5611L251.306 78.5317V81H242.834L238.18 75.2178C236.56 75.9696 234.822 76.5564 232.972 76.9799C231.12 77.4034 229.129 77.6151 227.001 77.6151C223.157 77.6151 219.697 76.9671 216.619 75.6754C213.539 74.3823 210.923 72.5719 208.771 70.2442C206.617 67.9166 204.951 65.1441 203.771 61.9212C202.59 58.7012 202 55.187 202 51.3772C202 47.5219 202.59 43.985 203.771 40.7621C204.951 37.5434 206.629 34.7682 208.806 32.4405C210.98 30.1129 213.608 28.2911 216.687 26.9738C219.767 25.6594 223.181 25 226.931 25Z" fill="black"/>
<path fill-rule="evenodd" clip-rule="evenodd" d="M286 69.703C289.553 69.703 292.32 68.5824 294.305 66.3385C296.287 64.0946 297.28 60.6587 297.28 56.0296V25H306V56.2423C306 59.9265 305.538 63.0782 304.615 65.7004C303.691 68.3212 302.378 70.4709 300.671 72.1481C298.964 73.8254 296.864 75.053 294.374 75.8324C291.883 76.6117 289.091 77 286 77C282.861 77 280.059 76.6117 277.592 75.8324C275.123 75.053 273.036 73.8254 271.329 72.1481C269.622 70.4709 268.308 68.3212 267.383 65.7004C266.46 63.0782 266 59.9265 266 56.2423V25H274.72V56.0296C274.72 60.6587 275.711 64.0946 277.695 66.3385C279.68 68.5824 282.447 69.703 286 69.703Z" fill="black"/>
<path fill-rule="evenodd" clip-rule="evenodd" d="M330.982 54.2032H347.668L344.921 46.2646C343.841 43.1554 342.974 40.6243 342.317 38.6754C341.659 36.7251 341.072 35.0077 340.557 33.5219H338.375C338.093 34.3104 337.811 35.1003 337.53 35.8889C337.247 36.6788 336.931 37.5613 336.579 38.5351C336.226 39.5102 335.84 40.6243 335.418 41.8786C334.995 43.1301 334.479 44.5936 333.869 46.2646L330.982 54.2032ZM315 73.5629L332.954 26H346.26L364 73.5629V76H355.271L350.202 61.7237H328.307L323.239 76H315V73.5629Z" fill="black"/>
<path fill-rule="evenodd" clip-rule="evenodd" d="M383.646 48.8413H391.246C394.594 48.8413 397.23 48.231 399.159 47.0131C401.088 45.7937 402.055 43.8041 402.055 41.0414C402.055 38.2352 401.077 36.2806 399.124 35.1764C397.173 34.0735 394.547 33.5207 391.246 33.5207H383.646V48.8413ZM413 76H404.562L389.293 56.362H383.646V76H375V26H391.246C393.801 26 396.232 26.174 398.531 26.522C400.833 26.8699 402.913 27.6711 404.773 28.9241C408.722 31.5227 410.7 35.4458 410.7 40.6892C410.7 42.9651 410.363 44.9491 409.687 46.644C409.013 48.3376 408.118 49.7758 407.004 50.96C405.887 52.1442 404.598 53.1068 403.135 53.8476C401.67 54.5913 400.147 55.1483 398.566 55.5187L413 73.5614V76Z" fill="black"/>
<path fill-rule="evenodd" clip-rule="evenodd" d="M424 26H456.51V33.6594H432.6V46.7515H454.832V54.272H432.6V68.3392H457V76H424V26Z" fill="black"/>
<path fill-rule="evenodd" clip-rule="evenodd" d="M476.476 61.4105C476.984 63.9616 478.178 65.9589 480.054 67.3979C481.929 68.8398 484.395 69.5593 487.452 69.5593C490.461 69.5593 492.787 68.8512 494.433 67.4336C496.077 66.0174 496.9 64.1515 496.9 61.8359C496.9 60.7024 496.68 59.7459 496.239 58.9664C495.799 58.187 495.185 57.526 494.398 56.9821C493.61 56.441 492.638 55.9785 491.482 55.6016C490.323 55.2232 489.025 54.8221 487.589 54.3967L483.84 53.3345C481.617 52.7206 479.624 51.9769 477.865 51.1017C476.104 50.228 474.599 49.2002 473.351 48.0195C472.1 46.8389 471.149 45.4812 470.501 43.9451C469.853 42.4104 469.528 40.6259 469.528 38.5959C469.528 36.4702 469.945 34.5101 470.78 32.7141C471.612 30.921 472.794 29.3835 474.322 28.1087C475.851 26.8338 477.702 25.8302 479.88 25.0964C482.055 24.3669 484.51 24 487.242 24C492.383 24 496.457 25.2392 499.469 27.7189C502.479 30.2001 504.239 33.5179 504.749 37.6751L496.413 38.3832C495.903 36.2575 494.884 34.6043 493.357 33.4236C491.829 32.243 489.697 31.652 486.965 31.652C484.418 31.652 482.426 32.2544 480.991 33.4593C479.555 34.6642 478.837 36.2118 478.837 38.1005C478.837 39.1869 479.046 40.0949 479.463 40.8272C479.88 41.561 480.481 42.1977 481.268 42.7402C482.055 43.2841 483.017 43.7681 484.152 44.1921C485.287 44.6175 486.572 45.0687 488.006 45.5398L491.55 46.6733C493.773 47.3814 495.776 48.1252 497.559 48.9046C499.341 49.6841 500.859 50.6178 502.108 51.7042C503.359 52.7906 504.32 54.0897 504.992 55.6016C505.663 57.1134 506 58.9793 506 61.1992C506 63.5619 505.537 65.7233 504.61 67.682C503.682 69.6435 502.388 71.3081 500.719 72.6772C499.052 74.0477 497.073 75.1113 494.781 75.8651C492.487 76.6203 489.952 77 487.174 77C482.034 77 477.748 75.7723 474.322 73.3153C470.894 70.8584 468.788 67.1509 468 62.19L476.476 61.4105Z" fill="black"/>
<path fill-rule="evenodd" clip-rule="evenodd" d="M527.86 49.2588H536.366C537.926 49.2588 539.355 49.1325 540.655 48.8786C541.953 48.626 543.088 48.2009 544.057 47.6017C545.026 47.004 545.782 46.1987 546.326 45.1857C546.869 44.174 547.14 42.9309 547.14 41.4577C547.14 39.9396 546.869 38.6642 546.326 37.6287C545.782 36.5932 545.036 35.7766 544.092 35.1775C543.147 34.5784 542.024 34.1533 540.726 33.9007C539.425 33.6482 538.02 33.5205 536.509 33.5205H527.86V49.2588ZM519 26H537.571C541.02 26 543.915 26.3943 546.254 27.1842C548.594 27.9727 550.483 29.0629 551.926 30.4576C553.365 31.8494 554.406 33.4854 555.043 35.3669C555.68 37.2457 556 39.2773 556 41.4591C556 44.0604 555.563 46.3221 554.689 48.2486C553.815 50.175 552.551 51.7647 550.897 53.019C549.242 54.272 547.234 55.212 544.872 55.8392C542.508 56.4664 539.839 56.7793 536.863 56.7793H527.86V76H519V26Z" fill="black"/>
<path fill-rule="evenodd" clip-rule="evenodd" d="M573.982 54.2032H590.668L587.921 46.2646C586.841 43.1554 585.972 40.6243 585.316 38.6754C584.659 36.7251 584.072 35.0077 583.557 33.5219H581.374C581.093 34.3104 580.811 35.1003 580.528 35.8889C580.247 36.6788 579.93 37.5613 579.578 38.5351C579.226 39.5102 578.84 40.6243 578.418 41.8786C577.995 43.1301 577.479 44.5936 576.869 46.2646L573.982 54.2032ZM558 73.5629L575.954 26H589.259L607 73.5629V76H598.271L593.202 61.7237H571.307L566.237 76H558V73.5629Z" fill="black"/>
<path fill-rule="evenodd" clip-rule="evenodd" d="M660 62.7803C659.206 64.7324 658.164 66.5694 656.879 68.2926C655.592 70.0158 654.037 71.5256 652.214 72.8148C650.39 74.1041 648.273 75.1237 645.865 75.8737C643.456 76.6236 640.779 77 637.832 77C634.091 77 630.689 76.3484 627.626 75.0465C624.563 73.7474 621.948 71.9455 619.783 69.6465C617.618 67.3446 615.946 64.6046 614.767 61.4208C613.588 58.2384 613 54.7877 613 51.0688C613 47.3527 613.588 43.9021 614.767 40.7183C615.946 37.5358 617.627 34.7818 619.817 32.4575C622.006 30.136 624.634 28.3102 627.697 26.9873C630.759 25.6615 634.184 25 637.973 25C643.49 25 648.11 26.2794 651.828 28.8341C655.546 31.3887 658.177 34.7818 659.72 39.0105L650.811 40.752C649.595 38.1973 647.898 36.1862 645.725 34.7228C643.549 33.2594 640.919 32.5277 637.832 32.5277C635.354 32.5277 633.144 33.0024 631.203 33.9518C629.263 34.9012 627.626 36.2087 626.293 37.8757C624.96 39.5413 623.943 41.5089 623.242 43.7785C622.54 46.0466 622.19 48.4763 622.19 51.0688C622.19 53.7077 622.552 56.15 623.277 58.3957C624.001 60.6427 625.054 62.585 626.433 64.2296C627.813 65.8728 629.485 67.1564 631.449 68.0819C633.412 69.0089 635.658 69.4723 638.183 69.4723C641.458 69.4723 644.157 68.6816 646.286 67.1017C648.414 65.5217 650.062 63.5934 651.231 61.3155L660 62.7803Z" fill="black"/>
<path fill-rule="evenodd" clip-rule="evenodd" d="M671.441 25.3964H704.136V33.13H680.09V46.3489H702.449V53.9422H680.09V68.1457H704.629V75.8807H671.441V25.3964Z" fill="black"/>
</svg>
