<svg width="96" height="24" viewBox="0 0 96 24" fill="none" xmlns="http://www.w3.org/2000/svg">
<path fill-rule="evenodd" clip-rule="evenodd" d="M9.48914 15.1054L20.5544 3.87375C20.7927 3.63177 21.1772 3.63177 21.4156 3.87375L25.0245 7.53544C25.2629 7.77742 25.2629 8.17007 25.0245 8.40977L14.391 19.2031C14.1527 19.4451 13.7659 19.4451 13.5276 19.2031L9.48914 15.1054Z" fill="black"/>
<path fill-rule="evenodd" clip-rule="evenodd" d="M2.89568 8.41221C2.65733 8.17023 2.65733 7.77758 2.89568 7.53788L6.50464 3.87619C6.74299 3.63421 7.12974 3.63421 7.36809 3.87619L12.9625 9.55364L8.49013 14.0897L2.89568 8.41221Z" fill="black"/>
<path d="M32.9319 5.75452H35.14L38.623 15.153L42.1061 5.75452H44.3142L39.8125 17.8262H37.4335L32.9319 5.75452Z" fill="black"/>
<path fill-rule="evenodd" clip-rule="evenodd" d="M47.78 17.9997C50.159 17.9997 51.263 16.5341 51.263 16.5341L50.1612 15.137C50.1612 15.137 49.3113 16.1894 47.8677 16.1894C46.5073 16.1894 45.6933 15.3288 45.4887 14.3791H51.688C51.688 14.3791 51.7734 13.9477 51.7734 13.4294C51.7734 11.1329 50.1185 9.25411 47.789 9.20617C45.6708 9.16052 43.7843 10.7243 43.4267 12.8428C42.9658 15.5867 45.0615 17.9997 47.78 17.9997ZM47.6094 11.1009C48.7135 11.1009 49.3948 11.7903 49.6489 12.74H45.4868C45.7408 11.7903 46.4199 11.1009 47.6094 11.1009Z" fill="black"/>
<path d="M53.353 9.37727H55.307V10.5849H55.3925C55.3925 10.5849 56.2424 9.20605 57.7715 9.20605H58.111V11.3611C58.111 11.3611 57.8569 11.2743 57.4319 11.2743C56.2424 11.2743 55.3093 12.224 55.3093 13.6896V17.8284H53.3553V9.37727H53.353Z" fill="black"/>
<path d="M59.3375 5.75452H61.2915V13.0847L64.6036 9.3774H66.9826L63.8391 12.9112L67.1512 17.8262H64.9431L62.5642 14.2901L61.2892 15.7557V17.8262H59.3352V5.75452H59.3375Z" fill="black"/>
<path fill-rule="evenodd" clip-rule="evenodd" d="M72.8456 16.7058H72.9288V17.8243H74.8828V12.5647C74.8828 10.7201 73.4392 9.20203 71.3997 9.20203C69.2771 9.20203 68.0876 10.9256 68.0876 10.9256L69.2771 12.1332C69.2771 12.1332 70.0753 11.0991 71.3165 11.0991C72.2519 11.0991 72.931 11.7908 72.931 12.3934L70.127 12.9117C68.6835 13.1696 67.6649 14.206 67.6649 15.5849C67.6649 16.8792 68.7689 18.0001 70.3834 18.0001C72.0811 18.0001 72.8456 16.7058 72.8456 16.7058ZM70.9763 14.2904L72.9303 13.9457H72.9326V14.2036C72.9326 15.409 71.9972 16.3587 70.8931 16.3587C70.1286 16.3587 69.6182 15.8404 69.6182 15.3245C69.6182 14.8086 69.9577 14.4799 70.9763 14.2904Z" fill="black"/>
<path fill-rule="evenodd" clip-rule="evenodd" d="M82.6659 16.6186H82.7513V17.8262H84.7053V5.75452H82.7513V10.5827H82.6659C82.6659 10.5827 81.9013 9.2039 79.9473 9.2039C77.9933 9.2039 76.2102 11.0142 76.2102 13.6007C76.2102 16.1871 77.9933 17.9974 79.9473 17.9974C81.9013 17.9974 82.6659 16.6186 82.6659 16.6186ZM80.457 11.1851C81.7319 11.1851 82.7505 12.2215 82.7505 13.6004C82.7505 14.9815 81.7319 16.0156 80.457 16.0156C79.1821 16.0156 78.1635 14.9792 78.1635 13.6004C78.1635 12.2192 79.1821 11.1851 80.457 11.1851Z" fill="black"/>
<path fill-rule="evenodd" clip-rule="evenodd" d="M91.2459 16.7058H91.3291V17.8243H93.2831V12.5647C93.2831 10.7201 91.8395 9.20203 89.8001 9.20203C87.6774 9.20203 86.4879 10.9256 86.4879 10.9256L87.6774 12.1332C87.6774 12.1332 88.4779 11.0991 89.7169 11.0991C90.6523 11.0991 91.3313 11.7908 91.3313 12.3934L88.5274 12.9117C87.0838 13.1696 86.0652 14.206 86.0652 15.5849C86.0652 16.8792 87.1692 18.0001 88.7837 18.0001C90.4814 18.0001 91.2459 16.7058 91.2459 16.7058ZM89.3765 14.2904L91.3305 13.9457H91.3328V14.2036C91.3328 15.409 90.3974 16.3587 89.2933 16.3587C88.5288 16.3587 88.0184 15.8404 88.0184 15.3245C88.0184 14.8086 88.3579 14.4799 89.3765 14.2904Z" fill="black"/>
</svg>
